STARTFONT 2.1
COMMENT
COMMENT Converted from OpenType font "Patriot-Normal.otf" by "otf2bdf 3.0".
COMMENT
FONT -FreeType-Patriot Normal-Medium-R-Normal--77-560-100-100-P-362-ISO10646-1
SIZE 56 100 100
FONTBOUNDINGBOX 120 102 -27 -21
STARTPROPERTIES 19
FOUNDRY "FreeType"
FAMILY_NAME "Patriot Normal"
WEIGHT_NAME "Medium"
SLANT "R"
SETWIDTH_NAME "Normal"
ADD_STYLE_NAME ""
PIXEL_SIZE 77
POINT_SIZE 560
RESOLUTION_X 100
RESOLUTION_Y 100
SPACING "P"
AVERAGE_WIDTH 362
CHARSET_REGISTRY "ISO10646"
CHARSET_ENCODING "1"
FONT_ASCENT 78
FONT_DESCENT 15
COPYRIGHT "Copyright © 2020 by Behalf Studio. All rights reserved."
_OTF_FONTFILE "Patriot-Normal.otf"
_OTF_PSNAME "Patriot-Normal"
ENDPROPERTIES
CHARS 426
STARTCHAR 0020
ENCODING 32
SWIDTH 347 0
DWIDTH 27 0
BBX 0 0 0 0
BITMAP
ENDCHAR
STARTCHAR 0021
ENCODING 33
SWIDTH 231 0
DWIDTH 18 0
BBX 11 55 4 -1
BITMAP
1F00
1F00
1F00
1F00
1F00
1F00
1F00
1F00
1F00
1F00
1F00
1F00
1F00
1F00
1F00
1F00
1F00
1F00
1F00
1F00
1F00
1F00
1F00
1F00
1F00
1F00
1F00
1F00
1F00
1F00
1F00
1F00
1F00
1F00
1F00
0000
0000
0000
0000
0000
0000
0000
0000
0000
0E00
3F80
7FC0
FFC0
FFE0
FFE0
FFE0
FFC0
7FC0
3F80
0E00
ENDCHAR
STARTCHAR 0022
ENCODING 34
SWIDTH 282 0
DWIDTH 22 0
BBX 15 17 4 37
BITMAP
F83E
F83E
F83E
F83E
F83E
F83E
F83E
F83E
F83E
F83E
F83E
F83E
F83E
F83E
F83E
F83E
F83E
ENDCHAR
STARTCHAR 0023
ENCODING 35
SWIDTH 617 0
DWIDTH 48 0
BBX 41 54 4 0
BITMAP
0007C001F000
0007C003E000
0007C003E000
000F8003E000
000F8003E000
000F8003E000
000F8003E000
000F8003E000
000F8003C000
000F8007C000
001F0007C000
001F0007C000
001F0007C000
001F0007C000
001F0007C000
001F00078000
001F000F8000
3FFFFFFFFF80
3FFFFFFFFF80
3FFFFFFFFF80
3FFFFFFFFF80
003E000F8000
003E000F0000
003E001F0000
003C001F0000
007C001F0000
007C001F0000
007C001F0000
007C001F0000
007C001E0000
007C003E0000
0078003E0000
00F8003E0000
00F8003E0000
FFFFFFFFFC00
FFFFFFFFFC00
FFFFFFFFFC00
FFFFFFFFFC00
00F0007C0000
01F0007C0000
01F0007C0000
01F0007C0000
01F0007C0000
01F000780000
01F000F80000
01E000F80000
03E000F80000
03E000F80000
03E000F80000
03E000F80000
03E000F00000
03E001F00000
03C001F00000
07C001F00000
ENDCHAR
STARTCHAR 0024
ENCODING 36
SWIDTH 527 0
DWIDTH 41 0
BBX 33 68 4 -7
BITMAP
0001F00000
0001F00000
0001F00000
0001F00000
0001F00000
0003F00000
003FFE0000
00FFFF8000
01FFFFE000
03FFFFF000
07FFFFF800
0FF9F7F800
0FE1F3FC00
0FC1F0FC00
1FC1F0FE00
1F81F07E00
1F81F03F00
1F81F03F00
1F81F03F00
1F81F01C00
1F81F00000
1F81F00000
1FC1F00000
0FE1F00000
0FE1F00000
07F9F00000
03FDF00000
01FFF00000
00FFF00000
007FF00000
003FF80000
000FFC0000
0007FF0000
0001FF8000
0001FFE000
0001FFF000
0001FFF800
0001F7FC00
0001F1FE00
0001F0FE00
0001F07F00
0001F03F00
0001F03F80
0001F01F80
0001F01F80
0001F01F80
1C01F00F80
FC01F00F80
FC01F01F80
7E01F01F80
7E01F01F80
7F01F01F80
3F01F03F80
3F81F07F00
1FC1F0FF00
1FF1F1FE00
0FFFFFFC00
07FFFFFC00
03FFFFF000
00FFFFE000
007FFF8000
000FFE0000
0001F00000
0001F00000
0001F00000
0001F00000
0001F00000
0001F00000
ENDCHAR
STARTCHAR 0025
ENCODING 37
SWIDTH 835 0
DWIDTH 65 0
BBX 58 57 4 -1
BITMAP
001E000000000000
00FFE0000007E000
03FFF8000007C000
07FFFC00000F8000
1FFFFE00001F8000
1FC0FF00001F0000
3F003F80003E0000
7E001F80007C0000
7E000F8000FC0000
7C000FC000F80000
FC0007C001F00000
F80007C003F00000
F80007C003E00000
F80007C007C00000
F80007C00FC00000
F80007C00F800000
FC0007C01F000000
7C000FC03E000000
7E000F807E000000
3F001F807C000000
3F807F00F8000000
1FE1FF01F8000000
0FFFFE01F0000000
07FFFC03E0000000
01FFF007E0000000
007FC007C0000000
0000000F80000000
0000001F00000000
0000003F00000000
0000003E00000000
0000007C00000000
000000FC003F0000
000000F801FFC000
000001F007FFF000
000003F00FFFF800
000003E01FFFFC00
000007C03F80FE00
00000F807F007F00
00001F807E003F00
00001F00FC001F80
00003E00F8000F80
00007E00F8000F80
00007C01F8000FC0
0000F801F00007C0
0001F801F00007C0
0001F001F80007C0
0003E000F8000FC0
0007C000F8000F80
000FC000FC001F80
000F8000FC001F80
001F00007E003F00
003F00003F007F00
003E00003FE3FE00
007C00001FFFFC00
00FC00000FFFF800
00F8000003FFE000
0000000000FF8000
ENDCHAR
STARTCHAR 0026
ENCODING 38
SWIDTH 642 0
DWIDTH 50 0
BBX 42 56 4 -1
BITMAP
000FFC000000
003FFF800000
00FFFFE00000
01FFFFF00000
03FFFFF80000
07FC0FFC0000
0FF001FE0000
0FE000FE0000
1FC0007F0000
1F80003F0000
1F80001E0000
3F00001C0000
3F0000080000
3F0000000000
3F0000000000
3F0000000000
3F0000000000
1F8000000000
1F8000000000
1FC000000000
0FE000000000
0FF000000000
07FC00000000
03FFFFFFFFC0
01FFFFFFFFC0
00FFFFFFFFC0
03FFFFFFFFC0
07FFFFFFFFC0
0FFFFFFFFFC0
1FF00000FC00
1FC00000FC00
3F800000FC00
7F000000FC00
7E000000FC00
7E000000FC00
FE000000FC00
FC000000FC00
FC000001F800
FC000001F800
FC000001F800
FC000003F800
FC000003F000
FE000003F000
7E000007F000
7F000007E000
7F00000FE000
3F80001FC000
3FC0003FC000
1FE0007F8000
0FFC01FF0000
07FFFFFE0000
03FFFFFC0000
01FFFFF80000
007FFFE00000
001FFF800000
0001F8000000
ENDCHAR
STARTCHAR 0027
ENCODING 39
SWIDTH 154 0
DWIDTH 12 0
BBX 4 17 4 37
BITMAP
F0
F0
F0
F0
F0
F0
F0
F0
F0
F0
F0
F0
F0
F0
F0
F0
F0
ENDCHAR
STARTCHAR 0028
ENCODING 40
SWIDTH 308 0
DWIDTH 24 0
BBX 16 72 4 -11
BITMAP
0008
001E
001F
003F
003E
007E
00FC
00F8
01F8
01F0
03F0
03E0
07E0
07C0
0FC0
0F80
0F80
1F00
1F00
1F00
3E00
3E00
3E00
3C00
7C00
7C00
7C00
7C00
7800
F800
F800
F800
F800
F800
F800
F800
F800
F800
F800
F800
F800
F800
F800
F800
7800
7C00
7C00
7C00
7C00
3E00
3E00
3E00
3E00
1F00
1F00
1F80
0F80
0F80
07C0
07C0
07E0
03E0
03F0
01F0
01F8
00FC
007C
007E
003E
003F
001E
000C
ENDCHAR
STARTCHAR 0029
ENCODING 41
SWIDTH 308 0
DWIDTH 24 0
BBX 16 72 4 -11
BITMAP
1000
3800
FC00
FC00
7E00
3E00
3F00
1F80
0F80
0FC0
07C0
07E0
03E0
03F0
01F0
01F0
00F8
00F8
00F8
007C
007C
007C
003E
003E
003E
001E
001F
001F
001F
001F
001F
001F
001F
000F
000F
000F
000F
000F
000F
000F
001F
001F
001F
001F
001F
001F
001E
003E
003E
003E
003E
007C
007C
007C
00F8
00F8
00F8
01F0
01F0
03E0
03E0
07C0
07C0
0F80
1F80
1F00
3F00
3E00
7E00
FC00
7800
1800
ENDCHAR
STARTCHAR 002A
ENCODING 42
SWIDTH 450 0
DWIDTH 35 0
BBX 27 26 4 29
BITMAP
00040000
001F0000
001F0000
003F8000
003F8000
003F8000
003F8000
001F0000
7C1F07C0
FF1F1FE0
FF8F3FE0
FFEE7FE0
FFFFFFE0
7FFFFFC0
1FFFFF00
001F8000
003FC000
00FFE000
01FBF000
03FBF800
07F1FC00
07F1FC00
0FF0FE00
0FE0FE00
0FC07E00
07803C00
ENDCHAR
STARTCHAR 002B
ENCODING 43
SWIDTH 540 0
DWIDTH 42 0
BBX 35 34 4 9
BITMAP
0001F00000
0001F00000
0001F00000
0001F00000
0001F00000
0001F00000
0001F00000
0001F00000
0001F00000
0001F00000
0001F00000
0001F00000
0001F00000
0001F00000
0001F00000
FFFFFFFFE0
FFFFFFFFE0
FFFFFFFFE0
FFFFFFFFE0
FFFFFFFFE0
0001F00000
0001F00000
0001F00000
0001F00000
0001F00000
0001F00000
0001F00000
0001F00000
0001F00000
0001F00000
0001F00000
0001F00000
0001F00000
0001F00000
ENDCHAR
STARTCHAR 002C
ENCODING 44
SWIDTH 257 0
DWIDTH 20 0
BBX 12 15 4 -9
BITMAP
03F0
07E0
07E0
0FC0
0FC0
0F80
1F80
1F00
1E00
3E00
3C00
7C00
7800
7800
F000
ENDCHAR
STARTCHAR 002D
ENCODING 45
SWIDTH 437 0
DWIDTH 34 0
BBX 26 4 4 16
BITMAP
FFFFFFC0
FFFFFFC0
FFFFFFC0
FFFFFFC0
ENDCHAR
STARTCHAR 002E
ENCODING 46
SWIDTH 231 0
DWIDTH 18 0
BBX 11 11 4 -1
BITMAP
0E00
3F80
7FC0
FFC0
FFE0
FFE0
FFE0
FFC0
7FC0
3F80
0E00
ENDCHAR
STARTCHAR 002F
ENCODING 47
SWIDTH 372 0
DWIDTH 29 0
BBX 21 57 4 -1
BITMAP
0000F8
0000F8
0000F8
0001F0
0001F0
0001F0
0001E0
0003E0
0003E0
0003E0
0007C0
0007C0
0007C0
000780
000F80
000F80
000F80
001F00
001F00
001F00
001E00
003E00
003E00
003E00
007C00
007C00
007C00
007800
00F800
00F800
00F800
01F000
01F000
01F000
01E000
03E000
03E000
03E000
07C000
07C000
07C000
078000
0F8000
0F8000
0F8000
1F0000
1F0000
1F0000
1E0000
3E0000
3E0000
3E0000
7C0000
7C0000
7C0000
780000
F80000
ENDCHAR
STARTCHAR 0030
ENCODING 48
SWIDTH 694 0
DWIDTH 54 0
BBX 50 57 2 -1
BITMAP
000000C0000000
00003FFF000000
0001FFFFE00000
0007FFFFF80000
001FFFFFFE0000
003FFFFFFF0000
007FF001FF8000
00FF80007FC000
01FE00001FE000
03FC00000FF000
07F8000007F800
07F0000003F800
0FE0000001FC00
0FC0000000FE00
1F800000007E00
1F800000007E00
3F000000003F00
3F000000003F00
3F000000001F00
7E000000001F80
7E000000001F80
7E000000001F80
7E000000000F80
7C000000000F80
7C000000000FC0
7C000000000FC0
7C000000000FC0
FC000000000FC0
FC000000000FC0
FC000000000FC0
FC000000000FC0
7C000000000FC0
7C000000000FC0
7C000000000FC0
7C000000000F80
7E000000000F80
7E000000001F80
7E000000001F80
3E000000001F80
3F000000003F00
3F000000003F00
1F800000003F00
1F800000007E00
1FC0000000FE00
0FC0000000FC00
0FE0000001FC00
07F0000003F800
03F8000007F800
03FC00000FF000
01FF00003FE000
00FFC000FFC000
007FF807FF8000
001FFFFFFF0000
000FFFFFFC0000
0003FFFFF00000
0000FFFFC00000
00000FFE000000
ENDCHAR
STARTCHAR 0031
ENCODING 49
SWIDTH 270 0
DWIDTH 21 0
BBX 14 54 3 0
BITMAP
007C
007C
007C
007C
FFFC
FFFC
FFFC
FFFC
FFFC
007C
007C
007C
007C
007C
007C
007C
007C
007C
007C
007C
007C
007C
007C
007C
007C
007C
007C
007C
007C
007C
007C
007C
007C
007C
007C
007C
007C
007C
007C
007C
007C
007C
007C
007C
007C
007C
007C
007C
007C
007C
007C
007C
007C
007C
ENDCHAR
STARTCHAR 0032
ENCODING 50
SWIDTH 527 0
DWIDTH 41 0
BBX 37 56 2 0
BITMAP
0000700000
000FFF8000
003FFFF000
00FFFFF800
01FFFFFC00
03FFFFFE00
07FC01FF00
0FF0007F80
1FE0001FC0
1FC0001FC0
3F80000FE0
3F000007E0
3F000007E0
7E000003E0
7E000003E0
7E000003F0
7E000003F0
7C000003F0
04000003E0
00000003E0
00000007E0
00000007E0
00000007E0
0000000FC0
0000000FC0
0000001F80
0000001F80
0000003F00
0000007F00
000000FE00
000000FC00
000001FC00
000003F800
000007F000
00000FE000
00001FC000
00003F8000
00007F0000
0000FE0000
0001FC0000
0003F80000
0007F00000
000FE00000
001FC00000
003F800000
007F000000
00FE000000
01FC000000
03F8000000
07F0000000
0FE0000000
1FFFFFFFF8
3FFFFFFFF8
7FFFFFFFF8
FFFFFFFFF8
FFFFFFFFF8
ENDCHAR
STARTCHAR 0033
ENCODING 51
SWIDTH 514 0
DWIDTH 40 0
BBX 35 55 3 -1
BITMAP
FFFFFFFF00
FFFFFFFF00
FFFFFFFF00
FFFFFFFE00
FFFFFFFC00
000003F800
000007F000
00000FC000
00001F8000
00007F0000
0000FE0000
0001FC0000
0003F80000
0007F00000
000FE00000
001F800000
007FE00000
00FFFE0000
01FFFF8000
03FFFFE000
07FFFFF000
0FFFFFFC00
1FE007FE00
1F8001FE00
0F00007F00
0400003F80
0000001F80
0000001FC0
0000000FC0
00000007C0
00000007E0
00000007E0
00000007E0
00000003E0
00000003E0
00000003E0
00000007E0
00000007E0
00000007E0
00000007E0
00000007E0
0000000FC0
0000000FC0
0000001FC0
1800001F80
7C00003F80
FE00007F00
FF0000FE00
7F8003FC00
3FF01FFC00
1FFFFFF800
0FFFFFE000
03FFFFC000
00FFFF0000
003FF80000
ENDCHAR
STARTCHAR 0034
ENCODING 52
SWIDTH 514 0
DWIDTH 40 0
BBX 38 54 1 0
BITMAP
000003FF00
00001FFF00
00007FFF00
0001FFFF00
0007FFFF00
000FFE1F00
001FF01F00
007FC01F00
007F801F00
00FE001F00
01FC001F00
03F8001F00
07F0001F00
07F0001F00
0FE0001F00
0FC0001F00
1FC0001F00
1F80001F00
3F00001F00
3F00001F00
3F00001F00
7E00001F00
7E00001F00
7E00001F00
7C00001F00
7C00001F00
FC00001F00
FC00001F00
FC00001F00
FC00001F00
FC00001F00
FC00001F00
FFFFFFFFFC
FFFFFFFFFC
FFFFFFFFFC
FFFFFFFFFC
FFFFFFFFFC
0000001F00
0000001F00
0000001F00
0000001F00
0000001F00
0000001F00
0000001F00
0000001F00
0000001F00
0000001F00
0000001F00
0000001F00
0000001F00
0000001F00
0000001F00
0000001F00
0000001F00
ENDCHAR
STARTCHAR 0035
ENCODING 53
SWIDTH 527 0
DWIDTH 41 0
BBX 35 55 4 -1
BITMAP
3FFFFFFF00
3FFFFFFF00
3FFFFFFF00
3FFFFFFF00
3FFFFFFF00
7E00000000
7E00000000
7E00000000
7C00000000
7C00000000
7C00000000
7C00000000
7C00000000
7C00000000
7C00000000
7C00000000
7C00E00000
FC1FFF0000
FCFFFFC000
FFFFFFF000
FFFFFFF800
FFFFFFFC00
FFF003FE00
FF8001FF00
FF00007F00
FC00003F80
3800001F80
0000000FC0
0000000FC0
00000007E0
00000007E0
00000007E0
00000007E0
00000003E0
00000003E0
00000003E0
00000003E0
00000007E0
00000007E0
00000007E0
00000007E0
0000000FC0
0000000FC0
0000001FC0
3800001F80
7800003F80
FC00007F00
FF0000FE00
7FC003FE00
3FF01FFC00
1FFFFFF800
0FFFFFE000
03FFFFC000
00FFFF0000
001FF80000
ENDCHAR
STARTCHAR 0036
ENCODING 54
SWIDTH 591 0
DWIDTH 46 0
BBX 41 55 3 -1
BITMAP
00001FC00000
00001F800000
00003F800000
00007F000000
00007E000000
0000FC000000
0001FC000000
0001F8000000
0003F0000000
0007F0000000
000FE0000000
000FC0000000
001FC0000000
003F80000000
003F00000000
007E7FE00000
00FFFFFC0000
00FFFFFF0000
01FFFFFF8000
03FFFFFFE000
07FF003FF000
07FC000FF800
0FF00003F800
0FE00001FC00
1FC00000FE00
1F8000007E00
3F0000007F00
3F0000003F00
7E0000003F00
7E0000001F80
7C0000001F80
7C0000001F80
FC0000001F80
FC0000000F80
FC0000000F80
FC0000000F80
FC0000000F80
FC0000001F80
7C0000001F80
7E0000001F80
7E0000001F80
7E0000003F00
3F0000003F00
3F0000007E00
1F800000FE00
1FC00001FC00
0FE00003FC00
0FF00007F800
07FC001FF000
03FF80FFE000
01FFFFFFC000
007FFFFF8000
003FFFFE0000
000FFFF80000
0001FFC00000
ENDCHAR
STARTCHAR 0037
ENCODING 55
SWIDTH 424 0
DWIDTH 33 0
BBX 32 54 2 0
BITMAP
FFFFFFFF
FFFFFFFF
FFFFFFFF
FFFFFFFE
FFFFFFFE
0000007C
000000FC
000000FC
000001F8
000001F8
000001F0
000003F0
000003F0
000007E0
000007E0
000007C0
00000FC0
00000FC0
00001F80
00001F80
1FFFFFF0
1FFFFFF0
1FFFFFF0
1FFFFFF0
1FFFFFF0
1FFFFFF0
0000FC00
0000F800
0001F800
0001F800
0003F000
0003F000
0003E000
0007E000
0007E000
000FC000
000FC000
000F8000
001F8000
001F8000
003F0000
003F0000
003E0000
007E0000
007E0000
00FC0000
00FC0000
00F80000
01F80000
01F80000
03F00000
03F00000
03E00000
07E00000
ENDCHAR
STARTCHAR 0038
ENCODING 56
SWIDTH 552 0
DWIDTH 43 0
BBX 40 57 2 -1
BITMAP
00001C0000
0003FF8000
0007FFE000
001FFFF800
003FFFFC00
003F81FC00
007F00FE00
00FC007E00
00FC003F00
00F8001F00
00F8001F00
00F8001F00
00F8001F00
00F8001F00
00F8001F00
00FC003F00
00FC007E00
007E00FE00
007F81FC00
003FFFFC00
001FFFF800
003FFFFC00
00FFFFFF00
01FFFFFF80
03FE007FC0
07F8001FE0
0FE00007F0
1FC00003F8
3F800001F8
3F000000FC
7F000000FC
7E0000007E
7E0000007E
7C0000003E
FC0000003F
FC0000003F
FC0000003F
FC0000003F
FC0000003F
FC0000003F
FC0000003F
FC0000003E
7E0000007E
7E0000007E
7E000000FE
3F000000FC
3F800001FC
1FC00003F8
1FE00007F8
0FF0000FF0
07F8003FE0
03FF01FFC0
01FFFFFF80
00FFFFFF00
003FFFFC00
000FFFF000
0001FF8000
ENDCHAR
STARTCHAR 0039
ENCODING 57
SWIDTH 578 0
DWIDTH 45 0
BBX 42 56 2 0
BITMAP
00000C000000
0003FFF00000
000FFFFC0000
003FFFFF0000
00FFFFFFC000
01FFFFFFE000
03FF003FF000
07FC000FF800
0FF00003FC00
0FE00001FC00
1FC00000FE00
1F8000007F00
3F0000003F00
3F0000003F00
7E0000001F80
7E0000001F80
7E0000001F80
7C0000000F80
7C0000000F80
FC0000000FC0
FC0000000FC0
FC0000000FC0
7C0000000F80
7C0000000F80
7E0000001F80
7E0000001F80
7E0000001F80
7F0000003F00
3F0000003F00
3F8000007E00
1F800000FE00
1FC00000FC00
0FE00003FC00
07F80007F800
03FE001FF800
01FFC0FFF000
00FFFFFFE000
007FFFFFE000
001FFFFFC000
0007FFDF8000
00007E3F0000
0000007F0000
0000007E0000
000000FC0000
000001FC0000
000001F80000
000003F00000
000007F00000
00000FE00000
00000FC00000
00001F800000
00003F800000
00003F000000
00007E000000
0000FE000000
0000FC000000
ENDCHAR
STARTCHAR 003A
ENCODING 58
SWIDTH 231 0
DWIDTH 18 0
BBX 11 38 4 -1
BITMAP
1F00
3F80
7FC0
FFE0
FFE0
FFE0
FFE0
FFC0
7FC0
3F80
0400
0000
0000
0000
0000
0000
0000
0000
0000
0000
0000
0000
0000
0000
0000
0000
0000
0E00
3F80
7FC0
FFC0
FFE0
FFE0
FFE0
FFC0
7FC0
3F80
0E00
ENDCHAR
STARTCHAR 003B
ENCODING 59
SWIDTH 270 0
DWIDTH 21 0
BBX 14 46 4 -9
BITMAP
03C0
0FF0
0FF8
1FF8
1FFC
1FFC
1FFC
1FF8
0FF8
07F0
00C0
0000
0000
0000
0000
0000
0000
0000
0000
0000
0000
0000
0000
0000
0000
0000
0000
0000
0000
0000
0000
03F0
07E0
07E0
0FC0
0FC0
0F80
1F80
1F00
1E00
3E00
3C00
7C00
7800
7800
F000
ENDCHAR
STARTCHAR 003C
ENCODING 60
SWIDTH 540 0
DWIDTH 42 0
BBX 35 31 4 9
BITMAP
0000000020
00000001E0
0000000FE0
0000003FE0
000001FFE0
00000FFF80
00003FFC00
0001FFF000
000FFF8000
003FFC0000
01FFE00000
0FFF800000
3FFC000000
FFE0000000
FF00000000
FC00000000
FE00000000
FFC0000000
FFF8000000
1FFF000000
03FFC00000
00FFF80000
001FFF0000
0003FFC000
0000FFF800
00001FFF00
000003FFC0
000000FFE0
0000001FE0
00000003E0
00000000E0
ENDCHAR
STARTCHAR 003D
ENCODING 61
SWIDTH 540 0
DWIDTH 42 0
BBX 35 20 4 15
BITMAP
FFFFFFFFE0
FFFFFFFFE0
FFFFFFFFE0
FFFFFFFFE0
0000000000
0000000000
0000000000
0000000000
0000000000
0000000000
0000000000
0000000000
0000000000
0000000000
0000000000
FFFFFFFFE0
FFFFFFFFE0
FFFFFFFFE0
FFFFFFFFE0
FFFFFFFFE0
ENDCHAR
STARTCHAR 003E
ENCODING 62
SWIDTH 540 0
DWIDTH 42 0
BBX 35 31 4 9
BITMAP
8000000000
F000000000
FC00000000
FF80000000
FFF0000000
3FFC000000
0FFF800000
01FFF00000
003FFC0000
0007FF8000
0001FFF000
00003FFC00
000007FF80
000001FFE0
0000003FE0
00000007E0
0000000FE0
0000007FE0
000003FFC0
00001FFF00
00007FF800
0003FFC000
001FFF0000
007FF80000
03FFC00000
1FFF000000
FFF8000000
FFC0000000
FF00000000
F800000000
C000000000
ENDCHAR
STARTCHAR 003F
ENCODING 63
SWIDTH 411 0
DWIDTH 32 0
BBX 24 56 4 -1
BITMAP
00FF80
03FFE0
0FFFF8
1FFFFC
1FFFFC
3F81FE
7F007E
7E003F
FC003F
FC003F
F8001F
18001F
00001F
00003F
00003F
00007E
00007E
0000FC
0000FC
0001F8
0003F0
0007F0
0007E0
000FC0
001F80
001F80
003F00
003E00
007E00
007C00
007C00
00FC00
00FC00
00F800
00F800
00F800
00F800
00F800
000000
000000
000000
000000
000000
000000
000000
007800
01FC00
01FE00
03FF00
03FF00
03FF00
03FF00
03FF00
03FF00
01FE00
007800
ENDCHAR
STARTCHAR 0040
ENCODING 64
SWIDTH 784 0
DWIDTH 61 0
BBX 53 56 4 -1
BITMAP
000007FFF00000
00003FFFFE0000
0000FFFFFF8000
0003FFFFFFE000
000FFC000FF800
001FE00003FC00
003F800000FE00
007E0000003F00
00FC0000001F80
01F00000000FC0
03E000000007C0
07C000000003E0
0F8000000003E0
0F8000380001F0
1F0001FF0001F0
1E0007FF9E00F0
3E000FFFDE00F8
3C001FFFFE00F8
3C003F81FE0078
7C003F00FE0078
78007E007C0078
7800FC007C0078
F800F8007C0078
F800F8003C0078
F800F8003C0078
F001F0003C0078
F001F0007C00F8
F001F0007C00F8
F001F0007800F0
F001F0007800F0
F801F0007801F0
F801F800F801E0
F801F800F803E0
7800F801F807C0
7800FC03FC07C0
7C007E07FC1F80
7C007FFFBFFF00
3C003FFF3FFE00
3E001FFE1FFC00
3E0007F80FF000
1F000000000000
0F000000000000
0F800000000000
07C00000000000
07E00000000000
03F00000000700
01F80000000F80
00FC0000001F80
007F0000007F00
003FC00001FE00
000FF00007FC00
0007FF007FF000
0001FFFFFFE000
00007FFFFF0000
00000FFFFC0000
000000FF800000
ENDCHAR
STARTCHAR 0041
ENCODING 65
SWIDTH 540 0
DWIDTH 42 0
BBX 38 56 4 0
BITMAP
0001800000
003FFC0000
00FFFF0000
03FFFF8000
07FFFFE000
0FFFFFF000
1FF00FF000
1FC003F800
3F8001FC00
3F0000FC00
7F0000FE00
7E00007E00
7E00007E00
FC00007E00
FC00003F00
FC00003F00
FC00003F00
FC00003F00
FC00003F00
FC00003F00
FC00003F00
FC00003F00
FC00003F00
FC00003F00
FC00003F00
FC00003F00
FC00003F00
FC00003F00
FC00003F00
FC00003F00
FC00003F00
FC00003F00
FC00003F00
FC00003F00
FC00003F00
FC00003F00
FC00003F00
FC00003F00
FC00003F00
FC00003F00
FC00003F00
FC00003F00
FC00003F00
FC00003F00
FC00003F00
FC00003F00
FC00003F00
FC00003F00
FC00003F00
FC00003F00
FC00003F00
FFFFFFFFFC
FFFFFFFFFC
FFFFFFFFFC
FFFFFFFFFC
FFFFFFFFFC
ENDCHAR
STARTCHAR 0042
ENCODING 66
SWIDTH 578 0
DWIDTH 45 0
BBX 42 54 2 0
BITMAP
03FFFFFC0000
03FFFFFF8000
03FFFFFFC000
03FFFFFFF000
03FFFFFFF800
03F0000FFC00
03F00003FC00
03F00000FE00
03F000007E00
03F000007F00
03F000003F00
03F000003F00
03F000003F00
03F000003F00
03F000003F00
03F000003F00
03F000003F00
03F000003F00
03F000007F00
03F000007E00
03F00000FE00
03F00001FC00
03F00007FC00
03F000FFF800
FFFFFFFFF000
FFFFFFFFE000
FFFFFFFFE000
FFFFFFFFF800
FFFFFFFFFC00
03F00007FE00
03F00001FE00
03F000007F00
03F000003F80
03F000001F80
03F000001F80
03F000001FC0
03F000000FC0
03F000000FC0
03F000000FC0
03F000000FC0
03F000000FC0
03F000000FC0
03F000001F80
03F000001F80
03F000003F80
03F000007F00
03F00000FF00
03F00003FE00
03F000FFFC00
03FFFFFFFC00
03FFFFFFF000
03FFFFFFE000
03FFFFFF8000
03FFFFF80000
ENDCHAR
STARTCHAR 0043
ENCODING 67
SWIDTH 681 0
DWIDTH 53 0
BBX 50 57 2 -1
BITMAP
0000001F000000
000007FFF80000
00003FFFFF0000
0000FFFFFFC000
0003FFFFFFF000
000FFFFFFFF800
001FFE001FFE00
003FF00003FF00
007FC00001FF80
00FF0000007F80
01FE0000003FC0
03FC0000000F80
07F80000000F00
07F00000000600
0FE00000000000
0FC00000000000
1FC00000000000
1F800000000000
3F800000000000
3F000000000000
3F000000000000
7E000000000000
7E000000000000
7E000000000000
7E000000000000
7E000000000000
7C000000000000
FC000000000000
FC000000000000
FC000000000000
7C000000000000
7C000000000000
7E000000000000
7E000000000000
7E000000000000
7E000000000000
7F000000000000
3F000000000000
3F000000000000
3F800000000000
1F800000000000
1FC00000000000
0FE00000000000
0FE00000000000
07F00000000600
03F80000000F00
03FC0000001F80
01FF0000003FC0
00FF800000FF80
007FE00001FF00
003FF8000FFE00
000FFFE0FFFC00
0007FFFFFFF800
0001FFFFFFE000
00007FFFFF8000
00001FFFFE0000
000001FFE00000
ENDCHAR
STARTCHAR 0044
ENCODING 68
SWIDTH 630 0
DWIDTH 49 0
BBX 43 54 4 0
BITMAP
FFFFFC000000
FFFFFFC00000
FFFFFFF00000
FFFFFFFC0000
FFFFFFFF0000
FC001FFF8000
FC0001FFC000
FC00003FF000
FC00000FF000
FC000007F800
FC000001FC00
FC000000FE00
FC000000FE00
FC0000007F00
FC0000003F00
FC0000003F80
FC0000001F80
FC0000001FC0
FC0000000FC0
FC0000000FC0
FC0000000FC0
FC00000007C0
FC00000007E0
FC00000007E0
FC00000007E0
FC00000007E0
FC00000007E0
FC00000007E0
FC00000007E0
FC00000007E0
FC00000007E0
FC00000007E0
FC0000000FC0
FC0000000FC0
FC0000000FC0
FC0000000FC0
FC0000001F80
FC0000001F80
FC0000003F80
FC0000003F00
FC0000007F00
FC000000FE00
FC000001FE00
FC000003FC00
FC000007F800
FC00001FF000
FC00007FE000
FC0003FFC000
FC07FFFF8000
FFFFFFFE0000
FFFFFFF80000
FFFFFFE00000
FFFFFF000000
FFFFF0000000
ENDCHAR
STARTCHAR 0045
ENCODING 69
SWIDTH 475 0
DWIDTH 37 0
BBX 36 54 2 0
BITMAP
07FFFFE000
07FFFFE000
07FFFFE000
07FFFFE000
07FFFFE000
07E0000000
07E0000000
07E0000000
07E0000000
07E0000000
07E0000000
07E0000000
07E0000000
07E0000000
07E0000000
07E0000000
07E0000000
07E0000000
07E0000000
07E0000000
07E0000000
07E0000000
07E0000000
07E0000000
FFFFFFFC00
FFFFFFFC00
FFFFFFFC00
FFFFFFFC00
FFFFFFFC00
07E0000000
07E0000000
07E0000000
07E0000000
07E0000000
07E0000000
07E0000000
07E0000000
07E0000000
07E0000000
07E0000000
07E0000000
07E0000000
07E0000000
07E0000000
07E0000000
07E0000000
07E0000000
07E0000000
07E0000000
07FFFFFFF0
07FFFFFFF0
07FFFFFFF0
07FFFFFFF0
07FFFFFFF0
ENDCHAR
STARTCHAR 0046
ENCODING 70
SWIDTH 437 0
DWIDTH 34 0
BBX 33 54 2 0
BITMAP
01FFFFFF80
01FFFFFF80
01FFFFFF80
01FFFFFF80
01FFFFFF80
01F0000000
01F0000000
01F0000000
01F0000000
01F0000000
01F0000000
01F0000000
01F0000000
01F0000000
01F0000000
01F0000000
01F0000000
01F0000000
01F0000000
01F0000000
01F0000000
01F0000000
01F0000000
01F0000000
01F0000000
FFFFFFFE00
FFFFFFFE00
FFFFFFFE00
FFFFFFFE00
FFFFFFFE00
FFFFFFFE00
01F0000000
01F0000000
01F0000000
01F0000000
01F0000000
01F0000000
01F0000000
01F0000000
01F0000000
01F0000000
01F0000000
01F0000000
01F0000000
01F0000000
01F0000000
01F0000000
01F0000000
01F0000000
01F0000000
01F0000000
01F0000000
01F0000000
01F0000000
ENDCHAR
STARTCHAR 0047
ENCODING 71
SWIDTH 822 0
DWIDTH 64 0
BBX 62 57 2 -1
BITMAP
0000001E00000000
000007FFFC000000
00003FFFFF000000
0000FFFFFFE00000
0003FFFFFFF00000
0007FFFFFFFC0000
001FFF001FFE0000
003FF00003FF0000
007FC00000FF8000
00FF8000007FC000
01FE0000001FE000
03FC0000000F8000
07F8000000070000
07F0000000020000
0FE0000000000000
0FC0000000000000
1FC0000000000000
1F80000000000000
3F80000000000000
3F00000000000000
3F00000000000000
7E00000000000000
7E00000000000000
7E00000000000000
7E00000000000000
7E00000000000000
7C00001FFFFFFFFC
FC00001FFFFFFFFC
FC00001FFFFFFFFC
FC00001FFFFFFFFC
7C00001FFFFFFFFC
7C00000000001F80
7E00000000001F80
7E00000000001F80
7E00000000001F80
7E00000000001F80
7F00000000003F80
3F00000000003F00
3F00000000003F00
3F80000000007F00
1F80000000007E00
1FC000000000FE00
0FE000000001FC00
0FE000000001FC00
07F000000003F800
03F800000007F000
01FC0000000FF000
01FF0000001FE000
00FF8000007FC000
007FE00001FF8000
001FFC0007FF0000
000FFFE0FFFE0000
0007FFFFFFF80000
0001FFFFFFF00000
00007FFFFFC00000
00001FFFFE000000
000001FFF0000000
ENDCHAR
STARTCHAR 0048
ENCODING 72
SWIDTH 540 0
DWIDTH 42 0
BBX 37 54 2 0
BITMAP
07E00001F8
07E00001F8
07E00001F8
07E00001F8
07E00001F8
07E00001F8
07E00001F8
07E00001F8
07E00001F8
07E00001F8
07E00001F8
07E00001F8
07E00001F8
07E00001F8
07E00001F8
07E00001F8
07E00001F8
07E00001F8
07E00001F8
07E00001F8
07E00001F8
FFFFFFFFF8
FFFFFFFFF8
FFFFFFFFF8
FFFFFFFFF8
FFFFFFFFF8
FFFFFFFFF8
07E00001F8
07E00001F8
07E00001F8
07E00001F8
07E00001F8
07E00001F8
07E00001F8
07E00001F8
07E00001F8
07E00001F8
07E00001F8
07E00001F8
07E00001F8
07E00001F8
07E00001F8
07E00001F8
07E00001F8
07E00001F8
07E00001F8
07E00001F8
07E00001F8
07E00001F8
07E00001F8
07E00001F8
07E00001F8
07E00001F8
07E00001F8
ENDCHAR
STARTCHAR 0049
ENCODING 73
SWIDTH 167 0
DWIDTH 13 0
BBX 19 62 -3 0
BITMAP
004000
004000
004000
004000
00E000
00E000
00E000
F1F0E0
7FFFC0
1FFF00
0FFE00
03F800
03F800
07FC00
07BC00
071C00
0E0E00
080200
000000
000000
000000
000000
000000
000000
000000
000000
000000
000000
000000
01F000
01F000
01F000
01F000
01F000
01F000
01F000
01F000
01F000
01F000
01F000
01F000
01F000
01F000
01F000
01F000
01F000
01F000
01F000
01F000
01F000
01F000
01F000
01F000
01F000
01F000
01F000
01F000
01F000
01F000
01F000
01F000
01F000
ENDCHAR
STARTCHAR 004A
ENCODING 74
SWIDTH 450 0
DWIDTH 35 0
BBX 31 55 1 -1
BITMAP
00001FFE
00001FFE
00001FFE
00001FFE
00001FFE
0000007E
0000007E
0000007E
0000007E
0000007E
0000007E
0000007E
0000007E
0000007E
0000007E
0000007E
0000007E
0000007E
0000007E
0000007E
0000007E
0000007E
0000007E
0000007E
0000007E
0000007E
0000007E
0000007E
0000007E
0000007E
0000007E
0000007E
0000007E
0000007E
0000007E
0000007E
0000007E
0000007E
0000007E
0000007C
000000FC
000000FC
080000FC
3C0000FC
FC0001F8
FE0001F8
7E0003F8
7F0007F0
3FC01FF0
3FF87FE0
1FFFFFC0
0FFFFF80
07FFFF00
01FFFC00
003FF000
ENDCHAR
STARTCHAR 004B
ENCODING 75
SWIDTH 514 0
DWIDTH 40 0
BBX 35 54 2 0
BITMAP
07E0003F00
07E0003F00
07E0003F00
07E0003F00
07E0003F00
07E0003F00
07E0003F00
07E0003F00
07E0003F00
07E0003F00
07E0003F00
07E0003F00
07E0003E00
07E0007E00
07E0007E00
07E0007E00
07E0007E00
07E000FE00
07E000FC00
07E001FC00
07E001FC00
07E003F800
07E00FF000
07E07FF000
FFFFFFE000
FFFFFFE000
FFFFFFF800
FFFFFFFC00
FFFFFFFE00
07E003FF00
07E000FF00
07E0003F80
07E0001F80
07E0001FC0
07E0000FC0
07E0000FC0
07E0000FC0
07E00007E0
07E00007E0
07E00007E0
07E00007E0
07E00007E0
07E00007E0
07E00007E0
07E00007E0
07E00007E0
07E00007E0
07E00007E0
07E00007E0
07E00007E0
07E00007E0
07E00007E0
07E00007E0
07E00007E0
ENDCHAR
STARTCHAR 004C
ENCODING 76
SWIDTH 424 0
DWIDTH 33 0
BBX 27 54 4 0
BITMAP
FC000000
FC000000
FC000000
FC000000
FC000000
FC000000
FC000000
FC000000
FC000000
FC000000
FC000000
FC000000
FC000000
FC000000
FC000000
FC000000
FC000000
FC000000
FC000000
FC000000
FC000000
FC000000
FC000000
FC000000
FC000000
FC000000
FC000000
FC000000
FC000000
FC000000
FC000000
FC000000
FC000000
FC000000
FC000000
FC000000
FC000000
FC000000
FC000000
FC000000
FC000000
FC000000
FC000000
FC000000
FC000000
FC000000
FC000000
FC000000
FC000000
FFFFFFE0
FFFFFFE0
FFFFFFE0
FFFFFFE0
FFFFFFE0
ENDCHAR
STARTCHAR 004D
ENCODING 77
SWIDTH 848 0
DWIDTH 66 0
BBX 62 56 1 0
BITMAP
1000000000000000
3800000300000000
7E000003800000FC
7F000003E00000FC
FF800003F00000FC
7FC00003F80000FC
1FF00003FC0000FC
0FF80003FF0000FC
07FC0003FF8000FC
07FF0003FFC000FC
07FF8003FFF000FC
07FFC003FFF800FC
07DFE003F7FC00FC
07CFF803F1FE00FC
07C7FC03F0FF80FC
07C1FE03F07FC0FC
07C0FF83F03FE0FC
07C07FC3F00FF8FC
07C03FE3F007FCFC
07C00FF3F003FEFC
07C007FFF000FFFC
07C003FFF0007FFC
07C001FFF0003FFC
07C0007FF0001FFC
07C0003FF00007FC
07C0001FF00003FC
07C00007F00001FC
07C00003F00000FC
07C00003F00000FC
07C00003F00000FC
07C00003F00000FC
07C00003F00000FC
07C00003F00000FC
07C00003F00000FC
07C00003F00000FC
07C00003F00000FC
07C00003F00000FC
07C00003F00000FC
07C00003F00000FC
07C00003F00000FC
07C00003F00000FC
07C00003F00000FC
07C00003F00000FC
07C00003F00000FC
07C00003F00000FC
07C00003F00000FC
07C00003F00000FC
07C00003F00000FC
07C00003F00000FC
07C00003F00000FC
07C00003F00000FC
07C00003F00000FC
07C00003F00000FC
07C00003F00000FC
07C00003F00000FC
07C00003F00000FC
ENDCHAR
STARTCHAR 004E
ENCODING 78
SWIDTH 501 0
DWIDTH 39 0
BBX 34 56 1 0
BITMAP
1000000000
3800000000
7E00000FC0
7F00000FC0
FF80000FC0
7FC0000FC0
1FF0000FC0
1FF8000FC0
1FFC000FC0
1FFF000FC0
1FFF800FC0
1F7FC00FC0
1F3FE00FC0
1F0FF80FC0
1F07FC0FC0
1F03FE0FC0
1F00FF8FC0
1F007FCFC0
1F003FEFC0
1F001FFFC0
1F0007FFC0
1F0003FFC0
1F0001FFC0
1F0000FFC0
1F00003FC0
1F00001FC0
1F00000FC0
1F00000FC0
1F00000FC0
1F00000FC0
1F00000FC0
1F00000FC0
1F00000FC0
1F00000FC0
1F00000FC0
1F00000FC0
1F00000FC0
1F00000FC0
1F00000FC0
1F00000FC0
1F00000FC0
1F00000FC0
1F00000FC0
1F00000FC0
1F00000FC0
1F00000FC0
1F00000FC0
1F00000FC0
1F00000FC0
1F00000FC0
1F00000FC0
1F00000FC0
1F00000FC0
1F00000FC0
1F00000FC0
1F00000FC0
ENDCHAR
STARTCHAR 004F
ENCODING 79
SWIDTH 810 0
DWIDTH 63 0
BBX 59 57 2 -1
BITMAP
0000001F00000000
000007FFFC000000
00003FFFFF800000
0000FFFFFFE00000
0003FFFFFFF80000
0007FFFFFFFE0000
001FFF000FFF0000
003FF00001FF8000
007FC000007FC000
00FF8000001FE000
01FE0000000FF000
03FC00000007F800
07F800000003FC00
07F000000001FC00
0FE000000000FE00
0FC0000000007E00
1FC0000000007F00
1F80000000003F00
3F80000000003F80
3F00000000001F80
3F00000000001FC0
7E00000000000FC0
7E00000000000FC0
7E00000000000FC0
7E00000000000FC0
7E000000000007C0
7C000000000007E0
FC000000000007E0
FC000000000007E0
FC000000000007E0
7C000000000007E0
7C000000000007E0
7E000000000007C0
7E00000000000FC0
7E00000000000FC0
7E00000000000FC0
7F00000000000FC0
3F00000000001F80
3F00000000001F80
3F80000000003F80
1F80000000003F00
1FC0000000007F00
0FE000000000FE00
0FE000000000FE00
07F000000001FC00
03F800000003F800
01FC00000007F800
01FF0000001FF000
00FF8000003FE000
007FE00000FFC000
001FFC0007FF8000
000FFFE0FFFE0000
0007FFFFFFFC0000
0001FFFFFFF00000
00007FFFFFC00000
00001FFFFF000000
000001FFF0000000
ENDCHAR
STARTCHAR 0050
ENCODING 80
SWIDTH 540 0
DWIDTH 42 0
BBX 39 54 2 0
BITMAP
0FFFFFE000
0FFFFFFC00
0FFFFFFF00
0FFFFFFF80
0FFFFFFFE0
0FC0007FF0
0FC0000FF8
0FC00007F8
0FC00001FC
0FC00000FC
0FC00000FE
0FC000007E
0FC000007E
0FC000007E
0FC000007E
0FC000003E
0FC000003E
0FC000007E
0FC000007E
0FC000007E
0FC000007E
0FC00000FC
0FC00000FC
0FC00001FC
0FC00003F8
0FC0000FF0
0FC0003FF0
FFFFFFFFE0
FFFFFFFFC0
FFFFFFFF00
FFFFFFFC00
FFFFFFF000
FFFFFE0000
0FC0000000
0FC0000000
0FC0000000
0FC0000000
0FC0000000
0FC0000000
0FC0000000
0FC0000000
0FC0000000
0FC0000000
0FC0000000
0FC0000000
0FC0000000
0FC0000000
0FC0000000
0FC0000000
0FC0000000
0FC0000000
0FC0000000
0FC0000000
0FC0000000
ENDCHAR
STARTCHAR 0051
ENCODING 81
SWIDTH 810 0
DWIDTH 63 0
BBX 59 58 2 -2
BITMAP
0000001F00000000
000007FFFC000000
00003FFFFF800000
0000FFFFFFE00000
0003FFFFFFF80000
0007FFFFFFFE0000
001FFF000FFF0000
003FF00001FF8000
007FC000007FC000
00FF8000001FE000
01FE0000000FF000
03FC00000007F800
07F800000003FC00
07F000000001FC00
0FE000000000FE00
0FC0000000007E00
1FC0000000007F00
1F80000000003F00
3F80000000003F80
3F00000000001F80
3F00000000001FC0
7E00000000000FC0
7E00000000000FC0
7E00000000000FC0
7E00000000000FC0
7E000000000007C0
7C000000000007E0
FC000000000007E0
FC000000000007E0
FC000000000007E0
7C000000000007E0
7C000000000007E0
7E000000000007C0
7E00000000000FC0
7E00000000000FC0
7E00000000000FC0
7F00000000000FC0
3F00000000001F80
3F00000001001F80
3F80000003803F80
1F80000007C03F00
1FC000000FE07F00
0FE000000FF0FE00
0FE0000007F8FE00
07F0000003FDFC00
03F8000001FFF800
01FC000000FFF800
01FF0000007FF000
00FF8000003FE000
007FE00000FFE000
001FFC0007FFF000
000FFFE07FFFF800
0007FFFFFFFFFC00
0001FFFFFFF1FE00
00007FFFFFC0FC00
00001FFFFF007800
000001FFF0003000
0000000000001000
ENDCHAR
STARTCHAR 0052
ENCODING 82
SWIDTH 565 0
DWIDTH 44 0
BBX 40 54 2 0
BITMAP
07FFFFF000
07FFFFFE00
07FFFFFF80
07FFFFFFC0
07FFFFFFE0
07E0007FF0
07E0000FF8
07E00003FC
07E00001FC
07E00000FE
07E000007E
07E000007E
07E000003F
07E000003F
07E000003F
07E000003F
07E000003F
07E000003F
07E000003F
07E000007E
07E000007E
07E00000FE
07E00000FC
07E00001FC
07E00007F8
07E0001FF8
07E001FFF0
FFFFFFFFE0
FFFFFFFF80
FFFFFFFF00
FFFFFFFE00
FFFFFFFF00
07E001FF80
07E0007FC0
07E0001FC0
07E0000FE0
07E00007E0
07E00007F0
07E00003F0
07E00003F0
07E00001F8
07E00001F8
07E00001F8
07E00001F8
07E00001F8
07E00000F8
07E00000FC
07E00000FC
07E00000FC
07E00000FC
07E00000FC
07E00000FC
07E00000FC
07E00000FC
ENDCHAR
STARTCHAR 0053
ENCODING 83
SWIDTH 475 0
DWIDTH 37 0
BBX 33 57 2 -1
BITMAP
0003E00000
003FFE0000
00FFFF8000
01FFFFE000
03FFFFF000
07FFFFF800
07F807F800
0FE003FC00
0FC000FE00
1FC000FE00
1F80007E00
1F80003F00
1F80003F00
1F80003F00
1F80001C00
1F80000000
1F80000000
1FC0000000
0FE0000000
0FF0000000
07F8000000
03FC000000
01FF000000
00FF800000
007FE00000
003FF80000
000FFC0000
0007FF0000
0001FFC000
00007FE000
00003FF000
00000FF800
000007FC00
000001FE00
000000FE00
0000007F00
0000003F00
0000003F80
0000001F80
0000001F80
0000001F80
1C00000F80
FC00000F80
FC00000F80
7E00001F80
7E00001F80
7F00001F80
3F00003F80
3F80007F00
1FC000FF00
1FF001FE00
0FFE0FFC00
07FFFFFC00
03FFFFF800
00FFFFE000
003FFF8000
000FFE0000
ENDCHAR
STARTCHAR 0054
ENCODING 84
SWIDTH 488 0
DWIDTH 38 0
BBX 35 54 2 0
BITMAP
FFFFFFFFE0
FFFFFFFFE0
FFFFFFFFE0
FFFFFFFFE0
FFFFFFFFE0
0003F00000
0003F00000
0003F00000
0003F00000
0003F00000
0003F00000
0003F00000
0003F00000
0003F00000
0003F00000
0003F00000
0003F00000
0003F00000
0003F00000
0003F00000
0003F00000
0003F00000
0003F00000
0003F00000
0003F00000
0003F00000
0003F00000
0003F00000
0003F00000
0003F00000
0003F00000
0003F00000
0003F00000
0003F00000
0003F00000
0003F00000
0003F00000
0003F00000
0003F00000
0003F00000
0003F00000
0003F00000
0003F00000
0003F00000
0003F00000
0003F00000
0003F00000
0003F00000
0003F00000
0003F00000
0003F00000
0003F00000
0003F00000
0003F00000
ENDCHAR
STARTCHAR 0055
ENCODING 85
SWIDTH 488 0
DWIDTH 38 0
BBX 32 55 3 -1
BITMAP
FC00001F
FC00001F
FC00001F
FC00001F
FC00001F
FC00001F
FC00001F
FC00001F
FC00001F
FC00001F
FC00001F
FC00001F
FC00001F
FC00001F
FC00001F
FC00001F
FC00001F
FC00001F
FC00001F
FC00001F
FC00001F
FC00001F
FC00001F
FC00001F
FC00001F
FC00001F
FC00001F
FC00001F
FC00001F
FC00001F
FC00001F
FC00001F
FC00001F
FC00001F
FC00001F
FC00001F
FC00001F
FC00001F
FC00003F
FC00003F
7C00003F
7E00003F
7E00003F
7E00007E
7F00007E
3F0000FE
3F8000FC
1FC001FC
1FE007F8
0FFC3FF0
07FFFFF0
03FFFFE0
01FFFF80
007FFF00
001FF800
ENDCHAR
STARTCHAR 0056
ENCODING 86
SWIDTH 450 0
DWIDTH 35 0
BBX 31 54 1 0
BITMAP
FC00007E
FC00007E
FC00007E
FC00007E
FC00007E
FC00007E
FC00007E
FC00007E
FC00007E
FC00007E
FC00007E
FC00007E
FC00007E
FC00007E
FC00007E
FC00007E
FC00007E
FC00007E
FC00007E
FC00007E
FC00007E
FC00007E
FC00007E
FC00007E
FC00007E
FC00007C
FC00007C
FC00007C
FC0000FC
FC0000FC
FC0000FC
FC0000FC
FC0000FC
FC0000FC
7E0000FC
7E0001F8
7E0001F8
7E0001F8
7F0001F8
3F0003F0
3F0003F0
3F8003F0
1F8007E0
1FC007E0
0FC00FC0
0FE01FC0
07F01F80
03F03F80
03F87F00
01FCFE00
00FFFC00
007FF800
003FF000
001FE000
ENDCHAR
STARTCHAR 0057
ENCODING 87
SWIDTH 771 0
DWIDTH 60 0
BBX 56 54 1 0
BITMAP
FC00007E00003F
FC00007E00003F
FC00007E00003F
FC00007E00003F
FC00007E00003F
FC00007E00003F
FC00007E00003F
FC00007E00003F
FC00007E00003F
FC00007E00003F
FC00007E00003F
FC00007E00003F
FC00007E00003F
FC00007E00003F
FC00007E00003F
FC00007E00003F
FC00007E00003F
FC00007E00003F
FC00007E00003F
FC00007E00003F
FC00007E00003F
FC00007E00003F
FC00007E00003F
FC00007E00003F
FC00007E00003F
FC00007E00003F
FC00007E00003E
FC00007E00003E
FC0000FE00003E
FC0000FE00007E
FC0000FE00007E
FC0000FE00007E
FC0000FE00007E
FC0000FE00007E
7E0000FF00007E
7E0001FF00007C
7E0001FF0000FC
7E0001FF0000FC
7F0001FF8000FC
3F0003FF8001FC
3F0003FF8001F8
3F8003FFC001F8
1F8007EFC003F0
1FC007EFE003F0
0FC00FC7E007F0
0FE01FC7F00FE0
07F01F83F80FC0
03F03F81F81FC0
03F87F01FC3F80
01FCFE00FE7F00
00FFFC007FFE00
007FF8003FFC00
003FF0001FF800
001FE0000FF000
ENDCHAR
STARTCHAR 0058
ENCODING 88
SWIDTH 501 0
DWIDTH 39 0
BBX 32 54 4 0
BITMAP
F800003F
F800003F
F800003F
F800003F
F800003F
F800003F
F800003F
F800003F
FC00003F
FC00003F
FC00003F
FC00003E
FC00007E
FC00007E
7E00007E
7E0000FE
7F0000FC
3F0001FC
3F8003F8
1FE00FF8
0FFC7FF0
07FFFFE0
03FFFFC0
03FFFF80
07FFFFC0
0FFFFFE0
1FF01FF0
1FC007F8
3F8003F8
3F0001FC
7E0000FC
7E0000FE
FC00007E
FC00007E
FC00007E
FC00003F
FC00003F
FC00003F
F800003F
F800003F
F800003F
F800003F
F800003F
F800003F
F800003F
F800003F
F800003F
F800003F
F800003F
F800003F
F800003F
F800003F
F800003F
F800003F
ENDCHAR
STARTCHAR 0059
ENCODING 89
SWIDTH 475 0
DWIDTH 37 0
BBX 32 54 3 0
BITMAP
FC00003F
FC00003F
FC00003F
FC00003F
FC00003F
FC00003F
FC00003F
FC00003F
FC00003F
FC00003F
FC00003F
FC00003F
FC00003F
FC00003F
FC00003F
FC00003F
FC00003F
FC00003F
FC00003F
FC00003F
FC00003F
FC00003F
FC00003F
FC00003F
FC00003F
FC00003F
FC00003F
FC00003F
7C00007E
7E00007E
7E00007E
7F0000FC
3F8001FC
3FC003F8
1FE007F8
0FFC7FF0
07FFFFE0
03FFFFC0
01FFFF80
007FFE00
000FF000
0007E000
0007E000
0007E000
0007E000
0007E000
0007E000
0007E000
0007E000
0007E000
0007E000
0007E000
0007E000
0007E000
ENDCHAR
STARTCHAR 005A
ENCODING 90
SWIDTH 488 0
DWIDTH 38 0
BBX 35 54 2 0
BITMAP
FFFFFFFFE0
FFFFFFFFE0
FFFFFFFFE0
FFFFFFFFC0
FFFFFFFFC0
0000001F80
0000003F00
0000007F00
0000007E00
000000FE00
000001FC00
000001F800
000003F800
000003F000
000007F000
00000FE000
00000FC000
00001FC000
00001F8000
00003F8000
00007F0000
00007E0000
0000FE0000
0000FC0000
0001FC0000
0001F80000
0003F00000
0007F00000
0007E00000
000FE00000
000FC00000
001F800000
003F800000
003F000000
007F000000
00FE000000
00FC000000
01FC000000
01F8000000
03F8000000
07F0000000
07E0000000
0FE0000000
0FC0000000
1FC0000000
3F80000000
3F00000000
7F00000000
7E00000000
FFFFFFFF80
FFFFFFFF80
FFFFFFFF80
FFFFFFFF80
FFFFFFFF80
ENDCHAR
STARTCHAR 005B
ENCODING 91
SWIDTH 218 0
DWIDTH 17 0
BBX 9 73 4 -10
BITMAP
FF80
FF80
FF80
FF80
F000
F000
F000
F000
F000
F000
F000
F000
F000
F000
F000
F000
F000
F000
F000
F000
F000
F000
F000
F000
F000
F000
F000
F000
F000
F000
F000
F000
F000
F000
F000
F000
F000
F000
F000
F000
F000
F000
F000
F000
F000
F000
F000
F000
F000
F000
F000
F000
F000
F000
F000
F000
F000
F000
F000
F000
F000
F000
F000
F000
F000
F000
F000
F000
F000
F000
FF80
FF80
FF80
ENDCHAR
STARTCHAR 005C
ENCODING 92
SWIDTH 372 0
DWIDTH 29 0
BBX 21 57 4 -1
BITMAP
F80000
F80000
7C0000
7C0000
7C0000
3C0000
3E0000
3E0000
3E0000
1F0000
1F0000
1F0000
0F0000
0F8000
0F8000
0F8000
07C000
07C000
07C000
03C000
03E000
03E000
03E000
01F000
01F000
01F000
00F000
00F800
00F800
00F800
007C00
007C00
007C00
003E00
003E00
003E00
003E00
001F00
001F00
001F00
000F80
000F80
000F80
000F80
0007C0
0007C0
0007C0
0003E0
0003E0
0003E0
0003E0
0001F0
0001F0
0001F0
0000F8
0000F8
0000F8
ENDCHAR
STARTCHAR 005D
ENCODING 93
SWIDTH 218 0
DWIDTH 17 0
BBX 9 73 4 -10
BITMAP
FF80
FF80
FF80
FF80
0780
0780
0780
0780
0780
0780
0780
0780
0780
0780
0780
0780
0780
0780
0780
0780
0780
0780
0780
0780
0780
0780
0780
0780
0780
0780
0780
0780
0780
0780
0780
0780
0780
0780
0780
0780
0780
0780
0780
0780
0780
0780
0780
0780
0780
0780
0780
0780
0780
0780
0780
0780
0780
0780
0780
0780
0780
0780
0780
0780
0780
0780
0780
0780
0780
0780
FF80
FF80
FF80
ENDCHAR
STARTCHAR 005E
ENCODING 94
SWIDTH 450 0
DWIDTH 35 0
BBX 27 19 4 28
BITMAP
001F8000
003FC000
003FC000
007FE000
00FBE000
00F9F000
01F1F800
01F0F800
03E07C00
03E07C00
07C03E00
0F803E00
0F801F00
1F001F80
1F000F80
3E0007C0
3E0007C0
7C0003E0
FC0003E0
ENDCHAR
STARTCHAR 005F
ENCODING 95
SWIDTH 514 0
DWIDTH 40 0
BBX 32 3 4 -7
BITMAP
FFFFFFFF
FFFFFFFF
FFFFFFFF
ENDCHAR
STARTCHAR 0060
ENCODING 96
SWIDTH 141 0
DWIDTH 11 0
BBX 11 10 0 59
BITMAP
FC00
7E00
3E00
1F00
0F00
0F80
07C0
03C0
01E0
01E0
ENDCHAR
STARTCHAR 0061
ENCODING 97
SWIDTH 540 0
DWIDTH 42 0
BBX 38 56 4 0
BITMAP
0001800000
003FFC0000
00FFFF0000
03FFFF8000
07FFFFE000
0FFFFFF000
1FF00FF000
1FC003F800
3F8001FC00
3F0000FC00
7F0000FE00
7E00007E00
7E00007E00
FC00007E00
FC00003F00
FC00003F00
FC00003F00
FC00003F00
FC00003F00
FC00003F00
FC00003F00
FC00003F00
FC00003F00
FC00003F00
FC00003F00
FC00003F00
FC00003F00
FC00003F00
FC00003F00
FC00003F00
FC00003F00
FC00003F00
FC00003F00
FC00003F00
FC00003F00
FC00003F00
FC00003F00
FC00003F00
FC00003F00
FC00003F00
FC00003F00
FC00003F00
FC00003F00
FC00003F00
FC00003F00
FC00003F00
FC00003F00
FC00003F00
FC00003F00
FC00003F00
FC00003F00
FFFFFFFFFC
FFFFFFFFFC
FFFFFFFFFC
FFFFFFFFFC
FFFFFFFFFC
ENDCHAR
STARTCHAR 0062
ENCODING 98
SWIDTH 578 0
DWIDTH 45 0
BBX 42 54 2 0
BITMAP
03FFFFFC0000
03FFFFFF8000
03FFFFFFC000
03FFFFFFF000
03FFFFFFF800
03F0000FFC00
03F00003FC00
03F00000FE00
03F000007E00
03F000007F00
03F000003F00
03F000003F00
03F000003F00
03F000003F00
03F000003F00
03F000003F00
03F000003F00
03F000003F00
03F000007F00
03F000007E00
03F00000FE00
03F00001FC00
03F00007FC00
03F000FFF800
FFFFFFFFF000
FFFFFFFFE000
FFFFFFFFE000
FFFFFFFFF800
FFFFFFFFFC00
03F00007FE00
03F00001FE00
03F000007F00
03F000003F80
03F000001F80
03F000001F80
03F000001FC0
03F000000FC0
03F000000FC0
03F000000FC0
03F000000FC0
03F000000FC0
03F000000FC0
03F000001F80
03F000001F80
03F000003F80
03F000007F00
03F00000FF00
03F00003FE00
03F000FFFC00
03FFFFFFFC00
03FFFFFFF000
03FFFFFFE000
03FFFFFF8000
03FFFFF80000
ENDCHAR
STARTCHAR 0063
ENCODING 99
SWIDTH 681 0
DWIDTH 53 0
BBX 50 57 2 -1
BITMAP
0000001F000000
000007FFF80000
00003FFFFF0000
0000FFFFFFC000
0003FFFFFFF000
000FFFFFFFF800
001FFE001FFE00
003FF00003FF00
007FC00001FF80
00FF0000007F80
01FE0000003FC0
03FC0000000F80
07F80000000F00
07F00000000600
0FE00000000000
0FC00000000000
1FC00000000000
1F800000000000
3F800000000000
3F000000000000
3F000000000000
7E000000000000
7E000000000000
7E000000000000
7E000000000000
7E000000000000
7C000000000000
FC000000000000
FC000000000000
FC000000000000
7C000000000000
7C000000000000
7E000000000000
7E000000000000
7E000000000000
7E000000000000
7F000000000000
3F000000000000
3F000000000000
3F800000000000
1F800000000000
1FC00000000000
0FE00000000000
0FE00000000000
07F00000000600
03F80000000F00
03FC0000001F80
01FF0000003FC0
00FF800000FF80
007FE00001FF00
003FF8000FFE00
000FFFE0FFFC00
0007FFFFFFF800
0001FFFFFFE000
00007FFFFF8000
00001FFFFE0000
000001FFE00000
ENDCHAR
STARTCHAR 0064
ENCODING 100
SWIDTH 630 0
DWIDTH 49 0
BBX 43 54 4 0
BITMAP
FFFFFC000000
FFFFFFC00000
FFFFFFF00000
FFFFFFFC0000
FFFFFFFF0000
FC001FFF8000
FC0001FFC000
FC00003FF000
FC00000FF000
FC000007F800
FC000001FC00
FC000000FE00
FC000000FE00
FC0000007F00
FC0000003F00
FC0000003F80
FC0000001F80
FC0000001FC0
FC0000000FC0
FC0000000FC0
FC0000000FC0
FC00000007C0
FC00000007E0
FC00000007E0
FC00000007E0
FC00000007E0
FC00000007E0
FC00000007E0
FC00000007E0
FC00000007E0
FC00000007E0
FC00000007E0
FC0000000FC0
FC0000000FC0
FC0000000FC0
FC0000000FC0
FC0000001F80
FC0000001F80
FC0000003F80
FC0000003F00
FC0000007F00
FC000000FE00
FC000001FE00
FC000003FC00
FC000007F800
FC00001FF000
FC00007FE000
FC0003FFC000
FC07FFFF8000
FFFFFFFE0000
FFFFFFF80000
FFFFFFE00000
FFFFFF000000
FFFFF0000000
ENDCHAR
STARTCHAR 0065
ENCODING 101
SWIDTH 475 0
DWIDTH 37 0
BBX 36 54 2 0
BITMAP
07FFFFE000
07FFFFE000
07FFFFE000
07FFFFE000
07FFFFE000
07E0000000
07E0000000
07E0000000
07E0000000
07E0000000
07E0000000
07E0000000
07E0000000
07E0000000
07E0000000
07E0000000
07E0000000
07E0000000
07E0000000
07E0000000
07E0000000
07E0000000
07E0000000
07E0000000
FFFFFFFC00
FFFFFFFC00
FFFFFFFC00
FFFFFFFC00
FFFFFFFC00
07E0000000
07E0000000
07E0000000
07E0000000
07E0000000
07E0000000
07E0000000
07E0000000
07E0000000
07E0000000
07E0000000
07E0000000
07E0000000
07E0000000
07E0000000
07E0000000
07E0000000
07E0000000
07E0000000
07E0000000
07FFFFFFF0
07FFFFFFF0
07FFFFFFF0
07FFFFFFF0
07FFFFFFF0
ENDCHAR
STARTCHAR 0066
ENCODING 102
SWIDTH 437 0
DWIDTH 34 0
BBX 33 54 2 0
BITMAP
01FFFFFF80
01FFFFFF80
01FFFFFF80
01FFFFFF80
01FFFFFF80
01F0000000
01F0000000
01F0000000
01F0000000
01F0000000
01F0000000
01F0000000
01F0000000
01F0000000
01F0000000
01F0000000
01F0000000
01F0000000
01F0000000
01F0000000
01F0000000
01F0000000
01F0000000
01F0000000
01F0000000
FFFFFFFE00
FFFFFFFE00
FFFFFFFE00
FFFFFFFE00
FFFFFFFE00
FFFFFFFE00
01F0000000
01F0000000
01F0000000
01F0000000
01F0000000
01F0000000
01F0000000
01F0000000
01F0000000
01F0000000
01F0000000
01F0000000
01F0000000
01F0000000
01F0000000
01F0000000
01F0000000
01F0000000
01F0000000
01F0000000
01F0000000
01F0000000
01F0000000
ENDCHAR
STARTCHAR 0067
ENCODING 103
SWIDTH 822 0
DWIDTH 64 0
BBX 62 57 2 -1
BITMAP
0000001E00000000
000007FFFC000000
00003FFFFF000000
0000FFFFFFE00000
0003FFFFFFF00000
0007FFFFFFFC0000
001FFF001FFE0000
003FF00003FF0000
007FC00000FF8000
00FF8000007FC000
01FE0000001FE000
03FC0000000F8000
07F8000000070000
07F0000000020000
0FE0000000000000
0FC0000000000000
1FC0000000000000
1F80000000000000
3F80000000000000
3F00000000000000
3F00000000000000
7E00000000000000
7E00000000000000
7E00000000000000
7E00000000000000
7E00000000000000
7C00001FFFFFFFFC
FC00001FFFFFFFFC
FC00001FFFFFFFFC
FC00001FFFFFFFFC
7C00001FFFFFFFFC
7C00000000001F80
7E00000000001F80
7E00000000001F80
7E00000000001F80
7E00000000001F80
7F00000000003F80
3F00000000003F00
3F00000000003F00
3F80000000007F00
1F80000000007E00
1FC000000000FE00
0FE000000001FC00
0FE000000001FC00
07F000000003F800
03F800000007F000
01FC0000000FF000
01FF0000001FE000
00FF8000007FC000
007FE00001FF8000
001FFC0007FF0000
000FFFE0FFFE0000
0007FFFFFFF80000
0001FFFFFFF00000
00007FFFFFC00000
00001FFFFE000000
000001FFF0000000
ENDCHAR
STARTCHAR 0068
ENCODING 104
SWIDTH 540 0
DWIDTH 42 0
BBX 37 54 2 0
BITMAP
07E00001F8
07E00001F8
07E00001F8
07E00001F8
07E00001F8
07E00001F8
07E00001F8
07E00001F8
07E00001F8
07E00001F8
07E00001F8
07E00001F8
07E00001F8
07E00001F8
07E00001F8
07E00001F8
07E00001F8
07E00001F8
07E00001F8
07E00001F8
07E00001F8
FFFFFFFFF8
FFFFFFFFF8
FFFFFFFFF8
FFFFFFFFF8
FFFFFFFFF8
FFFFFFFFF8
07E00001F8
07E00001F8
07E00001F8
07E00001F8
07E00001F8
07E00001F8
07E00001F8
07E00001F8
07E00001F8
07E00001F8
07E00001F8
07E00001F8
07E00001F8
07E00001F8
07E00001F8
07E00001F8
07E00001F8
07E00001F8
07E00001F8
07E00001F8
07E00001F8
07E00001F8
07E00001F8
07E00001F8
07E00001F8
07E00001F8
07E00001F8
ENDCHAR
STARTCHAR 0069
ENCODING 105
SWIDTH 167 0
DWIDTH 13 0
BBX 19 62 -3 0
BITMAP
004000
004000
004000
004000
00E000
00E000
00E000
F1F0E0
7FFFC0
1FFF00
0FFE00
03F800
03F800
07FC00
07BC00
071C00
0E0E00
080200
000000
000000
000000
000000
000000
000000
000000
000000
000000
000000
000000
01F000
01F000
01F000
01F000
01F000
01F000
01F000
01F000
01F000
01F000
01F000
01F000
01F000
01F000
01F000
01F000
01F000
01F000
01F000
01F000
01F000
01F000
01F000
01F000
01F000
01F000
01F000
01F000
01F000
01F000
01F000
01F000
01F000
ENDCHAR
STARTCHAR 006A
ENCODING 106
SWIDTH 450 0
DWIDTH 35 0
BBX 31 55 1 -1
BITMAP
00001FFE
00001FFE
00001FFE
00001FFE
00001FFE
0000007E
0000007E
0000007E
0000007E
0000007E
0000007E
0000007E
0000007E
0000007E
0000007E
0000007E
0000007E
0000007E
0000007E
0000007E
0000007E
0000007E
0000007E
0000007E
0000007E
0000007E
0000007E
0000007E
0000007E
0000007E
0000007E
0000007E
0000007E
0000007E
0000007E
0000007E
0000007E
0000007E
0000007E
0000007C
000000FC
000000FC
080000FC
3C0000FC
FC0001F8
FE0001F8
7E0003F8
7F0007F0
3FC01FF0
3FF87FE0
1FFFFFC0
0FFFFF80
07FFFF00
01FFFC00
003FF000
ENDCHAR
STARTCHAR 006B
ENCODING 107
SWIDTH 514 0
DWIDTH 40 0
BBX 35 54 2 0
BITMAP
07E0003F00
07E0003F00
07E0003F00
07E0003F00
07E0003F00
07E0003F00
07E0003F00
07E0003F00
07E0003F00
07E0003F00
07E0003F00
07E0003F00
07E0003E00
07E0007E00
07E0007E00
07E0007E00
07E0007E00
07E000FE00
07E000FC00
07E001FC00
07E001FC00
07E003F800
07E00FF000
07E07FF000
FFFFFFE000
FFFFFFE000
FFFFFFF800
FFFFFFFC00
FFFFFFFE00
07E003FF00
07E000FF00
07E0003F80
07E0001F80
07E0001FC0
07E0000FC0
07E0000FC0
07E0000FC0
07E00007E0
07E00007E0
07E00007E0
07E00007E0
07E00007E0
07E00007E0
07E00007E0
07E00007E0
07E00007E0
07E00007E0
07E00007E0
07E00007E0
07E00007E0
07E00007E0
07E00007E0
07E00007E0
07E00007E0
ENDCHAR
STARTCHAR 006C
ENCODING 108
SWIDTH 424 0
DWIDTH 33 0
BBX 27 54 4 0
BITMAP
FC000000
FC000000
FC000000
FC000000
FC000000
FC000000
FC000000
FC000000
FC000000
FC000000
FC000000
FC000000
FC000000
FC000000
FC000000
FC000000
FC000000
FC000000
FC000000
FC000000
FC000000
FC000000
FC000000
FC000000
FC000000
FC000000
FC000000
FC000000
FC000000
FC000000
FC000000
FC000000
FC000000
FC000000
FC000000
FC000000
FC000000
FC000000
FC000000
FC000000
FC000000
FC000000
FC000000
FC000000
FC000000
FC000000
FC000000
FC000000
FC000000
FFFFFFE0
FFFFFFE0
FFFFFFE0
FFFFFFE0
FFFFFFE0
ENDCHAR
STARTCHAR 006D
ENCODING 109
SWIDTH 848 0
DWIDTH 66 0
BBX 62 56 1 0
BITMAP
1000000000000000
3800000300000000
7E000003800000FC
7F000003E00000FC
FF800003F00000FC
7FC00003F80000FC
1FF00003FC0000FC
0FF80003FF0000FC
07FC0003FF8000FC
07FF0003FFC000FC
07FF8003FFF000FC
07FFC003FFF800FC
07DFE003F7FC00FC
07CFF803F1FE00FC
07C7FC03F0FF80FC
07C1FE03F07FC0FC
07C0FF83F03FE0FC
07C07FC3F00FF8FC
07C03FE3F007FCFC
07C00FF3F003FEFC
07C007FFF000FFFC
07C003FFF0007FFC
07C001FFF0003FFC
07C0007FF0001FFC
07C0003FF00007FC
07C0001FF00003FC
07C00007F00001FC
07C00003F00000FC
07C00003F00000FC
07C00003F00000FC
07C00003F00000FC
07C00003F00000FC
07C00003F00000FC
07C00003F00000FC
07C00003F00000FC
07C00003F00000FC
07C00003F00000FC
07C00003F00000FC
07C00003F00000FC
07C00003F00000FC
07C00003F00000FC
07C00003F00000FC
07C00003F00000FC
07C00003F00000FC
07C00003F00000FC
07C00003F00000FC
07C00003F00000FC
07C00003F00000FC
07C00003F00000FC
07C00003F00000FC
07C00003F00000FC
07C00003F00000FC
07C00003F00000FC
07C00003F00000FC
07C00003F00000FC
07C00003F00000FC
ENDCHAR
STARTCHAR 006E
ENCODING 110
SWIDTH 501 0
DWIDTH 39 0
BBX 34 56 1 0
BITMAP
1000000000
3800000000
7E00000FC0
7F00000FC0
FF80000FC0
7FC0000FC0
1FF0000FC0
1FF8000FC0
1FFC000FC0
1FFF000FC0
1FFF800FC0
1F7FC00FC0
1F3FE00FC0
1F0FF80FC0
1F07FC0FC0
1F03FE0FC0
1F00FF8FC0
1F007FCFC0
1F003FEFC0
1F001FFFC0
1F0007FFC0
1F0003FFC0
1F0001FFC0
1F0000FFC0
1F00003FC0
1F00001FC0
1F00000FC0
1F00000FC0
1F00000FC0
1F00000FC0
1F00000FC0
1F00000FC0
1F00000FC0
1F00000FC0
1F00000FC0
1F00000FC0
1F00000FC0
1F00000FC0
1F00000FC0
1F00000FC0
1F00000FC0
1F00000FC0
1F00000FC0
1F00000FC0
1F00000FC0
1F00000FC0
1F00000FC0
1F00000FC0
1F00000FC0
1F00000FC0
1F00000FC0
1F00000FC0
1F00000FC0
1F00000FC0
1F00000FC0
1F00000FC0
ENDCHAR
STARTCHAR 006F
ENCODING 111
SWIDTH 810 0
DWIDTH 63 0
BBX 59 57 2 -1
BITMAP
0000001F00000000
000007FFFC000000
00003FFFFF800000
0000FFFFFFE00000
0003FFFFFFF80000
0007FFFFFFFE0000
001FFF000FFF0000
003FF00001FF8000
007FC000007FC000
00FF8000001FE000
01FE0000000FF000
03FC00000007F800
07F800000003FC00
07F000000001FC00
0FE000000000FE00
0FC0000000007E00
1FC0000000007F00
1F80000000003F00
3F80000000003F80
3F00000000001F80
3F00000000001FC0
7E00000000000FC0
7E00000000000FC0
7E00000000000FC0
7E00000000000FC0
7E000000000007C0
7C000000000007E0
FC000000000007E0
FC000000000007E0
FC000000000007E0
7C000000000007E0
7C000000000007E0
7E000000000007C0
7E00000000000FC0
7E00000000000FC0
7E00000000000FC0
7F00000000000FC0
3F00000000001F80
3F00000000001F80
3F80000000003F80
1F80000000003F00
1FC0000000007F00
0FE000000000FE00
0FE000000000FE00
07F000000001FC00
03F800000003F800
01FC00000007F800
01FF0000001FF000
00FF8000003FE000
007FE00000FFC000
001FFC0007FF8000
000FFFE0FFFE0000
0007FFFFFFFC0000
0001FFFFFFF00000
00007FFFFFC00000
00001FFFFF000000
000001FFF0000000
ENDCHAR
STARTCHAR 0070
ENCODING 112
SWIDTH 540 0
DWIDTH 42 0
BBX 39 54 2 0
BITMAP
0FFFFFE000
0FFFFFFC00
0FFFFFFF00
0FFFFFFF80
0FFFFFFFE0
0FC0007FF0
0FC0000FF8
0FC00007F8
0FC00001FC
0FC00000FC
0FC00000FE
0FC000007E
0FC000007E
0FC000007E
0FC000007E
0FC000003E
0FC000003E
0FC000007E
0FC000007E
0FC000007E
0FC000007E
0FC00000FC
0FC00000FC
0FC00001FC
0FC00003F8
0FC0000FF0
0FC0003FF0
FFFFFFFFE0
FFFFFFFFC0
FFFFFFFF00
FFFFFFFC00
FFFFFFF000
FFFFFE0000
0FC0000000
0FC0000000
0FC0000000
0FC0000000
0FC0000000
0FC0000000
0FC0000000
0FC0000000
0FC0000000
0FC0000000
0FC0000000
0FC0000000
0FC0000000
0FC0000000
0FC0000000
0FC0000000
0FC0000000
0FC0000000
0FC0000000
0FC0000000
0FC0000000
ENDCHAR
STARTCHAR 0071
ENCODING 113
SWIDTH 810 0
DWIDTH 63 0
BBX 59 58 2 -2
BITMAP
0000001F00000000
000007FFFC000000
00003FFFFF800000
0000FFFFFFE00000
0003FFFFFFF80000
0007FFFFFFFE0000
001FFF000FFF0000
003FF00001FF8000
007FC000007FC000
00FF8000001FE000
01FE0000000FF000
03FC00000007F800
07F800000003FC00
07F000000001FC00
0FE000000000FE00
0FC0000000007E00
1FC0000000007F00
1F80000000003F00
3F80000000003F80
3F00000000001F80
3F00000000001FC0
7E00000000000FC0
7E00000000000FC0
7E00000000000FC0
7E00000000000FC0
7E000000000007C0
7C000000000007E0
FC000000000007E0
FC000000000007E0
FC000000000007E0
7C000000000007E0
7C000000000007E0
7E000000000007C0
7E00000000000FC0
7E00000000000FC0
7E00000000000FC0
7F00000000000FC0
3F00000000001F80
3F00000001001F80
3F80000003803F80
1F80000007C03F00
1FC000000FE07F00
0FE000000FF0FE00
0FE0000007F8FE00
07F0000003FDFC00
03F8000001FFF800
01FC000000FFF800
01FF0000007FF000
00FF8000003FE000
007FE00000FFE000
001FFC0007FFF000
000FFFE07FFFF800
0007FFFFFFFFFC00
0001FFFFFFF1FE00
00007FFFFFC0FC00
00001FFFFF007800
000001FFF0003000
0000000000001000
ENDCHAR
STARTCHAR 0072
ENCODING 114
SWIDTH 565 0
DWIDTH 44 0
BBX 40 54 2 0
BITMAP
07FFFFF000
07FFFFFE00
07FFFFFF80
07FFFFFFC0
07FFFFFFE0
07E0007FF0
07E0000FF8
07E00003FC
07E00001FC
07E00000FE
07E000007E
07E000007E
07E000003F
07E000003F
07E000003F
07E000003F
07E000003F
07E000003F
07E000003F
07E000007E
07E000007E
07E00000FE
07E00000FC
07E00001FC
07E00007F8
07E0001FF8
07E001FFF0
FFFFFFFFE0
FFFFFFFF80
FFFFFFFF00
FFFFFFFE00
FFFFFFFF00
07E001FF80
07E0007FC0
07E0001FC0
07E0000FE0
07E00007E0
07E00007F0
07E00003F0
07E00003F0
07E00001F8
07E00001F8
07E00001F8
07E00001F8
07E00001F8
07E00000F8
07E00000FC
07E00000FC
07E00000FC
07E00000FC
07E00000FC
07E00000FC
07E00000FC
07E00000FC
ENDCHAR
STARTCHAR 0073
ENCODING 115
SWIDTH 475 0
DWIDTH 37 0
BBX 33 57 2 -1
BITMAP
0003E00000
003FFE0000
00FFFF8000
01FFFFE000
03FFFFF000
07FFFFF800
07F807F800
0FE003FC00
0FC000FE00
1FC000FE00
1F80007E00
1F80003F00
1F80003F00
1F80003F00
1F80001C00
1F80000000
1F80000000
1FC0000000
0FE0000000
0FF0000000
07F8000000
03FC000000
01FF000000
00FF800000
007FE00000
003FF80000
000FFC0000
0007FF0000
0001FFC000
00007FE000
00003FF000
00000FF800
000007FC00
000001FE00
000000FE00
0000007F00
0000003F00
0000003F80
0000001F80
0000001F80
0000001F80
1C00000F80
FC00000F80
FC00000F80
7E00001F80
7E00001F80
7F00001F80
3F00003F80
3F80007F00
1FC000FF00
1FF001FE00
0FFE0FFC00
07FFFFFC00
03FFFFF800
00FFFFE000
003FFF8000
000FFE0000
ENDCHAR
STARTCHAR 0074
ENCODING 116
SWIDTH 488 0
DWIDTH 38 0
BBX 35 54 2 0
BITMAP
FFFFFFFFE0
FFFFFFFFE0
FFFFFFFFE0
FFFFFFFFE0
FFFFFFFFE0
0003F00000
0003F00000
0003F00000
0003F00000
0003F00000
0003F00000
0003F00000
0003F00000
0003F00000
0003F00000
0003F00000
0003F00000
0003F00000
0003F00000
0003F00000
0003F00000
0003F00000
0003F00000
0003F00000
0003F00000
0003F00000
0003F00000
0003F00000
0003F00000
0003F00000
0003F00000
0003F00000
0003F00000
0003F00000
0003F00000
0003F00000
0003F00000
0003F00000
0003F00000
0003F00000
0003F00000
0003F00000
0003F00000
0003F00000
0003F00000
0003F00000
0003F00000
0003F00000
0003F00000
0003F00000
0003F00000
0003F00000
0003F00000
0003F00000
ENDCHAR
STARTCHAR 0075
ENCODING 117
SWIDTH 488 0
DWIDTH 38 0
BBX 32 55 3 -1
BITMAP
FC00001F
FC00001F
FC00001F
FC00001F
FC00001F
FC00001F
FC00001F
FC00001F
FC00001F
FC00001F
FC00001F
FC00001F
FC00001F
FC00001F
FC00001F
FC00001F
FC00001F
FC00001F
FC00001F
FC00001F
FC00001F
FC00001F
FC00001F
FC00001F
FC00001F
FC00001F
FC00001F
FC00001F
FC00001F
FC00001F
FC00001F
FC00001F
FC00001F
FC00001F
FC00001F
FC00001F
FC00001F
FC00001F
FC00003F
FC00003F
7C00003F
7E00003F
7E00003F
7E00007E
7F00007E
3F0000FE
3F8000FC
1FC001FC
1FE007F8
0FFC3FF0
07FFFFF0
03FFFFE0
01FFFF80
007FFF00
001FF800
ENDCHAR
STARTCHAR 0076
ENCODING 118
SWIDTH 450 0
DWIDTH 35 0
BBX 31 54 1 0
BITMAP
FC00007E
FC00007E
FC00007E
FC00007E
FC00007E
FC00007E
FC00007E
FC00007E
FC00007E
FC00007E
FC00007E
FC00007E
FC00007E
FC00007E
FC00007E
FC00007E
FC00007E
FC00007E
FC00007E
FC00007E
FC00007E
FC00007E
FC00007E
FC00007E
FC00007E
FC00007C
FC00007C
FC00007C
FC0000FC
FC0000FC
FC0000FC
FC0000FC
FC0000FC
FC0000FC
7E0000FC
7E0001F8
7E0001F8
7E0001F8
7F0001F8
3F0003F0
3F0003F0
3F8003F0
1F8007E0
1FC007E0
0FC00FC0
0FE01FC0
07F01F80
03F03F80
03F87F00
01FCFE00
00FFFC00
007FF800
003FF000
001FE000
ENDCHAR
STARTCHAR 0077
ENCODING 119
SWIDTH 771 0
DWIDTH 60 0
BBX 56 54 1 0
BITMAP
FC00007E00003F
FC00007E00003F
FC00007E00003F
FC00007E00003F
FC00007E00003F
FC00007E00003F
FC00007E00003F
FC00007E00003F
FC00007E00003F
FC00007E00003F
FC00007E00003F
FC00007E00003F
FC00007E00003F
FC00007E00003F
FC00007E00003F
FC00007E00003F
FC00007E00003F
FC00007E00003F
FC00007E00003F
FC00007E00003F
FC00007E00003F
FC00007E00003F
FC00007E00003F
FC00007E00003F
FC00007E00003F
FC00007E00003F
FC00007E00003E
FC00007E00003E
FC0000FE00003E
FC0000FE00007E
FC0000FE00007E
FC0000FE00007E
FC0000FE00007E
FC0000FE00007E
7E0000FF00007E
7E0001FF00007C
7E0001FF0000FC
7E0001FF0000FC
7F0001FF8000FC
3F0003FF8001FC
3F0003FF8001F8
3F8003FFC001F8
1F8007EFC003F0
1FC007EFE003F0
0FC00FC7E007F0
0FE01FC7F00FE0
07F01F83F80FC0
03F03F81F81FC0
03F87F01FC3F80
01FCFE00FE7F00
00FFFC007FFE00
007FF8003FFC00
003FF0001FF800
001FE0000FF000
ENDCHAR
STARTCHAR 0078
ENCODING 120
SWIDTH 501 0
DWIDTH 39 0
BBX 32 54 4 0
BITMAP
F800003F
F800003F
F800003F
F800003F
F800003F
F800003F
F800003F
F800003F
FC00003F
FC00003F
FC00003F
FC00003E
FC00007E
FC00007E
7E00007E
7E0000FE
7F0000FC
3F0001FC
3F8003F8
1FE00FF8
0FFC7FF0
07FFFFE0
03FFFFC0
03FFFF80
07FFFFC0
0FFFFFE0
1FF01FF0
1FC007F8
3F8003F8
3F0001FC
7E0000FC
7E0000FE
FC00007E
FC00007E
FC00007E
FC00003F
FC00003F
FC00003F
F800003F
F800003F
F800003F
F800003F
F800003F
F800003F
F800003F
F800003F
F800003F
F800003F
F800003F
F800003F
F800003F
F800003F
F800003F
F800003F
ENDCHAR
STARTCHAR 0079
ENCODING 121
SWIDTH 475 0
DWIDTH 37 0
BBX 32 54 3 0
BITMAP
FC00003F
FC00003F
FC00003F
FC00003F
FC00003F
FC00003F
FC00003F
FC00003F
FC00003F
FC00003F
FC00003F
FC00003F
FC00003F
FC00003F
FC00003F
FC00003F
FC00003F
FC00003F
FC00003F
FC00003F
FC00003F
FC00003F
FC00003F
FC00003F
FC00003F
FC00003F
FC00003F
FC00003F
7C00007E
7E00007E
7E00007E
7F0000FC
3F8001FC
3FC003F8
1FE007F8
0FFC7FF0
07FFFFE0
03FFFFC0
01FFFF80
007FFE00
000FF000
0007E000
0007E000
0007E000
0007E000
0007E000
0007E000
0007E000
0007E000
0007E000
0007E000
0007E000
0007E000
0007E000
ENDCHAR
STARTCHAR 007A
ENCODING 122
SWIDTH 488 0
DWIDTH 38 0
BBX 35 54 2 0
BITMAP
FFFFFFFFE0
FFFFFFFFE0
FFFFFFFFE0
FFFFFFFFC0
FFFFFFFFC0
0000001F80
0000003F00
0000007F00
0000007E00
000000FE00
000001FC00
000001F800
000003F800
000003F000
000007F000
00000FE000
00000FC000
00001FC000
00001F8000
00003F8000
00007F0000
00007E0000
0000FE0000
0000FC0000
0001FC0000
0001F80000
0003F00000
0007F00000
0007E00000
000FE00000
000FC00000
001F800000
003F800000
003F000000
007F000000
00FE000000
00FC000000
01FC000000
01F8000000
03F8000000
07F0000000
07E0000000
0FE0000000
0FC0000000
1FC0000000
3F80000000
3F00000000
7F00000000
7E00000000
FFFFFFFF80
FFFFFFFF80
FFFFFFFF80
FFFFFFFF80
FFFFFFFF80
ENDCHAR
STARTCHAR 007B
ENCODING 123
SWIDTH 334 0
DWIDTH 26 0
BBX 18 74 4 -11
BITMAP
000FC0
003FC0
007FC0
00FFC0
01FFC0
01F000
01F000
03E000
03E000
03E000
03E000
03E000
03E000
03E000
03E000
03E000
03E000
03E000
03E000
03E000
03E000
03E000
03E000
03E000
03E000
03E000
03E000
03E000
03E000
03E000
07E000
07C000
0FC000
3F8000
FF8000
FF0000
FE0000
FE0000
FF0000
FF8000
1F8000
0FC000
07C000
03E000
03E000
03E000
03E000
03E000
03E000
03E000
03E000
03E000
03E000
03E000
03E000
03E000
03E000
03E000
03E000
03E000
03E000
03E000
03E000
03E000
03E000
03E000
03E000
01F000
01F000
01FFC0
00FFC0
007FC0
003FC0
0007C0
ENDCHAR
STARTCHAR 007C
ENCODING 124
SWIDTH 141 0
DWIDTH 11 0
BBX 4 63 4 -8
BITMAP
F0
F0
F0
F0
F0
F0
F0
F0
F0
F0
F0
F0
F0
F0
F0
F0
F0
F0
F0
F0
F0
F0
F0
F0
F0
F0
F0
F0
F0
F0
F0
F0
F0
F0
F0
F0
F0
F0
F0
F0
F0
F0
F0
F0
F0
F0
F0
F0
F0
F0
F0
F0
F0
F0
F0
F0
F0
F0
F0
F0
F0
F0
F0
ENDCHAR
STARTCHAR 007D
ENCODING 125
SWIDTH 334 0
DWIDTH 26 0
BBX 18 74 4 -11
BITMAP
FC0000
FF8000
FFC000
FFC000
FFE000
03E000
01F000
01F000
01F000
01F000
01F000
01F000
01F000
01F000
01F000
01F000
01F000
01F000
01F000
01F000
01F000
01F000
01F000
01F000
01F000
01F000
01F000
01F000
01F000
01F000
00F800
00F800
00FC00
007F00
003FC0
003FC0
000FC0
001FC0
003FC0
007FC0
007E00
00FC00
00F800
00F800
01F000
01F000
01F000
01F000
01F000
01F000
01F000
01F000
01F000
01F000
01F000
01F000
01F000
01F000
01F000
01F000
01F000
01F000
01F000
01F000
01F000
01F000
01F000
01F000
03E000
FFE000
FFC000
FFC000
FF0000
FC0000
ENDCHAR
STARTCHAR 007E
ENCODING 126
SWIDTH 527 0
DWIDTH 41 0
BBX 34 8 4 21
BITMAP
1FF0000000
FFFF000000
FFFFF801C0
FFFFFFFFC0
FFFFFFFFC0
F03FFFFFC0
0000FFFFC0
00000FFE00
ENDCHAR
STARTCHAR 00A1
ENCODING 161
SWIDTH 231 0
DWIDTH 18 0
BBX 11 56 4 -9
BITMAP
0E00
3F80
7FC0
FFC0
FFE0
FFE0
FFE0
FFC0
7FC0
3F80
1E00
0000
0000
0000
0000
0000
0000
0000
0000
0000
1F00
1F00
1F00
1F00
1F00
1F00
1F00
1F00
1F00
1F00
1F00
1F00
1F00
1F00
1F00
1F00
1F00
1F00
1F00
1F00
1F00
1F00
1F00
1F00
1F00
1F00
1F00
1F00
1F00
1F00
1F00
1F00
1F00
1F00
1F00
1F00
ENDCHAR
STARTCHAR 00A2
ENCODING 162
SWIDTH 514 0
DWIDTH 40 0
BBX 32 47 4 4
BITMAP
0001F000
0001F000
0001F000
0001F000
0001F000
0001FC00
001FFF80
007FFFE0
00FFFFF8
03FFFFFC
07FCF3FE
0FF0F07F
0FC0F03F
1F80F01C
3F00F008
3F00F000
7E00F000
7C00F000
7C00F000
FC00F000
F800F000
F800F000
F800F000
F800F000
F800F000
F800F000
F800F000
F800F000
7C00F000
7C00F000
7E00F000
3E00F000
3F00F000
1F80F00C
1FC0F01E
0FE0F07F
07F8F0FF
03FFFFFE
01FFFFFC
00FFFFF0
003FFFC0
0007FF00
0001F000
0001F000
0001F000
0001F000
0001F000
ENDCHAR
STARTCHAR 00A3
ENCODING 163
SWIDTH 514 0
DWIDTH 40 0
BBX 33 55 4 0
BITMAP
00007FFC00
0003FFFF80
000FFFFF80
001FFFFF80
007FFFFF80
00FFFC3F80
00FF800380
01FE000000
03FC000000
03F8000000
07F0000000
07F0000000
07E0000000
07E0000000
07E0000000
0FE0000000
0FE0000000
07E0000000
07E0000000
07E0000000
07E0000000
07E0000000
03F0000000
03F0000000
03F0000000
01F8000000
FFFFFFFC00
FFFFFFFC00
FFFFFFFC00
FFFFFFFC00
007E000000
007E000000
007F000000
003F000000
003F000000
003F800000
001F800000
001F800000
001F800000
001F800000
001F800000
001F800000
001F800000
001F800000
003F800000
007F000000
00FF000000
01FE000000
07FC000000
FFF8000000
FFFFFFFF80
FFFFFFFF80
FFFFFFFF80
FFFFFFFF80
FFFFFFFF80
ENDCHAR
STARTCHAR 00A4
ENCODING 164
SWIDTH 552 0
DWIDTH 43 0
BBX 35 35 4 7
BITMAP
1000000000
3800000180
7C000003C0
FE07FC07E0
7E3FFF8FC0
3F7FFFDF80
1FFFFFFF00
0FFE0FFE00
07F001FC00
07E0007E00
0FC0003E00
0F80001F00
1F00001F00
1F00000F00
1E00000F80
3E00000F80
3E00000F80
3E00000780
3E00000780
3E00000F80
3E00000F80
1E00000F80
1F00000F00
1F00001F00
0F80001F00
0FC0003E00
07E0007E00
07F001FC00
0FFE07FE00
1FFFFFFF00
3F7FFFFF80
7E3FFF8FC0
FC07FE07E0
78000003C0
3000000180
ENDCHAR
STARTCHAR 00A5
ENCODING 165
SWIDTH 617 0
DWIDTH 48 0
BBX 39 55 5 0
BITMAP
000000003E
FC000000FE
FE000000FC
7E000001FC
7F000001F8
3F000003F8
3F800003F0
1F800007F0
1FC00007E0
0FC0000FE0
0FE0000FC0
07E0001FC0
07F0001F80
03F8003F80
03F8003F00
01FC007F00
01FC007E00
00FE00FE00
00FE00FC00
007F01FC00
007F01F800
003F83F000
001F83F000
001FC7E000
000FC7E000
000FEFC000
0007EFC000
0007FF8000
0003FF8000
0FFFFFFFC0
0FFFFFFFC0
0FFFFFFFC0
0FFFFFFFC0
0000FC0000
0000FC0000
0000FC0000
0000FC0000
0000FC0000
0000FC0000
0FFFFFFFC0
0FFFFFFFC0
0FFFFFFFC0
0FFFFFFFC0
0000FC0000
0000FC0000
0000FC0000
0000FC0000
0000FC0000
0000FC0000
0000FC0000
0000FC0000
0000FC0000
0000FC0000
0000FC0000
0000FC0000
ENDCHAR
STARTCHAR 00A6
ENCODING 166
SWIDTH 141 0
DWIDTH 11 0
BBX 4 63 4 -8
BITMAP
F0
F0
F0
F0
F0
F0
F0
F0
F0
F0
F0
F0
F0
F0
F0
F0
F0
F0
F0
F0
F0
F0
F0
F0
00
00
00
00
00
00
00
00
00
00
00
00
00
00
00
00
F0
F0
F0
F0
F0
F0
F0
F0
F0
F0
F0
F0
F0
F0
F0
F0
F0
F0
F0
F0
F0
F0
F0
ENDCHAR
STARTCHAR 00A7
ENCODING 167
SWIDTH 462 0
DWIDTH 36 0
BBX 28 64 4 -9
BITMAP
003FE000
01FFF800
03FFFE00
07FFFF00
0FFFFF80
0FF07F80
1FC01FC0
1F800FC0
1F800FE0
1F0007E0
1F0007E0
1F0003C0
1F800200
1F800000
0FC00000
0FF00000
07F80000
03FE0000
01FF8000
00FFC000
003FF000
007FFC00
03FFFE00
0FFFFF00
1FFFFF80
3FE07FC0
3F001FE0
7E0007E0
7E0007F0
FC0003F0
FC0003F0
FC0001F0
FC0001F0
FC0003F0
7E0003F0
7E0007E0
3F800FE0
3FC01FC0
1FFFFF80
0FFFFF00
03FFFE00
01FFF800
00FF8000
003FE000
000FF800
0003FC00
0001FE00
00007F00
00003F00
00001F80
00001F80
1E000FC0
7E000FC0
7E000FC0
7F000FC0
3F001FC0
3F801F80
1FC07F80
1FFFFF00
0FFFFF00
07FFFE00
03FFFC00
00FFF000
000F0000
ENDCHAR
STARTCHAR 00A8
ENCODING 168
SWIDTH 347 0
DWIDTH 27 0
BBX 28 11 0 58
BITMAP
0F000F00
3F801FC0
7FC03FE0
7FE07FE0
FFE07FF0
FFE07FF0
FFE07FF0
7FE07FE0
7FC03FE0
3F801FC0
07000600
ENDCHAR
STARTCHAR 00A9
ENCODING 169
SWIDTH 835 0
DWIDTH 65 0
BBX 58 57 4 -1
BITMAP
0000003F00000000
00000FFFFC000000
00007FFFFF000000
0001FFFFFFE00000
0007FF003FF00000
000FF00003FC0000
001F800000FE0000
007F0000003F0000
00FC0000000F8000
01F800000007C000
03F000000003E000
03E000000001F000
07C000000000F800
0F80000000007800
0F0000FFC0007C00
1F0003FFF0003E00
1E000FFFFC001E00
3C001FFFFE001E00
3C003F807F000F00
7C007E001F000F00
7800FC000E000F80
7800F80000000780
7801F00000000780
F001F00000000780
F001E00000000780
F003E00000000780
F003E000000003C0
F003E000000003C0
F003C000000003C0
F003E000000003C0
F003E000000003C0
F003E000000007C0
F003E00000000780
F001E00000000780
7801F00000000780
7801F00000000780
7800F8000C000F80
78007C001E000F00
3C007F003F000F00
3C003FC1FF001F00
3E001FFFFE001E00
1E0007FFF8003E00
1F0003FFF0003C00
0F80007F80007C00
078000000000F800
07C000000000F800
03E000000001F000
01F000000007E000
00F80000000FC000
007E0000001F8000
003F0000007F0000
001FC00001FE0000
000FF8000FF80000
0003FFF1FFF00000
0000FFFFFFC00000
00001FFFFE000000
000003FFF0000000
ENDCHAR
STARTCHAR 00AB
ENCODING 171
SWIDTH 514 0
DWIDTH 40 0
BBX 31 34 5 7
BITMAP
000FC07E
001F80FC
003F00FC
003F01F8
007E03F0
00FC07E0
01F807E0
01F80FC0
03F01F80
07E03F00
0FC03F00
0FC07E00
1F80FC00
3F01F800
7E01F800
7E03F000
FC07E000
FC07E000
FC03F000
7E03F000
3F01F800
1F80FC00
1F807E00
0FC07E00
07E03F00
03F01F80
03F00FC0
01F80FC0
00FC07E0
007E03F0
003E01F8
003F01F8
001F80FC
000FC07E
ENDCHAR
STARTCHAR 00AC
ENCODING 172
SWIDTH 540 0
DWIDTH 42 0
BBX 35 19 4 9
BITMAP
FFFFFFFFE0
FFFFFFFFE0
FFFFFFFFE0
FFFFFFFFE0
FFFFFFFFE0
00000003E0
00000003E0
00000003E0
00000003E0
00000003E0
00000003E0
00000003E0
00000003E0
00000003E0
00000003E0
00000003E0
00000003E0
00000003E0
00000003E0
ENDCHAR
STARTCHAR 00AE
ENCODING 174
SWIDTH 488 0
DWIDTH 38 0
BBX 30 30 4 26
BITMAP
001FE000
00FFFC00
01FFFF00
07E00F80
0F8003C0
1E0001E0
1C0000F0
383FE070
783FF838
70387838
70383C1C
E0381C1C
E038381C
E038781C
E0FFF01C
E0FFE01C
E0FFF01C
E038701C
E038381C
7038381C
70383838
78383838
38000070
1C0000F0
1E0001E0
0F8003C0
07E01F80
01FFFF00
007FFC00
000FE000
ENDCHAR
STARTCHAR 00AF
ENCODING 175
SWIDTH 270 0
DWIDTH 21 0
BBX 22 5 0 62
BITMAP
FFFFFC
FFFFFC
FFFFFC
FFFFFC
FFFFFC
ENDCHAR
STARTCHAR 00B0
ENCODING 176
SWIDTH 321 0
DWIDTH 25 0
BBX 17 17 4 38
BITMAP
07F000
1FFC00
3FFE00
3E3F00
780F00
700780
F00380
F00380
F00380
F00380
F00780
780780
780F00
3F7F00
1FFE00
0FFC00
03F000
ENDCHAR
STARTCHAR 00B1
ENCODING 177
SWIDTH 540 0
DWIDTH 42 0
BBX 35 31 4 9
BITMAP
0001F00000
0001F00000
0001F00000
0001F00000
0001F00000
0001F00000
0001F00000
0001F00000
0001F00000
FFFFFFFFE0
FFFFFFFFE0
FFFFFFFFE0
FFFFFFFFE0
FFFFFFFFE0
0001F00000
0001F00000
0001F00000
0001F00000
0001F00000
0001F00000
0001F00000
0001F00000
0001F00000
0000000000
0000000000
0000000000
0000000000
FFFFFFFFE0
FFFFFFFFE0
FFFFFFFFE0
FFFFFFFFE0
ENDCHAR
STARTCHAR 00B4
ENCODING 180
SWIDTH 141 0
DWIDTH 11 0
BBX 11 10 0 59
BITMAP
03E0
07E0
07C0
0F80
1F00
1F00
3E00
3C00
7800
F000
ENDCHAR
STARTCHAR 00B6
ENCODING 182
SWIDTH 450 0
DWIDTH 35 0
BBX 28 63 4 -8
BITMAP
000FE0F0
007FE0F0
01FFE0F0
03FFE0F0
0FFFE0F0
1FFFE0F0
1FFFE0F0
3FFFE0F0
3FFFE0F0
7FFFE0F0
7FFFE0F0
FFFFE0F0
FFFFE0F0
FFFFE0F0
FFFFE0F0
FFFFE0F0
FFFFE0F0
FFFFE0F0
FFFFE0F0
7FFFE0F0
7FFFE0F0
7FFFE0F0
3FFFE0F0
1FFFE0F0
1FFFE0F0
0FFFE0F0
07FFE0F0
01FFE0F0
007FE0F0
001FE0F0
0001E0F0
0001E0F0
0001E0F0
0001E0F0
0001E0F0
0001E0F0
0001E0F0
0001E0F0
0001E0F0
0001E0F0
0001E0F0
0001E0F0
0001E0F0
0001E0F0
0001E0F0
0001E0F0
0001E0F0
0001E0F0
0001E0F0
0001E0F0
0001E0F0
0001E0F0
0001E0F0
0001E0F0
0001E0F0
0001E0F0
0001E0F0
0001E0F0
0001E0F0
0001E0F0
0001E0F0
0001E0F0
0001E0F0
ENDCHAR
STARTCHAR 00B7
ENCODING 183
SWIDTH 231 0
DWIDTH 18 0
BBX 11 10 4 15
BITMAP
1F00
7FC0
7FC0
FFE0
FFE0
FFE0
FFE0
7FC0
7FC0
3F00
ENDCHAR
STARTCHAR 00B8
ENCODING 184
SWIDTH 205 0
DWIDTH 16 0
BBX 16 16 0 -16
BITMAP
00F0
01E0
01E0
01F8
01FC
003E
000F
0007
0007
2007
7007
F00F
7C1F
3FFE
1FFC
07F8
ENDCHAR
STARTCHAR 00BB
ENCODING 187
SWIDTH 514 0
DWIDTH 40 0
BBX 32 34 4 7
BITMAP
FC03F000
7E03F000
3F01F800
1F80FC00
1F807E00
0FC07E00
07E03F00
03F01F80
03F00FC0
01F80FC0
00FC07E0
007E03F0
007E01F8
003F01F8
001F80FC
000FC07E
000FC03F
0007E03F
000FC07E
001F807C
001F00FC
003F01F8
007E03F0
00FC07E0
01F807E0
01F80FC0
03F01F80
07E03F00
0FC03F00
0FC07E00
1F80FC00
3F01F800
7E01F000
7C03F000
ENDCHAR
STARTCHAR 00BF
ENCODING 191
SWIDTH 411 0
DWIDTH 32 0
BBX 24 56 4 -9
BITMAP
003F80
007FC0
007FC0
00FFE0
00FFE0
00FFE0
00FFE0
007FC0
003FC0
001F00
000000
000000
000000
000000
000000
000000
000000
000000
001F00
001F00
001F00
001F00
001F00
001F00
003F00
003E00
003E00
007E00
007C00
00FC00
01F800
01F800
03F000
07E000
0FE000
0FC000
1F8000
3F0000
3F0000
7E0000
7C0000
FC0000
FC0000
FC0010
FC001E
FC001F
FC003F
FC003F
7E007E
7F00FE
3FFFFC
3FFFF8
1FFFF0
0FFFE0
03FF80
003C00
ENDCHAR
STARTCHAR 00C0
ENCODING 192
SWIDTH 540 0
DWIDTH 42 0
BBX 38 69 4 0
BITMAP
00FC000000
007C000000
003E000000
001F000000
001F000000
000F800000
0007800000
0003C00000
0003E00000
0001E00000
0000000000
0000000000
0000000000
0001800000
003FFC0000
00FFFF0000
03FFFF8000
07FFFFE000
0FFFFFF000
1FF00FF000
1FC003F800
3F8001FC00
3F0000FC00
7F0000FE00
7E00007E00
7E00007E00
FC00007E00
FC00003F00
FC00003F00
FC00003F00
FC00003F00
FC00003F00
FC00003F00
FC00003F00
FC00003F00
FC00003F00
FC00003F00
FC00003F00
FC00003F00
FC00003F00
FC00003F00
FC00003F00
FC00003F00
FC00003F00
FC00003F00
FC00003F00
FC00003F00
FC00003F00
FC00003F00
FC00003F00
FC00003F00
FC00003F00
FC00003F00
FC00003F00
FC00003F00
FC00003F00
FC00003F00
FC00003F00
FC00003F00
FC00003F00
FC00003F00
FC00003F00
FC00003F00
FC00003F00
FFFFFFFFFC
FFFFFFFFFC
FFFFFFFFFC
FFFFFFFFFC
FFFFFFFFFC
ENDCHAR
STARTCHAR 00C1
ENCODING 193
SWIDTH 540 0
DWIDTH 42 0
BBX 38 69 4 0
BITMAP
00003F0000
00007E0000
00007C0000
0000F80000
0000F00000
0001F00000
0003E00000
0003C00000
0007800000
000F800000
0000000000
0000000000
0000000000
0001800000
003FFC0000
00FFFF0000
03FFFF8000
07FFFFE000
0FFFFFF000
1FF00FF000
1FC003F800
3F8001FC00
3F0000FC00
7F0000FE00
7E00007E00
7E00007E00
FC00007E00
FC00003F00
FC00003F00
FC00003F00
FC00003F00
FC00003F00
FC00003F00
FC00003F00
FC00003F00
FC00003F00
FC00003F00
FC00003F00
FC00003F00
FC00003F00
FC00003F00
FC00003F00
FC00003F00
FC00003F00
FC00003F00
FC00003F00
FC00003F00
FC00003F00
FC00003F00
FC00003F00
FC00003F00
FC00003F00
FC00003F00
FC00003F00
FC00003F00
FC00003F00
FC00003F00
FC00003F00
FC00003F00
FC00003F00
FC00003F00
FC00003F00
FC00003F00
FC00003F00
FFFFFFFFFC
FFFFFFFFFC
FFFFFFFFFC
FFFFFFFFFC
FFFFFFFFFC
ENDCHAR
STARTCHAR 00C2
ENCODING 194
SWIDTH 540 0
DWIDTH 42 0
BBX 38 69 4 0
BITMAP
000FF00000
001FF80000
003FF80000
003E7C0000
007C3E0000
00F83F0000
01F81F8000
01F00F8000
03E007C000
07C003E000
0000000000
0000000000
0000000000
0001800000
003FFC0000
00FFFF0000
03FFFF8000
07FFFFE000
0FFFFFF000
1FF00FF000
1FC003F800
3F8001FC00
3F0000FC00
7F0000FE00
7E00007E00
7E00007E00
FC00007E00
FC00003F00
FC00003F00
FC00003F00
FC00003F00
FC00003F00
FC00003F00
FC00003F00
FC00003F00
FC00003F00
FC00003F00
FC00003F00
FC00003F00
FC00003F00
FC00003F00
FC00003F00
FC00003F00
FC00003F00
FC00003F00
FC00003F00
FC00003F00
FC00003F00
FC00003F00
FC00003F00
FC00003F00
FC00003F00
FC00003F00
FC00003F00
FC00003F00
FC00003F00
FC00003F00
FC00003F00
FC00003F00
FC00003F00
FC00003F00
FC00003F00
FC00003F00
FC00003F00
FFFFFFFFFC
FFFFFFFFFC
FFFFFFFFFC
FFFFFFFFFC
FFFFFFFFFC
ENDCHAR
STARTCHAR 00C3
ENCODING 195
SWIDTH 540 0
DWIDTH 42 0
BBX 38 68 4 0
BITMAP
03FE000000
03FFFF0000
03FFFF0000
03FFFF0000
0001FF0000
0000000000
0000000000
0000000000
0000000000
0000000000
0000000000
0000000000
0001800000
003FFC0000
00FFFF0000
03FFFF8000
07FFFFE000
0FFFFFF000
1FF00FF000
1FC003F800
3F8001FC00
3F0000FC00
7F0000FE00
7E00007E00
7E00007E00
FC00007E00
FC00003F00
FC00003F00
FC00003F00
FC00003F00
FC00003F00
FC00003F00
FC00003F00
FC00003F00
FC00003F00
FC00003F00
FC00003F00
FC00003F00
FC00003F00
FC00003F00
FC00003F00
FC00003F00
FC00003F00
FC00003F00
FC00003F00
FC00003F00
FC00003F00
FC00003F00
FC00003F00
FC00003F00
FC00003F00
FC00003F00
FC00003F00
FC00003F00
FC00003F00
FC00003F00
FC00003F00
FC00003F00
FC00003F00
FC00003F00
FC00003F00
FC00003F00
FC00003F00
FFFFFFFFFC
FFFFFFFFFC
FFFFFFFFFC
FFFFFFFFFC
FFFFFFFFFC
ENDCHAR
STARTCHAR 00C4
ENCODING 196
SWIDTH 540 0
DWIDTH 42 0
BBX 38 69 4 0
BITMAP
03C001C000
0FF007F000
0FF80FF800
1FF80FFC00
1FF81FFC00
1FF81FFC00
1FF81FFC00
1FF80FFC00
0FF80FF800
07F007F000
018001C000
0000000000
0000000000
0001800000
003FFC0000
00FFFF0000
03FFFF8000
07FFFFE000
0FFFFFF000
1FF00FF000
1FC003F800
3F8001FC00
3F0000FC00
7F0000FE00
7E00007E00
7E00007E00
FC00007E00
FC00003F00
FC00003F00
FC00003F00
FC00003F00
FC00003F00
FC00003F00
FC00003F00
FC00003F00
FC00003F00
FC00003F00
FC00003F00
FC00003F00
FC00003F00
FC00003F00
FC00003F00
FC00003F00
FC00003F00
FC00003F00
FC00003F00
FC00003F00
FC00003F00
FC00003F00
FC00003F00
FC00003F00
FC00003F00
FC00003F00
FC00003F00
FC00003F00
FC00003F00
FC00003F00
FC00003F00
FC00003F00
FC00003F00
FC00003F00
FC00003F00
FC00003F00
FC00003F00
FFFFFFFFFC
FFFFFFFFFC
FFFFFFFFFC
FFFFFFFFFC
FFFFFFFFFC
ENDCHAR
STARTCHAR 00C5
ENCODING 197
SWIDTH 540 0
DWIDTH 42 0
BBX 38 75 4 0
BITMAP
0001000000
000FF00000
001FF80000
003FFC0000
007C3E0000
00701E0000
00F00E0000
00F00F0000
00F00F0000
00F00E0000
00F01E0000
00781E0000
007FFC0000
003FFC0000
001FF00000
0003C00000
0000000000
0000000000
0000000000
0001800000
003FFC0000
00FFFF0000
03FFFF8000
07FFFFE000
0FFFFFF000
1FF00FF000
1FC003F800
3F8001FC00
3F0000FC00
7F0000FE00
7E00007E00
7E00007E00
FC00007E00
FC00003F00
FC00003F00
FC00003F00
FC00003F00
FC00003F00
FC00003F00
FC00003F00
FC00003F00
FC00003F00
FC00003F00
FC00003F00
FC00003F00
FC00003F00
FC00003F00
FC00003F00
FC00003F00
FC00003F00
FC00003F00
FC00003F00
FC00003F00
FC00003F00
FC00003F00
FC00003F00
FC00003F00
FC00003F00
FC00003F00
FC00003F00
FC00003F00
FC00003F00
FC00003F00
FC00003F00
FC00003F00
FC00003F00
FC00003F00
FC00003F00
FC00003F00
FC00003F00
FFFFFFFFFC
FFFFFFFFFC
FFFFFFFFFC
FFFFFFFFFC
FFFFFFFFFC
ENDCHAR
STARTCHAR 00C7
ENCODING 199
SWIDTH 681 0
DWIDTH 53 0
BBX 50 72 2 -16
BITMAP
0000001F000000
000007FFF80000
00003FFFFF0000
0000FFFFFFC000
0003FFFFFFF000
000FFFFFFFF800
001FFE001FFE00
003FF00003FF00
007FC00001FF80
00FF0000007F80
01FE0000003FC0
03FC0000000F80
07F80000000F00
07F00000000600
0FE00000000000
0FC00000000000
1FC00000000000
1F800000000000
3F800000000000
3F000000000000
3F000000000000
7E000000000000
7E000000000000
7E000000000000
7E000000000000
7E000000000000
7C000000000000
FC000000000000
FC000000000000
FC000000000000
FC000000000000
7C000000000000
7E000000000000
7E000000000000
7E000000000000
7E000000000000
7F000000000000
3F000000000000
3F000000000000
3F800000000000
1F800000000000
1FC00000000000
0FE00000000000
0FE00000000000
07F00000000600
03F80000000F00
03FC0000001F80
01FF0000003FC0
00FF800000FF80
007FE00001FF00
003FF8000FFE00
000FFFE0FFFC00
0007FFFFFFF800
0001FFFFFFE000
00007FFFFF8000
00001FFFFE0000
000001FFE00000
00000078000000
00000070000000
0000007E000000
0000007F000000
0000000F800000
00000003800000
00000003C00000
00000001C00000
00000801C00000
00001801C00000
00003C03C00000
00003F07800000
00001FFF800000
000007FF000000
000003FC000000
ENDCHAR
STARTCHAR 00C8
ENCODING 200
SWIDTH 475 0
DWIDTH 37 0
BBX 36 69 2 0
BITMAP
00FC000000
007C000000
003E000000
001F000000
001F000000
000F800000
0007800000
0003C00000
0003E00000
0001E00000
0000000000
0000000000
0000000000
0000000000
0000000000
07FFFFE000
07FFFFE000
07FFFFE000
07FFFFE000
07FFFFE000
07E0000000
07E0000000
07E0000000
07E0000000
07E0000000
07E0000000
07E0000000
07E0000000
07E0000000
07E0000000
07E0000000
07E0000000
07E0000000
07E0000000
07E0000000
07E0000000
07E0000000
07E0000000
07E0000000
FFFFFFFC00
FFFFFFFC00
FFFFFFFC00
FFFFFFFC00
FFFFFFFC00
07E0000000
07E0000000
07E0000000
07E0000000
07E0000000
07E0000000
07E0000000
07E0000000
07E0000000
07E0000000
07E0000000
07E0000000
07E0000000
07E0000000
07E0000000
07E0000000
07E0000000
07E0000000
07E0000000
07E0000000
07FFFFFFF0
07FFFFFFF0
07FFFFFFF0
07FFFFFFF0
07FFFFFFF0
ENDCHAR
STARTCHAR 00C9
ENCODING 201
SWIDTH 475 0
DWIDTH 37 0
BBX 36 69 2 0
BITMAP
00003F0000
00003E0000
00007C0000
0000F80000
0000F80000
0001F00000
0003E00000
0003C00000
0007800000
0007800000
0000000000
0000000000
0000000000
0000000000
0000000000
07FFFFE000
07FFFFE000
07FFFFE000
07FFFFE000
07FFFFE000
07E0000000
07E0000000
07E0000000
07E0000000
07E0000000
07E0000000
07E0000000
07E0000000
07E0000000
07E0000000
07E0000000
07E0000000
07E0000000
07E0000000
07E0000000
07E0000000
07E0000000
07E0000000
07E0000000
FFFFFFFC00
FFFFFFFC00
FFFFFFFC00
FFFFFFFC00
FFFFFFFC00
07E0000000
07E0000000
07E0000000
07E0000000
07E0000000
07E0000000
07E0000000
07E0000000
07E0000000
07E0000000
07E0000000
07E0000000
07E0000000
07E0000000
07E0000000
07E0000000
07E0000000
07E0000000
07E0000000
07E0000000
07FFFFFFF0
07FFFFFFF0
07FFFFFFF0
07FFFFFFF0
07FFFFFFF0
ENDCHAR
STARTCHAR 00CA
ENCODING 202
SWIDTH 475 0
DWIDTH 37 0
BBX 36 69 2 0
BITMAP
000FF00000
001FF80000
001FF80000
003E7C0000
007C3E0000
00FC3F0000
01F81F8000
01F00F8000
03E007C000
07C003E000
0000000000
0000000000
0000000000
0000000000
0000000000
07FFFFE000
07FFFFE000
07FFFFE000
07FFFFE000
07FFFFE000
07E0000000
07E0000000
07E0000000
07E0000000
07E0000000
07E0000000
07E0000000
07E0000000
07E0000000
07E0000000
07E0000000
07E0000000
07E0000000
07E0000000
07E0000000
07E0000000
07E0000000
07E0000000
07E0000000
FFFFFFFC00
FFFFFFFC00
FFFFFFFC00
FFFFFFFC00
FFFFFFFC00
07E0000000
07E0000000
07E0000000
07E0000000
07E0000000
07E0000000
07E0000000
07E0000000
07E0000000
07E0000000
07E0000000
07E0000000
07E0000000
07E0000000
07E0000000
07E0000000
07E0000000
07E0000000
07E0000000
07E0000000
07FFFFFFF0
07FFFFFFF0
07FFFFFFF0
07FFFFFFF0
07FFFFFFF0
ENDCHAR
STARTCHAR 00CB
ENCODING 203
SWIDTH 475 0
DWIDTH 37 0
BBX 36 69 2 0
BITMAP
03C001C000
07F007F000
0FF80FF800
1FF80FFC00
1FF81FFC00
1FFC1FFC00
1FF81FFC00
1FF80FFC00
0FF80FF800
07F007F000
038001C000
0000000000
0000000000
0000000000
0000000000
07FFFFE000
07FFFFE000
07FFFFE000
07FFFFE000
07FFFFE000
07E0000000
07E0000000
07E0000000
07E0000000
07E0000000
07E0000000
07E0000000
07E0000000
07E0000000
07E0000000
07E0000000
07E0000000
07E0000000
07E0000000
07E0000000
07E0000000
07E0000000
07E0000000
07E0000000
FFFFFFFC00
FFFFFFFC00
FFFFFFFC00
FFFFFFFC00
FFFFFFFC00
07E0000000
07E0000000
07E0000000
07E0000000
07E0000000
07E0000000
07E0000000
07E0000000
07E0000000
07E0000000
07E0000000
07E0000000
07E0000000
07E0000000
07E0000000
07E0000000
07E0000000
07E0000000
07E0000000
07E0000000
07FFFFFFF0
07FFFFFFF0
07FFFFFFF0
07FFFFFFF0
07FFFFFFF0
ENDCHAR
STARTCHAR 00CC
ENCODING 204
SWIDTH 167 0
DWIDTH 13 0
BBX 11 48 -1 0
BITMAP
FC00
7C00
3E00
1F00
1F00
0F80
0780
03C0
03E0
01E0
0000
0000
0000
0000
0000
07E0
07E0
07E0
07E0
07E0
07E0
07E0
07E0
07E0
07E0
07E0
07E0
07E0
07E0
07E0
07E0
07E0
07E0
07E0
07E0
07E0
07E0
07E0
07E0
07E0
07E0
07E0
07E0
07E0
07E0
07E0
07E0
07E0
ENDCHAR
STARTCHAR 00CD
ENCODING 205
SWIDTH 167 0
DWIDTH 13 0
BBX 11 48 3 0
BITMAP
03E0
07E0
07C0
0F80
0F00
1F00
3E00
3C00
7800
F800
0000
0000
0000
0000
0000
7E00
7E00
7E00
7E00
7E00
7E00
7E00
7E00
7E00
7E00
7E00
7E00
7E00
7E00
7E00
7E00
7E00
7E00
7E00
7E00
7E00
7E00
7E00
7E00
7E00
7E00
7E00
7E00
7E00
7E00
7E00
7E00
7E00
ENDCHAR
STARTCHAR 00CE
ENCODING 206
SWIDTH 167 0
DWIDTH 13 0
BBX 22 48 -4 0
BITMAP
01FE00
03FF00
07FF00
07CF80
0F87C0
1F07E0
3F03F0
3E01F0
7C00F8
F8007C
000000
000000
000000
000000
000000
00FC00
00FC00
00FC00
00FC00
00FC00
00FC00
00FC00
00FC00
00FC00
00FC00
00FC00
00FC00
00FC00
00FC00
00FC00
00FC00
00FC00
00FC00
00FC00
00FC00
00FC00
00FC00
00FC00
00FC00
00FC00
00FC00
00FC00
00FC00
00FC00
00FC00
00FC00
00FC00
00FC00
ENDCHAR
STARTCHAR 00CF
ENCODING 207
SWIDTH 167 0
DWIDTH 13 0
BBX 27 48 -6 0
BITMAP
1E000E00
7F803F80
7FC07FC0
FFC07FE0
FFC0FFE0
FFE0FFE0
FFC0FFE0
FFC07FE0
7FC07FC0
3F803F80
0C000E00
00000000
00000000
00000000
00000000
003F0000
003F0000
003F0000
003F0000
003F0000
003F0000
003F0000
003F0000
003F0000
003F0000
003F0000
003F0000
003F0000
003F0000
003F0000
003F0000
003F0000
003F0000
003F0000
003F0000
003F0000
003F0000
003F0000
003F0000
003F0000
003F0000
003F0000
003F0000
003F0000
003F0000
003F0000
003F0000
003F0000
ENDCHAR
STARTCHAR 00D1
ENCODING 209
SWIDTH 501 0
DWIDTH 39 0
BBX 34 68 1 0
BITMAP
007F800000
00FFFFE000
00FFFFE000
00FFFFE000
00007FC000
0000000000
0000000000
0000000000
0000000000
0000000000
0000000000
0000000000
1000000000
3800000000
7E00000FC0
7F00000FC0
FF80000FC0
7FC0000FC0
1FF0000FC0
1FF8000FC0
1FFC000FC0
1FFF000FC0
1FFF800FC0
1F7FC00FC0
1F3FE00FC0
1F0FF80FC0
1F07FC0FC0
1F03FE0FC0
1F00FF8FC0
1F007FCFC0
1F003FEFC0
1F001FFFC0
1F0007FFC0
1F0003FFC0
1F0001FFC0
1F0000FFC0
1F00003FC0
1F00001FC0
1F00000FC0
1F00000FC0
1F00000FC0
1F00000FC0
1F00000FC0
1F00000FC0
1F00000FC0
1F00000FC0
1F00000FC0
1F00000FC0
1F00000FC0
1F00000FC0
1F00000FC0
1F00000FC0
1F00000FC0
1F00000FC0
1F00000FC0
1F00000FC0
1F00000FC0
1F00000FC0
1F00000FC0
1F00000FC0
1F00000FC0
1F00000FC0
1F00000FC0
1F00000FC0
1F00000FC0
1F00000FC0
1F00000FC0
1F00000FC0
ENDCHAR
STARTCHAR 00D2
ENCODING 210
SWIDTH 810 0
DWIDTH 63 0
BBX 59 70 2 -1
BITMAP
000003E000000000
000001F000000000
000001F000000000
000000F800000000
0000007C00000000
0000003C00000000
0000003E00000000
0000001F00000000
0000000F00000000
0000000780000000
0000000000000000
0000000000000000
0000000000000000
0000001F00000000
000007FFFC000000
00003FFFFF800000
0000FFFFFFE00000
0003FFFFFFF80000
0007FFFFFFFE0000
001FFF000FFF0000
003FF00001FF8000
007FC000007FC000
00FF8000001FE000
01FE0000000FF000
03FC00000007F800
07F800000003FC00
07F000000001FC00
0FE000000000FE00
0FC0000000007E00
1FC0000000007F00
1F80000000003F00
3F80000000003F80
3F00000000001F80
3F00000000001FC0
7E00000000000FC0
7E00000000000FC0
7E00000000000FC0
7E00000000000FC0
7E000000000007C0
7C000000000007E0
FC000000000007E0
FC000000000007E0
FC000000000007E0
7C000000000007E0
7C000000000007E0
7E000000000007C0
7E00000000000FC0
7E00000000000FC0
7E00000000000FC0
7F00000000000FC0
3F00000000001F80
3F00000000001F80
3F80000000003F80
1F80000000003F00
1FC0000000007F00
0FE000000000FE00
0FE000000000FE00
07F000000001FC00
03F800000003F800
01FC00000007F800
01FF0000001FF000
00FF8000003FE000
007FE00000FFC000
001FFC0007FF8000
000FFFE0FFFE0000
0007FFFFFFFC0000
0001FFFFFFF00000
00007FFFFFC00000
00001FFFFF000000
000001FFF0000000
ENDCHAR
STARTCHAR 00D3
ENCODING 211
SWIDTH 810 0
DWIDTH 63 0
BBX 59 70 2 -1
BITMAP
00000000F8000000
00000001F0000000
00000003F0000000
00000003E0000000
00000007C0000000
0000000780000000
0000000F80000000
0000001F00000000
0000001E00000000
0000003C00000000
0000000000000000
0000000000000000
0000000000000000
0000001F00000000
000007FFFC000000
00003FFFFF800000
0000FFFFFFE00000
0003FFFFFFF80000
0007FFFFFFFE0000
001FFF000FFF0000
003FF00001FF8000
007FC000007FC000
00FF8000001FE000
01FE0000000FF000
03FC00000007F800
07F800000003FC00
07F000000001FC00
0FE000000000FE00
0FC0000000007E00
1FC0000000007F00
1F80000000003F00
3F80000000003F80
3F00000000001F80
3F00000000001FC0
7E00000000000FC0
7E00000000000FC0
7E00000000000FC0
7E00000000000FC0
7E000000000007C0
7C000000000007E0
FC000000000007E0
FC000000000007E0
FC000000000007E0
7C000000000007E0
7C000000000007E0
7E000000000007C0
7E00000000000FC0
7E00000000000FC0
7E00000000000FC0
7F00000000000FC0
3F00000000001F80
3F00000000001F80
3F80000000003F80
1F80000000003F00
1FC0000000007F00
0FE000000000FE00
0FE000000000FE00
07F000000001FC00
03F800000003F800
01FC00000007F800
01FF0000001FF000
00FF8000003FE000
007FE00000FFC000
001FFC0007FF8000
000FFFE0FFFE0000
0007FFFFFFFC0000
0001FFFFFFF00000
00007FFFFFC00000
00001FFFFF000000
000001FFF0000000
ENDCHAR
STARTCHAR 00D4
ENCODING 212
SWIDTH 810 0
DWIDTH 63 0
BBX 59 70 2 -1
BITMAP
0000003F80000000
0000007FC0000000
000000FFE0000000
000001FBF0000000
000003F1F8000000
000003E0F8000000
000007C07C000000
00000F803E000000
00001F001F000000
00003F000F800000
0000000000000000
0000000000000000
0000000000000000
0000001F00000000
000007FFFC000000
00003FFFFF800000
0000FFFFFFE00000
0003FFFFFFF80000
0007FFFFFFFE0000
001FFF000FFF0000
003FF00001FF8000
007FC000007FC000
00FF8000001FE000
01FE0000000FF000
03FC00000007F800
07F800000003FC00
07F000000001FC00
0FE000000000FE00
0FC0000000007E00
1FC0000000007F00
1F80000000003F00
3F80000000003F80
3F00000000001F80
3F00000000001FC0
7E00000000000FC0
7E00000000000FC0
7E00000000000FC0
7E00000000000FC0
7E000000000007C0
7C000000000007E0
FC000000000007E0
FC000000000007E0
FC000000000007E0
7C000000000007E0
7C000000000007E0
7E000000000007C0
7E00000000000FC0
7E00000000000FC0
7E00000000000FC0
7F00000000000FC0
3F00000000001F80
3F00000000001F80
3F80000000003F80
1F80000000003F00
1FC0000000007F00
0FE000000000FE00
0FE000000000FE00
07F000000001FC00
03F800000003F800
01FC00000007F800
01FF0000001FF000
00FF8000003FE000
007FE00000FFC000
001FFC0007FF8000
000FFFE0FFFE0000
0007FFFFFFFC0000
0001FFFFFFF00000
00007FFFFFC00000
00001FFFFF000000
000001FFF0000000
ENDCHAR
STARTCHAR 00D5
ENCODING 213
SWIDTH 810 0
DWIDTH 63 0
BBX 59 69 2 -1
BITMAP
00000FF000000000
00001FFFFC000000
00001FFFFC000000
00001FFFFC000000
0000000FF8000000
0000000000000000
0000000000000000
0000000000000000
0000000000000000
0000000000000000
0000000000000000
0000000000000000
0000001F00000000
000007FFFC000000
00003FFFFF800000
0000FFFFFFE00000
0003FFFFFFF80000
0007FFFFFFFE0000
001FFF000FFF0000
003FF00001FF8000
007FC000007FC000
00FF8000001FE000
01FE0000000FF000
03FC00000007F800
07F800000003FC00
07F000000001FC00
0FE000000000FE00
0FC0000000007E00
1FC0000000007F00
1F80000000003F00
3F80000000003F80
3F00000000001F80
3F00000000001FC0
7E00000000000FC0
7E00000000000FC0
7E00000000000FC0
7E00000000000FC0
7E000000000007C0
7C000000000007E0
FC000000000007E0
FC000000000007E0
FC000000000007E0
7C000000000007E0
7C000000000007E0
7E000000000007C0
7E00000000000FC0
7E00000000000FC0
7E00000000000FC0
7F00000000000FC0
3F00000000001F80
3F00000000001F80
3F80000000003F80
1F80000000003F00
1FC0000000007F00
0FE000000000FE00
0FE000000000FE00
07F000000001FC00
03F800000003F800
01FC00000007F800
01FF0000001FF000
00FF8000003FE000
007FE00000FFC000
001FFC0007FF8000
000FFFE0FFFE0000
0007FFFFFFFC0000
0001FFFFFFF00000
00007FFFFFC00000
00001FFFFF000000
000001FFF0000000
ENDCHAR
STARTCHAR 00D6
ENCODING 214
SWIDTH 810 0
DWIDTH 63 0
BBX 59 70 2 -1
BITMAP
00000F000F000000
00003F801FC00000
00007FC03FE00000
00007FE07FE00000
0000FFE07FF00000
0000FFE07FF00000
0000FFE07FF00000
00007FE07FE00000
00007FC03FE00000
00003F801FC00000
0000060006000000
0000000000000000
0000000000000000
0000001F00000000
000007FFFC000000
00003FFFFF800000
0000FFFFFFE00000
0003FFFFFFF80000
0007FFFFFFFE0000
001FFF000FFF0000
003FF00001FF8000
007FC000007FC000
00FF8000001FE000
01FE0000000FF000
03FC00000007F800
07F800000003FC00
07F000000001FC00
0FE000000000FE00
0FC0000000007E00
1FC0000000007F00
1F80000000003F00
3F80000000003F80
3F00000000001F80
3F00000000001FC0
7E00000000000FC0
7E00000000000FC0
7E00000000000FC0
7E00000000000FC0
7E000000000007C0
7C000000000007E0
FC000000000007E0
FC000000000007E0
FC000000000007E0
7C000000000007E0
7C000000000007E0
7E000000000007C0
7E00000000000FC0
7E00000000000FC0
7E00000000000FC0
7F00000000000FC0
3F00000000001F80
3F00000000001F80
3F80000000003F80
1F80000000003F00
1FC0000000007F00
0FE000000000FE00
0FE000000000FE00
07F000000001FC00
03F800000003F800
01FC00000007F800
01FF0000001FF000
00FF8000003FE000
007FE00000FFC000
001FFC0007FF8000
000FFFE0FFFE0000
0007FFFFFFFC0000
0001FFFFFFF00000
00007FFFFFC00000
00001FFFFF000000
000001FFF0000000
ENDCHAR
STARTCHAR 00D7
ENCODING 215
SWIDTH 501 0
DWIDTH 39 0
BBX 31 31 4 10
BITMAP
10000000
38000018
7C00003C
FE00007E
7F0000FE
3F8001FC
1FC003F8
0FE007F0
07F00FE0
03F81FC0
01FC3F80
00FE7E00
007FFC00
003FF800
001FF000
000FE000
000FF000
001FF800
003FFC00
007EFE00
00FC7F00
01F83F80
03F01FC0
07E00FE0
0FC007F0
1F8003F8
3F0001FC
7E0000FE
7C00007E
3800003C
10000018
ENDCHAR
STARTCHAR 00D8
ENCODING 216
SWIDTH 784 0
DWIDTH 61 0
BBX 58 59 2 -2
BITMAP
0000000000001000
0000003F00003800
00000FFFF8007C00
00007FFFFF00FC00
0001FFFFFFC1F800
0007FFFFFFF3F000
000FFFFFFFFFF000
003FFE001FFFE000
007FF00003FFC000
00FFC00000FFC000
01FF0000003FE000
03FC0000007FE000
07F8000000FFF000
07F0000001FFF800
0FE0000001FBFC00
1FC0000003F1FC00
1FC0000007E0FE00
3F8000000FC07E00
3F0000001F807F00
3F0000003F003F00
7E0000007E003F00
7E000000FC001F80
7E000000FC001F80
FC000001F8001F80
FC000003F0001F80
FC000007E0000FC0
FC00000FC0000FC0
FC00001F80000FC0
FC00003F00000FC0
FC00003F00000FC0
FC00007E00000FC0
FC0000FC00000FC0
FC0001F800000FC0
FC0003F000000FC0
FC0007E000000F80
FC000FC000001F80
FC001F8000001F80
7E001F8000001F80
7E003F0000003F00
7F007E0000003F00
3F00FC0000007F00
3F81F80000007E00
1F83F0000000FE00
1FC7E0000000FC00
0FEFE0000001FC00
0FFFC0000003F800
07FF80000007F000
03FF0000000FF000
01FE0000003FE000
00FF8000007FC000
01FFC00001FF8000
03FFF8000FFF0000
07FFFF80FFFC0000
07EFFFFFFFF80000
0FC3FFFFFFE00000
1F80FFFFFF800000
3F001FFFFE000000
1E0003FFE0000000
0400000000000000
ENDCHAR
STARTCHAR 00D9
ENCODING 217
SWIDTH 488 0
DWIDTH 38 0
BBX 32 70 3 -1
BITMAP
007C0000
007E0000
003E0000
001F0000
000F8000
000F8000
0007C000
0003C000
0001E000
0001F000
00000000
00000000
00000000
00000000
00000000
FC00001F
FC00001F
FC00001F
FC00001F
FC00001F
FC00001F
FC00001F
FC00001F
FC00001F
FC00001F
FC00001F
FC00001F
FC00001F
FC00001F
FC00001F
FC00001F
FC00001F
FC00001F
FC00001F
FC00001F
FC00001F
FC00001F
FC00001F
FC00001F
FC00001F
FC00001F
FC00001F
FC00001F
FC00001F
FC00001F
FC00001F
FC00001F
FC00001F
FC00001F
FC00001F
FC00001F
FC00001F
FC00001F
FC00003F
FC00003F
7C00003F
7E00003F
7E00003F
7E00007E
7F00007E
3F0000FE
3F8000FC
1FC001FC
1FE007F8
0FFC3FF0
07FFFFF0
03FFFFE0
01FFFF80
007FFF00
001FF800
ENDCHAR
STARTCHAR 00DA
ENCODING 218
SWIDTH 488 0
DWIDTH 38 0
BBX 32 70 3 -1
BITMAP
00003F00
00003E00
00007C00
00007800
0000F800
0001F000
0001E000
0003C000
0007C000
00078000
00000000
00000000
00000000
00000000
00000000
FC00001F
FC00001F
FC00001F
FC00001F
FC00001F
FC00001F
FC00001F
FC00001F
FC00001F
FC00001F
FC00001F
FC00001F
FC00001F
FC00001F
FC00001F
FC00001F
FC00001F
FC00001F
FC00001F
FC00001F
FC00001F
FC00001F
FC00001F
FC00001F
FC00001F
FC00001F
FC00001F
FC00001F
FC00001F
FC00001F
FC00001F
FC00001F
FC00001F
FC00001F
FC00001F
FC00001F
FC00001F
FC00001F
FC00003F
FC00003F
7C00003F
7E00003F
7E00003F
7E00007E
7F00007E
3F0000FE
3F8000FC
1FC001FC
1FE007F8
0FFC3FF0
07FFFFF0
03FFFFE0
01FFFF80
007FFF00
001FF800
ENDCHAR
STARTCHAR 00DB
ENCODING 219
SWIDTH 488 0
DWIDTH 38 0
BBX 32 70 3 -1
BITMAP
000FF000
000FF800
001FFC00
003F7E00
007E3E00
00FC1F00
00F80F80
01F007C0
03E007E0
07C003E0
00000000
00000000
00000000
00000000
00000000
FC00001F
FC00001F
FC00001F
FC00001F
FC00001F
FC00001F
FC00001F
FC00001F
FC00001F
FC00001F
FC00001F
FC00001F
FC00001F
FC00001F
FC00001F
FC00001F
FC00001F
FC00001F
FC00001F
FC00001F
FC00001F
FC00001F
FC00001F
FC00001F
FC00001F
FC00001F
FC00001F
FC00001F
FC00001F
FC00001F
FC00001F
FC00001F
FC00001F
FC00001F
FC00001F
FC00001F
FC00001F
FC00001F
FC00003F
FC00003F
7C00003F
7E00003F
7E00003F
7E00007E
7F00007E
3F0000FE
3F8000FC
1FC001FC
1FE007F8
0FFC3FF0
07FFFFF0
03FFFFE0
01FFFF80
007FFF00
001FF800
ENDCHAR
STARTCHAR 00DC
ENCODING 220
SWIDTH 488 0
DWIDTH 38 0
BBX 32 70 3 -1
BITMAP
01C001E0
07F007F8
0FF80FF8
1FFC0FFC
1FFC0FFC
1FFC0FFC
1FFC0FFC
1FF80FFC
0FF80FF8
07F007F0
01C000C0
00000000
00000000
00000000
00000000
FC00001F
FC00001F
FC00001F
FC00001F
FC00001F
FC00001F
FC00001F
FC00001F
FC00001F
FC00001F
FC00001F
FC00001F
FC00001F
FC00001F
FC00001F
FC00001F
FC00001F
FC00001F
FC00001F
FC00001F
FC00001F
FC00001F
FC00001F
FC00001F
FC00001F
FC00001F
FC00001F
FC00001F
FC00001F
FC00001F
FC00001F
FC00001F
FC00001F
FC00001F
FC00001F
FC00001F
FC00001F
FC00001F
FC00003F
FC00003F
7C00003F
7E00003F
7E00003F
7E00007E
7F00007E
3F0000FE
3F8000FC
1FC001FC
1FE007F8
0FFC3FF0
07FFFFF0
03FFFFE0
01FFFF80
007FFF00
001FF800
ENDCHAR
STARTCHAR 00DD
ENCODING 221
SWIDTH 475 0
DWIDTH 37 0
BBX 32 69 3 0
BITMAP
00003E00
00007E00
00007C00
0000F800
0000F000
0001F000
0003E000
0003C000
00078000
000F8000
00000000
00000000
00000000
00000000
00000000
FC00003F
FC00003F
FC00003F
FC00003F
FC00003F
FC00003F
FC00003F
FC00003F
FC00003F
FC00003F
FC00003F
FC00003F
FC00003F
FC00003F
FC00003F
FC00003F
FC00003F
FC00003F
FC00003F
FC00003F
FC00003F
FC00003F
FC00003F
FC00003F
FC00003F
FC00003F
FC00003F
FC00003F
7C00007E
7E00007E
7E00007E
7F0000FC
3F8001FC
3FC003F8
1FE007F8
0FFC7FF0
07FFFFE0
03FFFFC0
01FFFF80
007FFE00
000FF000
0007E000
0007E000
0007E000
0007E000
0007E000
0007E000
0007E000
0007E000
0007E000
0007E000
0007E000
0007E000
0007E000
ENDCHAR
STARTCHAR 00E0
ENCODING 224
SWIDTH 540 0
DWIDTH 42 0
BBX 38 69 4 0
BITMAP
00FC000000
007C000000
003E000000
001F000000
001F000000
000F800000
0007800000
0003C00000
0003E00000
0001E00000
0000000000
0000000000
0000000000
0001800000
003FFC0000
00FFFF0000
03FFFF8000
07FFFFE000
0FFFFFF000
1FF00FF000
1FC003F800
3F8001FC00
3F0000FC00
7F0000FE00
7E00007E00
7E00007E00
FC00007E00
FC00003F00
FC00003F00
FC00003F00
FC00003F00
FC00003F00
FC00003F00
FC00003F00
FC00003F00
FC00003F00
FC00003F00
FC00003F00
FC00003F00
FC00003F00
FC00003F00
FC00003F00
FC00003F00
FC00003F00
FC00003F00
FC00003F00
FC00003F00
FC00003F00
FC00003F00
FC00003F00
FC00003F00
FC00003F00
FC00003F00
FC00003F00
FC00003F00
FC00003F00
FC00003F00
FC00003F00
FC00003F00
FC00003F00
FC00003F00
FC00003F00
FC00003F00
FC00003F00
FFFFFFFFFC
FFFFFFFFFC
FFFFFFFFFC
FFFFFFFFFC
FFFFFFFFFC
ENDCHAR
STARTCHAR 00E1
ENCODING 225
SWIDTH 540 0
DWIDTH 42 0
BBX 38 69 4 0
BITMAP
00003F0000
00007E0000
00007C0000
0000F80000
0000F00000
0001F00000
0003E00000
0003C00000
0007800000
000F800000
0000000000
0000000000
0000000000
0001800000
003FFC0000
00FFFF0000
03FFFF8000
07FFFFE000
0FFFFFF000
1FF00FF000
1FC003F800
3F8001FC00
3F0000FC00
7F0000FE00
7E00007E00
7E00007E00
FC00007E00
FC00003F00
FC00003F00
FC00003F00
FC00003F00
FC00003F00
FC00003F00
FC00003F00
FC00003F00
FC00003F00
FC00003F00
FC00003F00
FC00003F00
FC00003F00
FC00003F00
FC00003F00
FC00003F00
FC00003F00
FC00003F00
FC00003F00
FC00003F00
FC00003F00
FC00003F00
FC00003F00
FC00003F00
FC00003F00
FC00003F00
FC00003F00
FC00003F00
FC00003F00
FC00003F00
FC00003F00
FC00003F00
FC00003F00
FC00003F00
FC00003F00
FC00003F00
FC00003F00
FFFFFFFFFC
FFFFFFFFFC
FFFFFFFFFC
FFFFFFFFFC
FFFFFFFFFC
ENDCHAR
STARTCHAR 00E2
ENCODING 226
SWIDTH 540 0
DWIDTH 42 0
BBX 38 69 4 0
BITMAP
000FF00000
001FF80000
003FF80000
003E7C0000
007C3E0000
00F83F0000
01F81F8000
01F00F8000
03E007C000
07C003E000
0000000000
0000000000
0000000000
0001800000
003FFC0000
00FFFF0000
03FFFF8000
07FFFFE000
0FFFFFF000
1FF00FF000
1FC003F800
3F8001FC00
3F0000FC00
7F0000FE00
7E00007E00
7E00007E00
FC00007E00
FC00003F00
FC00003F00
FC00003F00
FC00003F00
FC00003F00
FC00003F00
FC00003F00
FC00003F00
FC00003F00
FC00003F00
FC00003F00
FC00003F00
FC00003F00
FC00003F00
FC00003F00
FC00003F00
FC00003F00
FC00003F00
FC00003F00
FC00003F00
FC00003F00
FC00003F00
FC00003F00
FC00003F00
FC00003F00
FC00003F00
FC00003F00
FC00003F00
FC00003F00
FC00003F00
FC00003F00
FC00003F00
FC00003F00
FC00003F00
FC00003F00
FC00003F00
FC00003F00
FFFFFFFFFC
FFFFFFFFFC
FFFFFFFFFC
FFFFFFFFFC
FFFFFFFFFC
ENDCHAR
STARTCHAR 00E3
ENCODING 227
SWIDTH 540 0
DWIDTH 42 0
BBX 38 68 4 0
BITMAP
03FE000000
03FFFF0000
03FFFF0000
03FFFF0000
0001FF0000
0000000000
0000000000
0000000000
0000000000
0000000000
0000000000
0000000000
0001800000
003FFC0000
00FFFF0000
03FFFF8000
07FFFFE000
0FFFFFF000
1FF00FF000
1FC003F800
3F8001FC00
3F0000FC00
7F0000FE00
7E00007E00
7E00007E00
FC00007E00
FC00003F00
FC00003F00
FC00003F00
FC00003F00
FC00003F00
FC00003F00
FC00003F00
FC00003F00
FC00003F00
FC00003F00
FC00003F00
FC00003F00
FC00003F00
FC00003F00
FC00003F00
FC00003F00
FC00003F00
FC00003F00
FC00003F00
FC00003F00
FC00003F00
FC00003F00
FC00003F00
FC00003F00
FC00003F00
FC00003F00
FC00003F00
FC00003F00
FC00003F00
FC00003F00
FC00003F00
FC00003F00
FC00003F00
FC00003F00
FC00003F00
FC00003F00
FC00003F00
FFFFFFFFFC
FFFFFFFFFC
FFFFFFFFFC
FFFFFFFFFC
FFFFFFFFFC
ENDCHAR
STARTCHAR 00E4
ENCODING 228
SWIDTH 540 0
DWIDTH 42 0
BBX 38 69 4 0
BITMAP
03C001C000
0FF007F000
0FF80FF800
1FF80FFC00
1FF81FFC00
1FF81FFC00
1FF81FFC00
1FF80FFC00
0FF80FF800
07F007F000
018001C000
0000000000
0000000000
0001800000
003FFC0000
00FFFF0000
03FFFF8000
07FFFFE000
0FFFFFF000
1FF00FF000
1FC003F800
3F8001FC00
3F0000FC00
7F0000FE00
7E00007E00
7E00007E00
FC00007E00
FC00003F00
FC00003F00
FC00003F00
FC00003F00
FC00003F00
FC00003F00
FC00003F00
FC00003F00
FC00003F00
FC00003F00
FC00003F00
FC00003F00
FC00003F00
FC00003F00
FC00003F00
FC00003F00
FC00003F00
FC00003F00
FC00003F00
FC00003F00
FC00003F00
FC00003F00
FC00003F00
FC00003F00
FC00003F00
FC00003F00
FC00003F00
FC00003F00
FC00003F00
FC00003F00
FC00003F00
FC00003F00
FC00003F00
FC00003F00
FC00003F00
FC00003F00
FC00003F00
FFFFFFFFFC
FFFFFFFFFC
FFFFFFFFFC
FFFFFFFFFC
FFFFFFFFFC
ENDCHAR
STARTCHAR 00E5
ENCODING 229
SWIDTH 540 0
DWIDTH 42 0
BBX 38 75 4 0
BITMAP
0001000000
000FF00000
001FF80000
003FFC0000
007C3E0000
00701E0000
00F00E0000
00F00F0000
00F00F0000
00F00E0000
00F01E0000
00781E0000
007FFC0000
003FFC0000
001FF00000
0003C00000
0000000000
0000000000
0000000000
0001800000
003FFC0000
00FFFF0000
03FFFF8000
07FFFFE000
0FFFFFF000
1FF00FF000
1FC003F800
3F8001FC00
3F0000FC00
7F0000FE00
7E00007E00
7E00007E00
FC00007E00
FC00003F00
FC00003F00
FC00003F00
FC00003F00
FC00003F00
FC00003F00
FC00003F00
FC00003F00
FC00003F00
FC00003F00
FC00003F00
FC00003F00
FC00003F00
FC00003F00
FC00003F00
FC00003F00
FC00003F00
FC00003F00
FC00003F00
FC00003F00
FC00003F00
FC00003F00
FC00003F00
FC00003F00
FC00003F00
FC00003F00
FC00003F00
FC00003F00
FC00003F00
FC00003F00
FC00003F00
FC00003F00
FC00003F00
FC00003F00
FC00003F00
FC00003F00
FC00003F00
FFFFFFFFFC
FFFFFFFFFC
FFFFFFFFFC
FFFFFFFFFC
FFFFFFFFFC
ENDCHAR
STARTCHAR 00E7
ENCODING 231
SWIDTH 681 0
DWIDTH 53 0
BBX 50 72 2 -16
BITMAP
0000001F000000
000007FFF80000
00003FFFFF0000
0000FFFFFFC000
0003FFFFFFF000
000FFFFFFFF800
001FFE001FFE00
003FF00003FF00
007FC00001FF80
00FF0000007F80
01FE0000003FC0
03FC0000000F80
07F80000000F00
07F00000000600
0FE00000000000
0FC00000000000
1FC00000000000
1F800000000000
3F800000000000
3F000000000000
3F000000000000
7E000000000000
7E000000000000
7E000000000000
7E000000000000
7E000000000000
7C000000000000
FC000000000000
FC000000000000
FC000000000000
FC000000000000
7C000000000000
7E000000000000
7E000000000000
7E000000000000
7E000000000000
7F000000000000
3F000000000000
3F000000000000
3F800000000000
1F800000000000
1FC00000000000
0FE00000000000
0FE00000000000
07F00000000600
03F80000000F00
03FC0000001F80
01FF0000003FC0
00FF800000FF80
007FE00001FF00
003FF8000FFE00
000FFFE0FFFC00
0007FFFFFFF800
0001FFFFFFE000
00007FFFFF8000
00001FFFFE0000
000001FFE00000
00000078000000
00000070000000
0000007E000000
0000007F000000
0000000F800000
00000003800000
00000003C00000
00000001C00000
00000801C00000
00001801C00000
00003C03C00000
00003F07800000
00001FFF800000
000007FF000000
000003FC000000
ENDCHAR
STARTCHAR 00E8
ENCODING 232
SWIDTH 475 0
DWIDTH 37 0
BBX 36 69 2 0
BITMAP
00FC000000
007C000000
003E000000
001F000000
001F000000
000F800000
0007800000
0003C00000
0003E00000
0001E00000
0000000000
0000000000
0000000000
0000000000
0000000000
07FFFFE000
07FFFFE000
07FFFFE000
07FFFFE000
07FFFFE000
07E0000000
07E0000000
07E0000000
07E0000000
07E0000000
07E0000000
07E0000000
07E0000000
07E0000000
07E0000000
07E0000000
07E0000000
07E0000000
07E0000000
07E0000000
07E0000000
07E0000000
07E0000000
07E0000000
FFFFFFFC00
FFFFFFFC00
FFFFFFFC00
FFFFFFFC00
FFFFFFFC00
07E0000000
07E0000000
07E0000000
07E0000000
07E0000000
07E0000000
07E0000000
07E0000000
07E0000000
07E0000000
07E0000000
07E0000000
07E0000000
07E0000000
07E0000000
07E0000000
07E0000000
07E0000000
07E0000000
07E0000000
07FFFFFFF0
07FFFFFFF0
07FFFFFFF0
07FFFFFFF0
07FFFFFFF0
ENDCHAR
STARTCHAR 00E9
ENCODING 233
SWIDTH 475 0
DWIDTH 37 0
BBX 36 69 2 0
BITMAP
00003F0000
00003E0000
00007C0000
0000F80000
0000F80000
0001F00000
0003E00000
0003C00000
0007800000
0007800000
0000000000
0000000000
0000000000
0000000000
0000000000
07FFFFE000
07FFFFE000
07FFFFE000
07FFFFE000
07FFFFE000
07E0000000
07E0000000
07E0000000
07E0000000
07E0000000
07E0000000
07E0000000
07E0000000
07E0000000
07E0000000
07E0000000
07E0000000
07E0000000
07E0000000
07E0000000
07E0000000
07E0000000
07E0000000
07E0000000
FFFFFFFC00
FFFFFFFC00
FFFFFFFC00
FFFFFFFC00
FFFFFFFC00
07E0000000
07E0000000
07E0000000
07E0000000
07E0000000
07E0000000
07E0000000
07E0000000
07E0000000
07E0000000
07E0000000
07E0000000
07E0000000
07E0000000
07E0000000
07E0000000
07E0000000
07E0000000
07E0000000
07E0000000
07FFFFFFF0
07FFFFFFF0
07FFFFFFF0
07FFFFFFF0
07FFFFFFF0
ENDCHAR
STARTCHAR 00EA
ENCODING 234
SWIDTH 475 0
DWIDTH 37 0
BBX 36 69 2 0
BITMAP
000FF00000
001FF80000
001FF80000
003E7C0000
007C3E0000
00FC3F0000
01F81F8000
01F00F8000
03E007C000
07C003E000
0000000000
0000000000
0000000000
0000000000
0000000000
07FFFFE000
07FFFFE000
07FFFFE000
07FFFFE000
07FFFFE000
07E0000000
07E0000000
07E0000000
07E0000000
07E0000000
07E0000000
07E0000000
07E0000000
07E0000000
07E0000000
07E0000000
07E0000000
07E0000000
07E0000000
07E0000000
07E0000000
07E0000000
07E0000000
07E0000000
FFFFFFFC00
FFFFFFFC00
FFFFFFFC00
FFFFFFFC00
FFFFFFFC00
07E0000000
07E0000000
07E0000000
07E0000000
07E0000000
07E0000000
07E0000000
07E0000000
07E0000000
07E0000000
07E0000000
07E0000000
07E0000000
07E0000000
07E0000000
07E0000000
07E0000000
07E0000000
07E0000000
07E0000000
07FFFFFFF0
07FFFFFFF0
07FFFFFFF0
07FFFFFFF0
07FFFFFFF0
ENDCHAR
STARTCHAR 00EB
ENCODING 235
SWIDTH 475 0
DWIDTH 37 0
BBX 36 69 2 0
BITMAP
03C001C000
07F007F000
0FF80FF800
1FF80FFC00
1FF81FFC00
1FFC1FFC00
1FF81FFC00
1FF80FFC00
0FF80FF800
07F007F000
038001C000
0000000000
0000000000
0000000000
0000000000
07FFFFE000
07FFFFE000
07FFFFE000
07FFFFE000
07FFFFE000
07E0000000
07E0000000
07E0000000
07E0000000
07E0000000
07E0000000
07E0000000
07E0000000
07E0000000
07E0000000
07E0000000
07E0000000
07E0000000
07E0000000
07E0000000
07E0000000
07E0000000
07E0000000
07E0000000
FFFFFFFC00
FFFFFFFC00
FFFFFFFC00
FFFFFFFC00
FFFFFFFC00
07E0000000
07E0000000
07E0000000
07E0000000
07E0000000
07E0000000
07E0000000
07E0000000
07E0000000
07E0000000
07E0000000
07E0000000
07E0000000
07E0000000
07E0000000
07E0000000
07E0000000
07E0000000
07E0000000
07E0000000
07FFFFFFF0
07FFFFFFF0
07FFFFFFF0
07FFFFFFF0
07FFFFFFF0
ENDCHAR
STARTCHAR 00EC
ENCODING 236
SWIDTH 167 0
DWIDTH 13 0
BBX 11 48 -1 0
BITMAP
FC00
7C00
3E00
1F00
1F00
0F80
0780
03C0
03E0
01E0
0000
0000
0000
0000
0000
07E0
07E0
07E0
07E0
07E0
07E0
07E0
07E0
07E0
07E0
07E0
07E0
07E0
07E0
07E0
07E0
07E0
07E0
07E0
07E0
07E0
07E0
07E0
07E0
07E0
07E0
07E0
07E0
07E0
07E0
07E0
07E0
07E0
ENDCHAR
STARTCHAR 00ED
ENCODING 237
SWIDTH 167 0
DWIDTH 13 0
BBX 11 48 3 0
BITMAP
03E0
07E0
07C0
0F80
0F00
1F00
3E00
3C00
7800
F800
0000
0000
0000
0000
0000
7E00
7E00
7E00
7E00
7E00
7E00
7E00
7E00
7E00
7E00
7E00
7E00
7E00
7E00
7E00
7E00
7E00
7E00
7E00
7E00
7E00
7E00
7E00
7E00
7E00
7E00
7E00
7E00
7E00
7E00
7E00
7E00
7E00
ENDCHAR
STARTCHAR 00EE
ENCODING 238
SWIDTH 167 0
DWIDTH 13 0
BBX 22 48 -4 0
BITMAP
01FE00
03FF00
07FF00
07CF80
0F87C0
1F07E0
3F03F0
3E01F0
7C00F8
F8007C
000000
000000
000000
000000
000000
00FC00
00FC00
00FC00
00FC00
00FC00
00FC00
00FC00
00FC00
00FC00
00FC00
00FC00
00FC00
00FC00
00FC00
00FC00
00FC00
00FC00
00FC00
00FC00
00FC00
00FC00
00FC00
00FC00
00FC00
00FC00
00FC00
00FC00
00FC00
00FC00
00FC00
00FC00
00FC00
00FC00
ENDCHAR
STARTCHAR 00EF
ENCODING 239
SWIDTH 167 0
DWIDTH 13 0
BBX 27 48 -6 0
BITMAP
1E000E00
7F803F80
7FC07FC0
FFC07FE0
FFC0FFE0
FFE0FFE0
FFC0FFE0
FFC07FE0
7FC07FC0
3F803F80
0C000E00
00000000
00000000
00000000
00000000
003F0000
003F0000
003F0000
003F0000
003F0000
003F0000
003F0000
003F0000
003F0000
003F0000
003F0000
003F0000
003F0000
003F0000
003F0000
003F0000
003F0000
003F0000
003F0000
003F0000
003F0000
003F0000
003F0000
003F0000
003F0000
003F0000
003F0000
003F0000
003F0000
003F0000
003F0000
003F0000
003F0000
ENDCHAR
STARTCHAR 00F1
ENCODING 241
SWIDTH 501 0
DWIDTH 39 0
BBX 34 68 1 0
BITMAP
007F800000
00FFFFE000
00FFFFE000
00FFFFE000
00007FC000
0000000000
0000000000
0000000000
0000000000
0000000000
0000000000
0000000000
1000000000
3800000000
7E00000FC0
7F00000FC0
FF80000FC0
7FC0000FC0
1FF0000FC0
1FF8000FC0
1FFC000FC0
1FFF000FC0
1FFF800FC0
1F7FC00FC0
1F3FE00FC0
1F0FF80FC0
1F07FC0FC0
1F03FE0FC0
1F00FF8FC0
1F007FCFC0
1F003FEFC0
1F001FFFC0
1F0007FFC0
1F0003FFC0
1F0001FFC0
1F0000FFC0
1F00003FC0
1F00001FC0
1F00000FC0
1F00000FC0
1F00000FC0
1F00000FC0
1F00000FC0
1F00000FC0
1F00000FC0
1F00000FC0
1F00000FC0
1F00000FC0
1F00000FC0
1F00000FC0
1F00000FC0
1F00000FC0
1F00000FC0
1F00000FC0
1F00000FC0
1F00000FC0
1F00000FC0
1F00000FC0
1F00000FC0
1F00000FC0
1F00000FC0
1F00000FC0
1F00000FC0
1F00000FC0
1F00000FC0
1F00000FC0
1F00000FC0
1F00000FC0
ENDCHAR
STARTCHAR 00F2
ENCODING 242
SWIDTH 810 0
DWIDTH 63 0
BBX 59 70 2 -1
BITMAP
000003E000000000
000001F000000000
000001F000000000
000000F800000000
0000007C00000000
0000003C00000000
0000003E00000000
0000001F00000000
0000000F00000000
0000000780000000
0000000000000000
0000000000000000
0000000000000000
0000001F00000000
000007FFFC000000
00003FFFFF800000
0000FFFFFFE00000
0003FFFFFFF80000
0007FFFFFFFE0000
001FFF000FFF0000
003FF00001FF8000
007FC000007FC000
00FF8000001FE000
01FE0000000FF000
03FC00000007F800
07F800000003FC00
07F000000001FC00
0FE000000000FE00
0FC0000000007E00
1FC0000000007F00
1F80000000003F00
3F80000000003F80
3F00000000001F80
3F00000000001FC0
7E00000000000FC0
7E00000000000FC0
7E00000000000FC0
7E00000000000FC0
7E000000000007C0
7C000000000007E0
FC000000000007E0
FC000000000007E0
FC000000000007E0
7C000000000007E0
7C000000000007E0
7E000000000007C0
7E00000000000FC0
7E00000000000FC0
7E00000000000FC0
7F00000000000FC0
3F00000000001F80
3F00000000001F80
3F80000000003F80
1F80000000003F00
1FC0000000007F00
0FE000000000FE00
0FE000000000FE00
07F000000001FC00
03F800000003F800
01FC00000007F800
01FF0000001FF000
00FF8000003FE000
007FE00000FFC000
001FFC0007FF8000
000FFFE0FFFE0000
0007FFFFFFFC0000
0001FFFFFFF00000
00007FFFFFC00000
00001FFFFF000000
000001FFF0000000
ENDCHAR
STARTCHAR 00F3
ENCODING 243
SWIDTH 810 0
DWIDTH 63 0
BBX 59 70 2 -1
BITMAP
00000000F8000000
00000001F0000000
00000003F0000000
00000003E0000000
00000007C0000000
0000000780000000
0000000F80000000
0000001F00000000
0000001E00000000
0000003C00000000
0000000000000000
0000000000000000
0000000000000000
0000001F00000000
000007FFFC000000
00003FFFFF800000
0000FFFFFFE00000
0003FFFFFFF80000
0007FFFFFFFE0000
001FFF000FFF0000
003FF00001FF8000
007FC000007FC000
00FF8000001FE000
01FE0000000FF000
03FC00000007F800
07F800000003FC00
07F000000001FC00
0FE000000000FE00
0FC0000000007E00
1FC0000000007F00
1F80000000003F00
3F80000000003F80
3F00000000001F80
3F00000000001FC0
7E00000000000FC0
7E00000000000FC0
7E00000000000FC0
7E00000000000FC0
7E000000000007C0
7C000000000007E0
FC000000000007E0
FC000000000007E0
FC000000000007E0
7C000000000007E0
7C000000000007E0
7E000000000007C0
7E00000000000FC0
7E00000000000FC0
7E00000000000FC0
7F00000000000FC0
3F00000000001F80
3F00000000001F80
3F80000000003F80
1F80000000003F00
1FC0000000007F00
0FE000000000FE00
0FE000000000FE00
07F000000001FC00
03F800000003F800
01FC00000007F800
01FF0000001FF000
00FF8000003FE000
007FE00000FFC000
001FFC0007FF8000
000FFFE0FFFE0000
0007FFFFFFFC0000
0001FFFFFFF00000
00007FFFFFC00000
00001FFFFF000000
000001FFF0000000
ENDCHAR
STARTCHAR 00F4
ENCODING 244
SWIDTH 810 0
DWIDTH 63 0
BBX 59 70 2 -1
BITMAP
0000003F80000000
0000007FC0000000
000000FFE0000000
000001FBF0000000
000003F1F8000000
000003E0F8000000
000007C07C000000
00000F803E000000
00001F001F000000
00003F000F800000
0000000000000000
0000000000000000
0000000000000000
0000001F00000000
000007FFFC000000
00003FFFFF800000
0000FFFFFFE00000
0003FFFFFFF80000
0007FFFFFFFE0000
001FFF000FFF0000
003FF00001FF8000
007FC000007FC000
00FF8000001FE000
01FE0000000FF000
03FC00000007F800
07F800000003FC00
07F000000001FC00
0FE000000000FE00
0FC0000000007E00
1FC0000000007F00
1F80000000003F00
3F80000000003F80
3F00000000001F80
3F00000000001FC0
7E00000000000FC0
7E00000000000FC0
7E00000000000FC0
7E00000000000FC0
7E000000000007C0
7C000000000007E0
FC000000000007E0
FC000000000007E0
FC000000000007E0
7C000000000007E0
7C000000000007E0
7E000000000007C0
7E00000000000FC0
7E00000000000FC0
7E00000000000FC0
7F00000000000FC0
3F00000000001F80
3F00000000001F80
3F80000000003F80
1F80000000003F00
1FC0000000007F00
0FE000000000FE00
0FE000000000FE00
07F000000001FC00
03F800000003F800
01FC00000007F800
01FF0000001FF000
00FF8000003FE000
007FE00000FFC000
001FFC0007FF8000
000FFFE0FFFE0000
0007FFFFFFFC0000
0001FFFFFFF00000
00007FFFFFC00000
00001FFFFF000000
000001FFF0000000
ENDCHAR
STARTCHAR 00F5
ENCODING 245
SWIDTH 810 0
DWIDTH 63 0
BBX 59 69 2 -1
BITMAP
00000FF000000000
00001FFFFC000000
00001FFFFC000000
00001FFFFC000000
0000000FF8000000
0000000000000000
0000000000000000
0000000000000000
0000000000000000
0000000000000000
0000000000000000
0000000000000000
0000001F00000000
000007FFFC000000
00003FFFFF800000
0000FFFFFFE00000
0003FFFFFFF80000
0007FFFFFFFE0000
001FFF000FFF0000
003FF00001FF8000
007FC000007FC000
00FF8000001FE000
01FE0000000FF000
03FC00000007F800
07F800000003FC00
07F000000001FC00
0FE000000000FE00
0FC0000000007E00
1FC0000000007F00
1F80000000003F00
3F80000000003F80
3F00000000001F80
3F00000000001FC0
7E00000000000FC0
7E00000000000FC0
7E00000000000FC0
7E00000000000FC0
7E000000000007C0
7C000000000007E0
FC000000000007E0
FC000000000007E0
FC000000000007E0
7C000000000007E0
7C000000000007E0
7E000000000007C0
7E00000000000FC0
7E00000000000FC0
7E00000000000FC0
7F00000000000FC0
3F00000000001F80
3F00000000001F80
3F80000000003F80
1F80000000003F00
1FC0000000007F00
0FE000000000FE00
0FE000000000FE00
07F000000001FC00
03F800000003F800
01FC00000007F800
01FF0000001FF000
00FF8000003FE000
007FE00000FFC000
001FFC0007FF8000
000FFFE0FFFE0000
0007FFFFFFFC0000
0001FFFFFFF00000
00007FFFFFC00000
00001FFFFF000000
000001FFF0000000
ENDCHAR
STARTCHAR 00F6
ENCODING 246
SWIDTH 810 0
DWIDTH 63 0
BBX 59 70 2 -1
BITMAP
00000F000F000000
00003F801FC00000
00007FC03FE00000
00007FE07FE00000
0000FFE07FF00000
0000FFE07FF00000
0000FFE07FF00000
00007FE07FE00000
00007FC03FE00000
00003F801FC00000
0000060006000000
0000000000000000
0000000000000000
0000001F00000000
000007FFFC000000
00003FFFFF800000
0000FFFFFFE00000
0003FFFFFFF80000
0007FFFFFFFE0000
001FFF000FFF0000
003FF00001FF8000
007FC000007FC000
00FF8000001FE000
01FE0000000FF000
03FC00000007F800
07F800000003FC00
07F000000001FC00
0FE000000000FE00
0FC0000000007E00
1FC0000000007F00
1F80000000003F00
3F80000000003F80
3F00000000001F80
3F00000000001FC0
7E00000000000FC0
7E00000000000FC0
7E00000000000FC0
7E00000000000FC0
7E000000000007C0
7C000000000007E0
FC000000000007E0
FC000000000007E0
FC000000000007E0
7C000000000007E0
7C000000000007E0
7E000000000007C0
7E00000000000FC0
7E00000000000FC0
7E00000000000FC0
7F00000000000FC0
3F00000000001F80
3F00000000001F80
3F80000000003F80
1F80000000003F00
1FC0000000007F00
0FE000000000FE00
0FE000000000FE00
07F000000001FC00
03F800000003F800
01FC00000007F800
01FF0000001FF000
00FF8000003FE000
007FE00000FFC000
001FFC0007FF8000
000FFFE0FFFE0000
0007FFFFFFFC0000
0001FFFFFFF00000
00007FFFFFC00000
00001FFFFF000000
000001FFF0000000
ENDCHAR
STARTCHAR 00F7
ENCODING 247
SWIDTH 540 0
DWIDTH 42 0
BBX 35 32 4 9
BITMAP
0001F00000
0003F80000
0007FC0000
0007FC0000
0007FC0000
0007FC0000
0007FC0000
0003F80000
0001F00000
0000000000
0000000000
0000000000
0000000000
0000000000
FFFFFFFFE0
FFFFFFFFE0
FFFFFFFFE0
FFFFFFFFE0
FFFFFFFFE0
0000000000
0000000000
0000000000
0000000000
0001E00000
0003F80000
0007FC0000
0007FC0000
0007FC0000
0007FC0000
0007FC0000
0007F80000
0003F00000
ENDCHAR
STARTCHAR 00F8
ENCODING 248
SWIDTH 784 0
DWIDTH 61 0
BBX 58 59 2 -2
BITMAP
0000000000001000
0000003F00003800
00000FFFF8007C00
00007FFFFF00FC00
0001FFFFFFC1F800
0007FFFFFFF3F000
000FFFFFFFFFF000
003FFE001FFFE000
007FF00003FFC000
00FFC00000FFC000
01FF0000003FE000
03FC0000007FE000
07F8000000FFF000
07F0000001FFF800
0FE0000001FBFC00
1FC0000003F1FC00
1FC0000007E0FE00
3F8000000FC07E00
3F0000001F807F00
3F0000003F003F00
7E0000007E003F00
7E000000FC001F80
7E000000FC001F80
FC000001F8001F80
FC000003F0001F80
FC000007E0000FC0
FC00000FC0000FC0
FC00001F80000FC0
FC00003F00000FC0
FC00003F00000FC0
FC00007E00000FC0
FC0000FC00000FC0
FC0001F800000FC0
FC0003F000000FC0
FC0007E000000F80
FC000FC000001F80
FC001F8000001F80
7E001F8000001F80
7E003F0000003F00
7F007E0000003F00
3F00FC0000007F00
3F81F80000007E00
1F83F0000000FE00
1FC7E0000000FC00
0FEFE0000001FC00
0FFFC0000003F800
07FF80000007F000
03FF0000000FF000
01FE0000003FE000
00FF8000007FC000
01FFC00001FF8000
03FFF8000FFF0000
07FFFF80FFFC0000
07EFFFFFFFF80000
0FC3FFFFFFE00000
1F80FFFFFF800000
3F001FFFFE000000
1E0003FFE0000000
0400000000000000
ENDCHAR
STARTCHAR 00F9
ENCODING 249
SWIDTH 488 0
DWIDTH 38 0
BBX 32 70 3 -1
BITMAP
007C0000
007E0000
003E0000
001F0000
000F8000
000F8000
0007C000
0003C000
0001E000
0001F000
00000000
00000000
00000000
00000000
00000000
FC00001F
FC00001F
FC00001F
FC00001F
FC00001F
FC00001F
FC00001F
FC00001F
FC00001F
FC00001F
FC00001F
FC00001F
FC00001F
FC00001F
FC00001F
FC00001F
FC00001F
FC00001F
FC00001F
FC00001F
FC00001F
FC00001F
FC00001F
FC00001F
FC00001F
FC00001F
FC00001F
FC00001F
FC00001F
FC00001F
FC00001F
FC00001F
FC00001F
FC00001F
FC00001F
FC00001F
FC00001F
FC00001F
FC00003F
FC00003F
7C00003F
7E00003F
7E00003F
7E00007E
7F00007E
3F0000FE
3F8000FC
1FC001FC
1FE007F8
0FFC3FF0
07FFFFF0
03FFFFE0
01FFFF80
007FFF00
001FF800
ENDCHAR
STARTCHAR 00FA
ENCODING 250
SWIDTH 488 0
DWIDTH 38 0
BBX 32 70 3 -1
BITMAP
00003F00
00003E00
00007C00
00007800
0000F800
0001F000
0001E000
0003C000
0007C000
00078000
00000000
00000000
00000000
00000000
00000000
FC00001F
FC00001F
FC00001F
FC00001F
FC00001F
FC00001F
FC00001F
FC00001F
FC00001F
FC00001F
FC00001F
FC00001F
FC00001F
FC00001F
FC00001F
FC00001F
FC00001F
FC00001F
FC00001F
FC00001F
FC00001F
FC00001F
FC00001F
FC00001F
FC00001F
FC00001F
FC00001F
FC00001F
FC00001F
FC00001F
FC00001F
FC00001F
FC00001F
FC00001F
FC00001F
FC00001F
FC00001F
FC00001F
FC00003F
FC00003F
7C00003F
7E00003F
7E00003F
7E00007E
7F00007E
3F0000FE
3F8000FC
1FC001FC
1FE007F8
0FFC3FF0
07FFFFF0
03FFFFE0
01FFFF80
007FFF00
001FF800
ENDCHAR
STARTCHAR 00FB
ENCODING 251
SWIDTH 488 0
DWIDTH 38 0
BBX 32 70 3 -1
BITMAP
000FF000
000FF800
001FFC00
003F7E00
007E3E00
00FC1F00
00F80F80
01F007C0
03E007E0
07C003E0
00000000
00000000
00000000
00000000
00000000
FC00001F
FC00001F
FC00001F
FC00001F
FC00001F
FC00001F
FC00001F
FC00001F
FC00001F
FC00001F
FC00001F
FC00001F
FC00001F
FC00001F
FC00001F
FC00001F
FC00001F
FC00001F
FC00001F
FC00001F
FC00001F
FC00001F
FC00001F
FC00001F
FC00001F
FC00001F
FC00001F
FC00001F
FC00001F
FC00001F
FC00001F
FC00001F
FC00001F
FC00001F
FC00001F
FC00001F
FC00001F
FC00001F
FC00003F
FC00003F
7C00003F
7E00003F
7E00003F
7E00007E
7F00007E
3F0000FE
3F8000FC
1FC001FC
1FE007F8
0FFC3FF0
07FFFFF0
03FFFFE0
01FFFF80
007FFF00
001FF800
ENDCHAR
STARTCHAR 00FC
ENCODING 252
SWIDTH 488 0
DWIDTH 38 0
BBX 32 70 3 -1
BITMAP
01C001E0
07F007F8
0FF80FF8
1FFC0FFC
1FFC0FFC
1FFC0FFC
1FFC0FFC
1FF80FFC
0FF80FF8
07F007F0
01C000C0
00000000
00000000
00000000
00000000
FC00001F
FC00001F
FC00001F
FC00001F
FC00001F
FC00001F
FC00001F
FC00001F
FC00001F
FC00001F
FC00001F
FC00001F
FC00001F
FC00001F
FC00001F
FC00001F
FC00001F
FC00001F
FC00001F
FC00001F
FC00001F
FC00001F
FC00001F
FC00001F
FC00001F
FC00001F
FC00001F
FC00001F
FC00001F
FC00001F
FC00001F
FC00001F
FC00001F
FC00001F
FC00001F
FC00001F
FC00001F
FC00001F
FC00003F
FC00003F
7C00003F
7E00003F
7E00003F
7E00007E
7F00007E
3F0000FE
3F8000FC
1FC001FC
1FE007F8
0FFC3FF0
07FFFFF0
03FFFFE0
01FFFF80
007FFF00
001FF800
ENDCHAR
STARTCHAR 00FD
ENCODING 253
SWIDTH 475 0
DWIDTH 37 0
BBX 32 69 3 0
BITMAP
00003E00
00007E00
00007C00
0000F800
0000F000
0001F000
0003E000
0003C000
00078000
000F8000
00000000
00000000
00000000
00000000
00000000
FC00003F
FC00003F
FC00003F
FC00003F
FC00003F
FC00003F
FC00003F
FC00003F
FC00003F
FC00003F
FC00003F
FC00003F
FC00003F
FC00003F
FC00003F
FC00003F
FC00003F
FC00003F
FC00003F
FC00003F
FC00003F
FC00003F
FC00003F
FC00003F
FC00003F
FC00003F
FC00003F
FC00003F
7C00007E
7E00007E
7E00007E
7F0000FC
3F8001FC
3FC003F8
1FE007F8
0FFC7FF0
07FFFFE0
03FFFFC0
01FFFF80
007FFE00
000FF000
0007E000
0007E000
0007E000
0007E000
0007E000
0007E000
0007E000
0007E000
0007E000
0007E000
0007E000
0007E000
0007E000
ENDCHAR
STARTCHAR 00FF
ENCODING 255
SWIDTH 475 0
DWIDTH 37 0
BBX 32 69 3 0
BITMAP
03C001C0
0FF007F0
0FF80FF8
1FF80FFC
1FF81FFC
1FF81FFC
1FF81FFC
1FF80FFC
0FF80FF8
07F007F0
018001C0
00000000
00000000
00000000
00000000
FC00003F
FC00003F
FC00003F
FC00003F
FC00003F
FC00003F
FC00003F
FC00003F
FC00003F
FC00003F
FC00003F
FC00003F
FC00003F
FC00003F
FC00003F
FC00003F
FC00003F
FC00003F
FC00003F
FC00003F
FC00003F
FC00003F
FC00003F
FC00003F
FC00003F
FC00003F
FC00003F
FC00003F
7C00007E
7E00007E
7E00007E
7F0000FC
3F8001FC
3FC003F8
1FE007F8
0FFC7FF0
07FFFFE0
03FFFFC0
01FFFF80
007FFE00
000FF000
0007E000
0007E000
0007E000
0007E000
0007E000
0007E000
0007E000
0007E000
0007E000
0007E000
0007E000
0007E000
0007E000
ENDCHAR
STARTCHAR 0100
ENCODING 256
SWIDTH 540 0
DWIDTH 42 0
BBX 38 67 4 0
BITMAP
07FFFFE000
07FFFFE000
07FFFFE000
07FFFFE000
07FFFFE000
0000000000
0000000000
0000000000
0000000000
0000000000
0000000000
0001800000
003FFC0000
00FFFF0000
03FFFF8000
07FFFFE000
0FFFFFF000
1FF00FF000
1FC003F800
3F8001FC00
3F0000FC00
7F0000FE00
7E00007E00
7E00007E00
FC00007E00
FC00003F00
FC00003F00
FC00003F00
FC00003F00
FC00003F00
FC00003F00
FC00003F00
FC00003F00
FC00003F00
FC00003F00
FC00003F00
FC00003F00
FC00003F00
FC00003F00
FC00003F00
FC00003F00
FC00003F00
FC00003F00
FC00003F00
FC00003F00
FC00003F00
FC00003F00
FC00003F00
FC00003F00
FC00003F00
FC00003F00
FC00003F00
FC00003F00
FC00003F00
FC00003F00
FC00003F00
FC00003F00
FC00003F00
FC00003F00
FC00003F00
FC00003F00
FC00003F00
FFFFFFFFFC
FFFFFFFFFC
FFFFFFFFFC
FFFFFFFFFC
FFFFFFFFFC
ENDCHAR
STARTCHAR 0101
ENCODING 257
SWIDTH 540 0
DWIDTH 42 0
BBX 38 67 4 0
BITMAP
07FFFFE000
07FFFFE000
07FFFFE000
07FFFFE000
07FFFFE000
0000000000
0000000000
0000000000
0000000000
0000000000
0000000000
0001800000
003FFC0000
00FFFF0000
03FFFF8000
07FFFFE000
0FFFFFF000
1FF00FF000
1FC003F800
3F8001FC00
3F0000FC00
7F0000FE00
7E00007E00
7E00007E00
FC00007E00
FC00003F00
FC00003F00
FC00003F00
FC00003F00
FC00003F00
FC00003F00
FC00003F00
FC00003F00
FC00003F00
FC00003F00
FC00003F00
FC00003F00
FC00003F00
FC00003F00
FC00003F00
FC00003F00
FC00003F00
FC00003F00
FC00003F00
FC00003F00
FC00003F00
FC00003F00
FC00003F00
FC00003F00
FC00003F00
FC00003F00
FC00003F00
FC00003F00
FC00003F00
FC00003F00
FC00003F00
FC00003F00
FC00003F00
FC00003F00
FC00003F00
FC00003F00
FC00003F00
FFFFFFFFFC
FFFFFFFFFC
FFFFFFFFFC
FFFFFFFFFC
FFFFFFFFFC
ENDCHAR
STARTCHAR 0102
ENCODING 258
SWIDTH 540 0
DWIDTH 42 0
BBX 38 69 4 0
BITMAP
03C003C000
03C003C000
03C003C000
03E007C000
01F00F8000
01F81F0000
00FFFF0000
007FFE0000
001FF80000
0007E00000
0000000000
0000000000
0000000000
0001800000
003FFC0000
00FFFF0000
03FFFF8000
07FFFFE000
0FFFFFF000
1FF00FF000
1FC003F800
3F8001FC00
3F0000FC00
7F0000FE00
7E00007E00
7E00007E00
FC00007E00
FC00003F00
FC00003F00
FC00003F00
FC00003F00
FC00003F00
FC00003F00
FC00003F00
FC00003F00
FC00003F00
FC00003F00
FC00003F00
FC00003F00
FC00003F00
FC00003F00
FC00003F00
FC00003F00
FC00003F00
FC00003F00
FC00003F00
FC00003F00
FC00003F00
FC00003F00
FC00003F00
FC00003F00
FC00003F00
FC00003F00
FC00003F00
FC00003F00
FC00003F00
FC00003F00
FC00003F00
FC00003F00
FC00003F00
FC00003F00
FC00003F00
FC00003F00
FC00003F00
FFFFFFFFFC
FFFFFFFFFC
FFFFFFFFFC
FFFFFFFFFC
FFFFFFFFFC
ENDCHAR
STARTCHAR 0103
ENCODING 259
SWIDTH 540 0
DWIDTH 42 0
BBX 38 69 4 0
BITMAP
03C003C000
03C003C000
03C003C000
03E007C000
01F00F8000
01F81F0000
00FFFF0000
007FFE0000
001FF80000
0007E00000
0000000000
0000000000
0000000000
0001800000
003FFC0000
00FFFF0000
03FFFF8000
07FFFFE000
0FFFFFF000
1FF00FF000
1FC003F800
3F8001FC00
3F0000FC00
7F0000FE00
7E00007E00
7E00007E00
FC00007E00
FC00003F00
FC00003F00
FC00003F00
FC00003F00
FC00003F00
FC00003F00
FC00003F00
FC00003F00
FC00003F00
FC00003F00
FC00003F00
FC00003F00
FC00003F00
FC00003F00
FC00003F00
FC00003F00
FC00003F00
FC00003F00
FC00003F00
FC00003F00
FC00003F00
FC00003F00
FC00003F00
FC00003F00
FC00003F00
FC00003F00
FC00003F00
FC00003F00
FC00003F00
FC00003F00
FC00003F00
FC00003F00
FC00003F00
FC00003F00
FC00003F00
FC00003F00
FC00003F00
FFFFFFFFFC
FFFFFFFFFC
FFFFFFFFFC
FFFFFFFFFC
FFFFFFFFFC
ENDCHAR
STARTCHAR 0104
ENCODING 260
SWIDTH 540 0
DWIDTH 42 0
BBX 40 70 4 -14
BITMAP
0001800000
003FFC0000
00FFFF0000
03FFFF8000
07FFFFE000
0FFFFFF000
1FF00FF000
1FC003F800
3F8001FC00
3F0000FC00
7F0000FE00
7E00007E00
7E00007E00
FC00007E00
FC00003F00
FC00003F00
FC00003F00
FC00003F00
FC00003F00
FC00003F00
FC00003F00
FC00003F00
FC00003F00
FC00003F00
FC00003F00
FC00003F00
FC00003F00
FC00003F00
FC00003F00
FC00003F00
FC00003F00
FC00003F00
FC00003F00
FC00003F00
FC00003F00
FC00003F00
FC00003F00
FC00003F00
FC00003F00
FC00003F00
FC00003F00
FC00003F00
FC00003F00
FC00003F00
FC00003F00
FC00003F00
FC00003F00
FC00003F00
FC00003F00
FC00003F00
FC00003F00
FFFFFFFFFC
FFFFFFFFFC
FFFFFFFFFC
FFFFFFFFFC
FFFFFFFFFC
00000003E0
0000000780
0000000F00
0000001E00
0000001C00
0000001C00
0000003C00
0000003C00
0000003C00
0000001E06
0000001F1F
0000000FFE
00000007FC
00000001F0
ENDCHAR
STARTCHAR 0105
ENCODING 261
SWIDTH 540 0
DWIDTH 42 0
BBX 40 70 4 -14
BITMAP
0001800000
003FFC0000
00FFFF0000
03FFFF8000
07FFFFE000
0FFFFFF000
1FF00FF000
1FC003F800
3F8001FC00
3F0000FC00
7F0000FE00
7E00007E00
7E00007E00
FC00007E00
FC00003F00
FC00003F00
FC00003F00
FC00003F00
FC00003F00
FC00003F00
FC00003F00
FC00003F00
FC00003F00
FC00003F00
FC00003F00
FC00003F00
FC00003F00
FC00003F00
FC00003F00
FC00003F00
FC00003F00
FC00003F00
FC00003F00
FC00003F00
FC00003F00
FC00003F00
FC00003F00
FC00003F00
FC00003F00
FC00003F00
FC00003F00
FC00003F00
FC00003F00
FC00003F00
FC00003F00
FC00003F00
FC00003F00
FC00003F00
FC00003F00
FC00003F00
FC00003F00
FFFFFFFFFC
FFFFFFFFFC
FFFFFFFFFC
FFFFFFFFFC
FFFFFFFFFC
00000003E0
0000000780
0000000F00
0000001E00
0000001C00
0000001C00
0000003C00
0000003C00
0000003C00
0000001E06
0000001F1F
0000000FFE
00000007FC
00000001F0
ENDCHAR
STARTCHAR 0106
ENCODING 262
SWIDTH 681 0
DWIDTH 53 0
BBX 50 70 2 -1
BITMAP
00000001F80000
00000001F00000
00000003E00000
00000007C00000
00000007800000
0000000F800000
0000001F000000
0000001E000000
0000003C000000
0000003C000000
00000000000000
00000000000000
00000000000000
0000001F000000
000007FFF80000
00003FFFFF0000
0000FFFFFFC000
0003FFFFFFF000
000FFFFFFFF800
001FFE001FFE00
003FF00003FF00
007FC00001FF80
00FF0000007F80
01FE0000003FC0
03FC0000000F80
07F80000000F00
07F00000000600
0FE00000000000
0FC00000000000
1FC00000000000
1F800000000000
3F800000000000
3F000000000000
3F000000000000
7E000000000000
7E000000000000
7E000000000000
7E000000000000
7E000000000000
7C000000000000
FC000000000000
FC000000000000
FC000000000000
7C000000000000
7C000000000000
7E000000000000
7E000000000000
7E000000000000
7E000000000000
7F000000000000
3F000000000000
3F000000000000
3F800000000000
1F800000000000
1FC00000000000
0FE00000000000
0FE00000000000
07F00000000600
03F80000000F00
03FC0000001F80
01FF0000003FC0
00FF800000FF80
007FE00001FF00
003FF8000FFE00
000FFFE0FFFC00
0007FFFFFFF800
0001FFFFFFE000
00007FFFFF8000
00001FFFFE0000
000001FFE00000
ENDCHAR
STARTCHAR 0107
ENCODING 263
SWIDTH 681 0
DWIDTH 53 0
BBX 50 70 2 -1
BITMAP
00000001F80000
00000001F00000
00000003E00000
00000007C00000
00000007800000
0000000F800000
0000001F000000
0000001E000000
0000003C000000
0000003C000000
00000000000000
00000000000000
00000000000000
0000001F000000
000007FFF80000
00003FFFFF0000
0000FFFFFFC000
0003FFFFFFF000
000FFFFFFFF800
001FFE001FFE00
003FF00003FF00
007FC00001FF80
00FF0000007F80
01FE0000003FC0
03FC0000000F80
07F80000000F00
07F00000000600
0FE00000000000
0FC00000000000
1FC00000000000
1F800000000000
3F800000000000
3F000000000000
3F000000000000
7E000000000000
7E000000000000
7E000000000000
7E000000000000
7E000000000000
7C000000000000
FC000000000000
FC000000000000
FC000000000000
7C000000000000
7C000000000000
7E000000000000
7E000000000000
7E000000000000
7E000000000000
7F000000000000
3F000000000000
3F000000000000
3F800000000000
1F800000000000
1FC00000000000
0FE00000000000
0FE00000000000
07F00000000600
03F80000000F00
03FC0000001F80
01FF0000003FC0
00FF800000FF80
007FE00001FF00
003FF8000FFE00
000FFFE0FFFC00
0007FFFFFFF800
0001FFFFFFE000
00007FFFFF8000
00001FFFFE0000
000001FFE00000
ENDCHAR
STARTCHAR 010A
ENCODING 266
SWIDTH 681 0
DWIDTH 53 0
BBX 50 72 2 -1
BITMAP
0000001F000000
0000003F800000
0000007FC00000
000000FFE00000
000000FFE00000
000000FFE00000
000000FFE00000
000000FFC00000
0000007FC00000
0000003F800000
00000004000000
00000000000000
00000000000000
00000000000000
00000000000000
0000001F000000
000007FFF80000
00003FFFFF0000
0000FFFFFFC000
0003FFFFFFF000
000FFFFFFFF800
001FFE001FFE00
003FF00003FF00
007FC00001FF80
00FF0000007F80
01FE0000003FC0
03FC0000000F80
07F80000000F00
07F00000000600
0FE00000000000
0FC00000000000
1FC00000000000
1F800000000000
3F800000000000
3F000000000000
3F000000000000
7E000000000000
7E000000000000
7E000000000000
7E000000000000
7E000000000000
7C000000000000
FC000000000000
FC000000000000
FC000000000000
7C000000000000
7C000000000000
7E000000000000
7E000000000000
7E000000000000
7E000000000000
7F000000000000
3F000000000000
3F000000000000
3F800000000000
1F800000000000
1FC00000000000
0FE00000000000
0FE00000000000
07F00000000600
03F80000000F00
03FC0000001F80
01FF0000003FC0
00FF800000FF80
007FE00001FF00
003FF8000FFE00
000FFFE0FFFC00
0007FFFFFFF800
0001FFFFFFE000
00007FFFFF8000
00001FFFFE0000
000001FFE00000
ENDCHAR
STARTCHAR 010B
ENCODING 267
SWIDTH 681 0
DWIDTH 53 0
BBX 50 72 2 -1
BITMAP
0000001F000000
0000003F800000
0000007FC00000
000000FFE00000
000000FFE00000
000000FFE00000
000000FFE00000
000000FFC00000
0000007FC00000
0000003F800000
00000004000000
00000000000000
00000000000000
00000000000000
00000000000000
0000001F000000
000007FFF80000
00003FFFFF0000
0000FFFFFFC000
0003FFFFFFF000
000FFFFFFFF800
001FFE001FFE00
003FF00003FF00
007FC00001FF80
00FF0000007F80
01FE0000003FC0
03FC0000000F80
07F80000000F00
07F00000000600
0FE00000000000
0FC00000000000
1FC00000000000
1F800000000000
3F800000000000
3F000000000000
3F000000000000
7E000000000000
7E000000000000
7E000000000000
7E000000000000
7E000000000000
7C000000000000
FC000000000000
FC000000000000
FC000000000000
7C000000000000
7C000000000000
7E000000000000
7E000000000000
7E000000000000
7E000000000000
7F000000000000
3F000000000000
3F000000000000
3F800000000000
1F800000000000
1FC00000000000
0FE00000000000
0FE00000000000
07F00000000600
03F80000000F00
03FC0000001F80
01FF0000003FC0
00FF800000FF80
007FE00001FF00
003FF8000FFE00
000FFFE0FFFC00
0007FFFFFFF800
0001FFFFFFE000
00007FFFFF8000
00001FFFFE0000
000001FFE00000
ENDCHAR
STARTCHAR 010C
ENCODING 268
SWIDTH 681 0
DWIDTH 53 0
BBX 50 71 2 -1
BITMAP
00003E001F0000
00001F003E0000
00000F807C0000
000007C0F80000
000007E1F80000
000003F3F00000
000001FBE00000
000000FFC00000
0000007F800000
0000007F800000
00000000000000
00000000000000
00000000000000
00000000000000
0000001F000000
000007FFF80000
00003FFFFF0000
0000FFFFFFC000
0003FFFFFFF000
000FFFFFFFF800
001FFE001FFE00
003FF00003FF00
007FC00001FF80
00FF0000007F80
01FE0000003FC0
03FC0000000F80
07F80000000F00
07F00000000600
0FE00000000000
0FC00000000000
1FC00000000000
1F800000000000
3F800000000000
3F000000000000
3F000000000000
7E000000000000
7E000000000000
7E000000000000
7E000000000000
7E000000000000
7C000000000000
FC000000000000
FC000000000000
FC000000000000
7C000000000000
7C000000000000
7E000000000000
7E000000000000
7E000000000000
7E000000000000
7F000000000000
3F000000000000
3F000000000000
3F800000000000
1F800000000000
1FC00000000000
0FE00000000000
0FE00000000000
07F00000000600
03F80000000F00
03FC0000001F80
01FF0000003FC0
00FF800000FF80
007FE00001FF00
003FF8000FFE00
000FFFE0FFFC00
0007FFFFFFF800
0001FFFFFFE000
00007FFFFF8000
00001FFFFE0000
000001FFE00000
ENDCHAR
STARTCHAR 010D
ENCODING 269
SWIDTH 681 0
DWIDTH 53 0
BBX 50 71 2 -1
BITMAP
00003E001F0000
00001F003E0000
00000F807C0000
000007C0F80000
000007E1F80000
000003F3F00000
000001FBE00000
000000FFC00000
0000007F800000
0000007F800000
00000000000000
00000000000000
00000000000000
00000000000000
0000001F000000
000007FFF80000
00003FFFFF0000
0000FFFFFFC000
0003FFFFFFF000
000FFFFFFFF800
001FFE001FFE00
003FF00003FF00
007FC00001FF80
00FF0000007F80
01FE0000003FC0
03FC0000000F80
07F80000000F00
07F00000000600
0FE00000000000
0FC00000000000
1FC00000000000
1F800000000000
3F800000000000
3F000000000000
3F000000000000
7E000000000000
7E000000000000
7E000000000000
7E000000000000
7E000000000000
7C000000000000
FC000000000000
FC000000000000
FC000000000000
7C000000000000
7C000000000000
7E000000000000
7E000000000000
7E000000000000
7E000000000000
7F000000000000
3F000000000000
3F000000000000
3F800000000000
1F800000000000
1FC00000000000
0FE00000000000
0FE00000000000
07F00000000600
03F80000000F00
03FC0000001F80
01FF0000003FC0
00FF800000FF80
007FE00001FF00
003FF8000FFE00
000FFFE0FFFC00
0007FFFFFFF800
0001FFFFFFE000
00007FFFFF8000
00001FFFFE0000
000001FFE00000
ENDCHAR
STARTCHAR 010E
ENCODING 270
SWIDTH 630 0
DWIDTH 49 0
BBX 43 70 4 0
BITMAP
03E003F00000
01F003E00000
00F807C00000
00FC0F800000
007E1F000000
003E3F000000
001F7E000000
000FFC000000
000FF8000000
0007F0000000
000000000000
000000000000
000000000000
000000000000
000000000000
000000000000
FFFFFC000000
FFFFFFC00000
FFFFFFF00000
FFFFFFFC0000
FFFFFFFF0000
FC001FFF8000
FC0001FFC000
FC00003FF000
FC00000FF000
FC000007F800
FC000001FC00
FC000000FE00
FC000000FE00
FC0000007F00
FC0000003F00
FC0000003F80
FC0000001F80
FC0000001FC0
FC0000000FC0
FC0000000FC0
FC0000000FC0
FC00000007C0
FC00000007E0
FC00000007E0
FC00000007E0
FC00000007E0
FC00000007E0
FC00000007E0
FC00000007E0
FC00000007E0
FC00000007E0
FC00000007E0
FC0000000FC0
FC0000000FC0
FC0000000FC0
FC0000000FC0
FC0000001F80
FC0000001F80
FC0000003F80
FC0000003F00
FC0000007F00
FC000000FE00
FC000001FE00
FC000003FC00
FC000007F800
FC00001FF000
FC00007FE000
FC0003FFC000
FC07FFFF8000
FFFFFFFE0000
FFFFFFF80000
FFFFFFE00000
FFFFFF000000
FFFFF0000000
ENDCHAR
STARTCHAR 010F
ENCODING 271
SWIDTH 630 0
DWIDTH 49 0
BBX 43 70 4 0
BITMAP
03E003F00000
01F003E00000
00F807C00000
00FC0F800000
007E1F000000
003E3F000000
001F7E000000
000FFC000000
000FF8000000
0007F0000000
000000000000
000000000000
000000000000
000000000000
000000000000
000000000000
FFFFFC000000
FFFFFFC00000
FFFFFFF00000
FFFFFFFC0000
FFFFFFFF0000
FC001FFF8000
FC0001FFC000
FC00003FF000
FC00000FF000
FC000007F800
FC000001FC00
FC000000FE00
FC000000FE00
FC0000007F00
FC0000003F00
FC0000003F80
FC0000001F80
FC0000001FC0
FC0000000FC0
FC0000000FC0
FC0000000FC0
FC00000007C0
FC00000007E0
FC00000007E0
FC00000007E0
FC00000007E0
FC00000007E0
FC00000007E0
FC00000007E0
FC00000007E0
FC00000007E0
FC00000007E0
FC0000000FC0
FC0000000FC0
FC0000000FC0
FC0000000FC0
FC0000001F80
FC0000001F80
FC0000003F80
FC0000003F00
FC0000007F00
FC000000FE00
FC000001FE00
FC000003FC00
FC000007F800
FC00001FF000
FC00007FE000
FC0003FFC000
FC07FFFF8000
FFFFFFFE0000
FFFFFFF80000
FFFFFFE00000
FFFFFF000000
FFFFF0000000
ENDCHAR
STARTCHAR 0110
ENCODING 272
SWIDTH 668 0
DWIDTH 52 0
BBX 48 54 2 0
BITMAP
07FFFFE00000
07FFFFFE0000
07FFFFFF8000
07FFFFFFE000
07FFFFFFF800
07E000FFFC00
07E0000FFF00
07E00001FF80
07E000007FC0
07E000003FC0
07E000000FE0
07E0000007F0
07E0000003F0
07E0000003F8
07E0000001F8
07E0000000FC
07E0000000FC
07E00000007E
07E00000007E
07E00000007E
07E00000007E
07E00000003F
07E00000003F
07E00000003F
FFFFFFC0003F
FFFFFFC0003F
FFFFFFC0003F
FFFFFFC0003F
FFFFFFC0003F
07E00000003F
07E00000003F
07E00000003F
07E00000003F
07E00000007E
07E00000007E
07E00000007E
07E0000000FE
07E0000000FC
07E0000001FC
07E0000001F8
07E0000003F8
07E0000007F0
07E000000FF0
07E000001FE0
07E000003FC0
07E00000FF80
07E00003FF00
07E0001FFE00
07E01FFFFC00
07FFFFFFF000
07FFFFFFE000
07FFFFFF0000
07FFFFFC0000
07FFFF800000
ENDCHAR
STARTCHAR 0111
ENCODING 273
SWIDTH 668 0
DWIDTH 52 0
BBX 48 54 2 0
BITMAP
07FFFFE00000
07FFFFFE0000
07FFFFFF8000
07FFFFFFE000
07FFFFFFF800
07E000FFFC00
07E0000FFF00
07E00001FF80
07E000007FC0
07E000003FC0
07E000000FE0
07E0000007F0
07E0000003F0
07E0000003F8
07E0000001F8
07E0000000FC
07E0000000FC
07E00000007E
07E00000007E
07E00000007E
07E00000007E
07E00000003F
07E00000003F
07E00000003F
FFFFFFC0003F
FFFFFFC0003F
FFFFFFC0003F
FFFFFFC0003F
FFFFFFC0003F
07E00000003F
07E00000003F
07E00000003F
07E00000003F
07E00000007E
07E00000007E
07E00000007E
07E0000000FE
07E0000000FC
07E0000001FC
07E0000001F8
07E0000003F8
07E0000007F0
07E000000FF0
07E000001FE0
07E000003FC0
07E00000FF80
07E00003FF00
07E0001FFE00
07E01FFFFC00
07FFFFFFF000
07FFFFFFE000
07FFFFFF0000
07FFFFFC0000
07FFFF800000
ENDCHAR
STARTCHAR 0112
ENCODING 274
SWIDTH 475 0
DWIDTH 37 0
BBX 36 67 2 0
BITMAP
07FFFFE000
07FFFFE000
07FFFFE000
07FFFFE000
07FFFFE000
0000000000
0000000000
0000000000
0000000000
0000000000
0000000000
0000000000
0000000000
07FFFFE000
07FFFFE000
07FFFFE000
07FFFFE000
07FFFFE000
07E0000000
07E0000000
07E0000000
07E0000000
07E0000000
07E0000000
07E0000000
07E0000000
07E0000000
07E0000000
07E0000000
07E0000000
07E0000000
07E0000000
07E0000000
07E0000000
07E0000000
07E0000000
07E0000000
FFFFFFFC00
FFFFFFFC00
FFFFFFFC00
FFFFFFFC00
FFFFFFFC00
07E0000000
07E0000000
07E0000000
07E0000000
07E0000000
07E0000000
07E0000000
07E0000000
07E0000000
07E0000000
07E0000000
07E0000000
07E0000000
07E0000000
07E0000000
07E0000000
07E0000000
07E0000000
07E0000000
07E0000000
07FFFFFFF0
07FFFFFFF0
07FFFFFFF0
07FFFFFFF0
07FFFFFFF0
ENDCHAR
STARTCHAR 0113
ENCODING 275
SWIDTH 475 0
DWIDTH 37 0
BBX 36 67 2 0
BITMAP
07FFFFE000
07FFFFE000
07FFFFE000
07FFFFE000
07FFFFE000
0000000000
0000000000
0000000000
0000000000
0000000000
0000000000
0000000000
0000000000
07FFFFE000
07FFFFE000
07FFFFE000
07FFFFE000
07FFFFE000
07E0000000
07E0000000
07E0000000
07E0000000
07E0000000
07E0000000
07E0000000
07E0000000
07E0000000
07E0000000
07E0000000
07E0000000
07E0000000
07E0000000
07E0000000
07E0000000
07E0000000
07E0000000
07E0000000
FFFFFFFC00
FFFFFFFC00
FFFFFFFC00
FFFFFFFC00
FFFFFFFC00
07E0000000
07E0000000
07E0000000
07E0000000
07E0000000
07E0000000
07E0000000
07E0000000
07E0000000
07E0000000
07E0000000
07E0000000
07E0000000
07E0000000
07E0000000
07E0000000
07E0000000
07E0000000
07E0000000
07E0000000
07FFFFFFF0
07FFFFFFF0
07FFFFFFF0
07FFFFFFF0
07FFFFFFF0
ENDCHAR
STARTCHAR 0116
ENCODING 278
SWIDTH 475 0
DWIDTH 37 0
BBX 36 71 2 0
BITMAP
0003E00000
0007F00000
000FF80000
001FF80000
001FFC0000
001FFC0000
001FFC0000
001FF80000
000FF80000
0007F00000
0000800000
0000000000
0000000000
0000000000
0000000000
0000000000
0000000000
07FFFFE000
07FFFFE000
07FFFFE000
07FFFFE000
07FFFFE000
07E0000000
07E0000000
07E0000000
07E0000000
07E0000000
07E0000000
07E0000000
07E0000000
07E0000000
07E0000000
07E0000000
07E0000000
07E0000000
07E0000000
07E0000000
07E0000000
07E0000000
07E0000000
07E0000000
FFFFFFFC00
FFFFFFFC00
FFFFFFFC00
FFFFFFFC00
FFFFFFFC00
07E0000000
07E0000000
07E0000000
07E0000000
07E0000000
07E0000000
07E0000000
07E0000000
07E0000000
07E0000000
07E0000000
07E0000000
07E0000000
07E0000000
07E0000000
07E0000000
07E0000000
07E0000000
07E0000000
07E0000000
07FFFFFFF0
07FFFFFFF0
07FFFFFFF0
07FFFFFFF0
07FFFFFFF0
ENDCHAR
STARTCHAR 0117
ENCODING 279
SWIDTH 475 0
DWIDTH 37 0
BBX 36 71 2 0
BITMAP
0003E00000
0007F00000
000FF80000
001FF80000
001FFC0000
001FFC0000
001FFC0000
001FF80000
000FF80000
0007F00000
0000800000
0000000000
0000000000
0000000000
0000000000
0000000000
0000000000
07FFFFE000
07FFFFE000
07FFFFE000
07FFFFE000
07FFFFE000
07E0000000
07E0000000
07E0000000
07E0000000
07E0000000
07E0000000
07E0000000
07E0000000
07E0000000
07E0000000
07E0000000
07E0000000
07E0000000
07E0000000
07E0000000
07E0000000
07E0000000
07E0000000
07E0000000
FFFFFFFC00
FFFFFFFC00
FFFFFFFC00
FFFFFFFC00
FFFFFFFC00
07E0000000
07E0000000
07E0000000
07E0000000
07E0000000
07E0000000
07E0000000
07E0000000
07E0000000
07E0000000
07E0000000
07E0000000
07E0000000
07E0000000
07E0000000
07E0000000
07E0000000
07E0000000
07E0000000
07E0000000
07FFFFFFF0
07FFFFFFF0
07FFFFFFF0
07FFFFFFF0
07FFFFFFF0
ENDCHAR
STARTCHAR 0118
ENCODING 280
SWIDTH 475 0
DWIDTH 37 0
BBX 39 68 2 -14
BITMAP
07FFFFE000
07FFFFE000
07FFFFE000
07FFFFE000
07FFFFE000
07E0000000
07E0000000
07E0000000
07E0000000
07E0000000
07E0000000
07E0000000
07E0000000
07E0000000
07E0000000
07E0000000
07E0000000
07E0000000
07E0000000
07E0000000
07E0000000
07E0000000
07E0000000
07E0000000
FFFFFFFC00
FFFFFFFC00
FFFFFFFC00
FFFFFFFC00
FFFFFFFC00
07E0000000
07E0000000
07E0000000
07E0000000
07E0000000
07E0000000
07E0000000
07E0000000
07E0000000
07E0000000
07E0000000
07E0000000
07E0000000
07E0000000
07E0000000
07E0000000
07E0000000
07E0000000
07E0000000
07E0000000
07FFFFFFF0
07FFFFFFF0
07FFFFFFF0
07FFFFFFF0
07FFFFFFF0
00000007C0
0000001F00
0000003C00
0000003800
0000007800
0000007000
0000007000
0000007000
0000007000
000000781C
0000007C7E
0000003FFC
0000001FF8
00000007C0
ENDCHAR
STARTCHAR 0119
ENCODING 281
SWIDTH 475 0
DWIDTH 37 0
BBX 39 68 2 -14
BITMAP
07FFFFE000
07FFFFE000
07FFFFE000
07FFFFE000
07FFFFE000
07E0000000
07E0000000
07E0000000
07E0000000
07E0000000
07E0000000
07E0000000
07E0000000
07E0000000
07E0000000
07E0000000
07E0000000
07E0000000
07E0000000
07E0000000
07E0000000
07E0000000
07E0000000
07E0000000
FFFFFFFC00
FFFFFFFC00
FFFFFFFC00
FFFFFFFC00
FFFFFFFC00
07E0000000
07E0000000
07E0000000
07E0000000
07E0000000
07E0000000
07E0000000
07E0000000
07E0000000
07E0000000
07E0000000
07E0000000
07E0000000
07E0000000
07E0000000
07E0000000
07E0000000
07E0000000
07E0000000
07E0000000
07FFFFFFF0
07FFFFFFF0
07FFFFFFF0
07FFFFFFF0
07FFFFFFF0
00000007C0
0000001F00
0000003C00
0000003800
0000007800
0000007000
0000007000
0000007000
0000007000
000000781C
0000007C7E
0000003FFC
0000001FF8
00000007C0
ENDCHAR
STARTCHAR 011A
ENCODING 282
SWIDTH 475 0
DWIDTH 37 0
BBX 36 70 2 0
BITMAP
07C003E000
03E007C000
01F00F8000
00F81F0000
00FC3F0000
007E7E0000
003FFC0000
001FF80000
000FF00000
000FF00000
0000000000
0000000000
0000000000
0000000000
0000000000
0000000000
07FFFFE000
07FFFFE000
07FFFFE000
07FFFFE000
07FFFFE000
07E0000000
07E0000000
07E0000000
07E0000000
07E0000000
07E0000000
07E0000000
07E0000000
07E0000000
07E0000000
07E0000000
07E0000000
07E0000000
07E0000000
07E0000000
07E0000000
07E0000000
07E0000000
07E0000000
FFFFFFFC00
FFFFFFFC00
FFFFFFFC00
FFFFFFFC00
FFFFFFFC00
07E0000000
07E0000000
07E0000000
07E0000000
07E0000000
07E0000000
07E0000000
07E0000000
07E0000000
07E0000000
07E0000000
07E0000000
07E0000000
07E0000000
07E0000000
07E0000000
07E0000000
07E0000000
07E0000000
07E0000000
07FFFFFFF0
07FFFFFFF0
07FFFFFFF0
07FFFFFFF0
07FFFFFFF0
ENDCHAR
STARTCHAR 011B
ENCODING 283
SWIDTH 475 0
DWIDTH 37 0
BBX 36 70 2 0
BITMAP
07C003E000
03E007C000
01F00F8000
00F81F0000
00FC3F0000
007E7E0000
003FFC0000
001FF80000
000FF00000
000FF00000
0000000000
0000000000
0000000000
0000000000
0000000000
0000000000
07FFFFE000
07FFFFE000
07FFFFE000
07FFFFE000
07FFFFE000
07E0000000
07E0000000
07E0000000
07E0000000
07E0000000
07E0000000
07E0000000
07E0000000
07E0000000
07E0000000
07E0000000
07E0000000
07E0000000
07E0000000
07E0000000
07E0000000
07E0000000
07E0000000
07E0000000
FFFFFFFC00
FFFFFFFC00
FFFFFFFC00
FFFFFFFC00
FFFFFFFC00
07E0000000
07E0000000
07E0000000
07E0000000
07E0000000
07E0000000
07E0000000
07E0000000
07E0000000
07E0000000
07E0000000
07E0000000
07E0000000
07E0000000
07E0000000
07E0000000
07E0000000
07E0000000
07E0000000
07E0000000
07FFFFFFF0
07FFFFFFF0
07FFFFFFF0
07FFFFFFF0
07FFFFFFF0
ENDCHAR
STARTCHAR 011E
ENCODING 286
SWIDTH 822 0
DWIDTH 64 0
BBX 62 70 2 -1
BITMAP
00001E001E000000
00001E001E000000
00001E001E000000
00000F003E000000
00000F807C000000
000007C0FC000000
000007FFF8000000
000001FFF0000000
000000FFC0000000
0000001F00000000
0000000000000000
0000000000000000
0000000000000000
0000001E00000000
000007FFFC000000
00003FFFFF000000
0000FFFFFFE00000
0003FFFFFFF00000
0007FFFFFFFC0000
001FFF001FFE0000
003FF00003FF0000
007FC00000FF8000
00FF8000007FC000
01FE0000001FE000
03FC0000000F8000
07F8000000070000
07F0000000020000
0FE0000000000000
0FC0000000000000
1FC0000000000000
1F80000000000000
3F80000000000000
3F00000000000000
3F00000000000000
7E00000000000000
7E00000000000000
7E00000000000000
7E00000000000000
7E00000000000000
7C00001FFFFFFFFC
FC00001FFFFFFFFC
FC00001FFFFFFFFC
FC00001FFFFFFFFC
7C00001FFFFFFFFC
7C00000000001F80
7E00000000001F80
7E00000000001F80
7E00000000001F80
7E00000000001F80
7F00000000003F80
3F00000000003F00
3F00000000003F00
3F80000000007F00
1F80000000007E00
1FC000000000FE00
0FE000000001FC00
0FE000000001FC00
07F000000003F800
03F800000007F000
01FC0000000FF000
01FF0000001FE000
00FF8000007FC000
007FE00001FF8000
001FFC0007FF0000
000FFFE0FFFE0000
0007FFFFFFF80000
0001FFFFFFF00000
00007FFFFFC00000
00001FFFFE000000
000001FFF0000000
ENDCHAR
STARTCHAR 011F
ENCODING 287
SWIDTH 822 0
DWIDTH 64 0
BBX 62 70 2 -1
BITMAP
00001E001E000000
00001E001E000000
00001E001E000000
00000F003E000000
00000F807C000000
000007C0FC000000
000007FFF8000000
000001FFF0000000
000000FFC0000000
0000001F00000000
0000000000000000
0000000000000000
0000000000000000
0000001E00000000
000007FFFC000000
00003FFFFF000000
0000FFFFFFE00000
0003FFFFFFF00000
0007FFFFFFFC0000
001FFF001FFE0000
003FF00003FF0000
007FC00000FF8000
00FF8000007FC000
01FE0000001FE000
03FC0000000F8000
07F8000000070000
07F0000000020000
0FE0000000000000
0FC0000000000000
1FC0000000000000
1F80000000000000
3F80000000000000
3F00000000000000
3F00000000000000
7E00000000000000
7E00000000000000
7E00000000000000
7E00000000000000
7E00000000000000
7C00001FFFFFFFFC
FC00001FFFFFFFFC
FC00001FFFFFFFFC
FC00001FFFFFFFFC
7C00001FFFFFFFFC
7C00000000001F80
7E00000000001F80
7E00000000001F80
7E00000000001F80
7E00000000001F80
7F00000000003F80
3F00000000003F00
3F00000000003F00
3F80000000007F00
1F80000000007E00
1FC000000000FE00
0FE000000001FC00
0FE000000001FC00
07F000000003F800
03F800000007F000
01FC0000000FF000
01FF0000001FE000
00FF8000007FC000
007FE00001FF8000
001FFC0007FF0000
000FFFE0FFFE0000
0007FFFFFFF80000
0001FFFFFFF00000
00007FFFFFC00000
00001FFFFE000000
000001FFF0000000
ENDCHAR
STARTCHAR 0120
ENCODING 288
SWIDTH 822 0
DWIDTH 64 0
BBX 62 72 2 -1
BITMAP
0000001F00000000
0000003F80000000
0000007FC0000000
000000FFE0000000
000000FFE0000000
000000FFE0000000
000000FFE0000000
0000007FE0000000
0000007FC0000000
0000003F80000000
0000000400000000
0000000000000000
0000000000000000
0000000000000000
0000000000000000
0000001E00000000
000007FFFC000000
00003FFFFF000000
0000FFFFFFE00000
0003FFFFFFF00000
0007FFFFFFFC0000
001FFF001FFE0000
003FF00003FF0000
007FC00000FF8000
00FF8000007FC000
01FE0000001FE000
03FC0000000F8000
07F8000000070000
07F0000000020000
0FE0000000000000
0FC0000000000000
1FC0000000000000
1F80000000000000
3F80000000000000
3F00000000000000
3F00000000000000
7E00000000000000
7E00000000000000
7E00000000000000
7E00000000000000
7E00000000000000
7C00001FFFFFFFFC
FC00001FFFFFFFFC
FC00001FFFFFFFFC
FC00001FFFFFFFFC
7C00001FFFFFFFFC
7C00000000001F80
7E00000000001F80
7E00000000001F80
7E00000000001F80
7E00000000001F80
7F00000000003F80
3F00000000003F00
3F00000000003F00
3F80000000007F00
1F80000000007E00
1FC000000000FE00
0FE000000001FC00
0FE000000001FC00
07F000000003F800
03F800000007F000
01FC0000000FF000
01FF0000001FE000
00FF8000007FC000
007FE00001FF8000
001FFC0007FF0000
000FFFE0FFFE0000
0007FFFFFFF80000
0001FFFFFFF00000
00007FFFFFC00000
00001FFFFE000000
000001FFF0000000
ENDCHAR
STARTCHAR 0121
ENCODING 289
SWIDTH 822 0
DWIDTH 64 0
BBX 62 72 2 -1
BITMAP
0000001F00000000
0000003F80000000
0000007FC0000000
000000FFE0000000
000000FFE0000000
000000FFE0000000
000000FFE0000000
0000007FE0000000
0000007FC0000000
0000003F80000000
0000000400000000
0000000000000000
0000000000000000
0000000000000000
0000000000000000
0000001E00000000
000007FFFC000000
00003FFFFF000000
0000FFFFFFE00000
0003FFFFFFF00000
0007FFFFFFFC0000
001FFF001FFE0000
003FF00003FF0000
007FC00000FF8000
00FF8000007FC000
01FE0000001FE000
03FC0000000F8000
07F8000000070000
07F0000000020000
0FE0000000000000
0FC0000000000000
1FC0000000000000
1F80000000000000
3F80000000000000
3F00000000000000
3F00000000000000
7E00000000000000
7E00000000000000
7E00000000000000
7E00000000000000
7E00000000000000
7C00001FFFFFFFFC
FC00001FFFFFFFFC
FC00001FFFFFFFFC
FC00001FFFFFFFFC
7C00001FFFFFFFFC
7C00000000001F80
7E00000000001F80
7E00000000001F80
7E00000000001F80
7E00000000001F80
7F00000000003F80
3F00000000003F00
3F00000000003F00
3F80000000007F00
1F80000000007E00
1FC000000000FE00
0FE000000001FC00
0FE000000001FC00
07F000000003F800
03F800000007F000
01FC0000000FF000
01FF0000001FE000
00FF8000007FC000
007FE00001FF8000
001FFC0007FF0000
000FFFE0FFFE0000
0007FFFFFFF80000
0001FFFFFFF00000
00007FFFFFC00000
00001FFFFE000000
000001FFF0000000
ENDCHAR
STARTCHAR 0124
ENCODING 292
SWIDTH 540 0
DWIDTH 42 0
BBX 37 69 2 0
BITMAP
00007F8000
0000FFC000
0001FFC000
0001F3E000
0003E3F000
0007C1F800
000FC0FC00
001F807C00
001F003E00
003E001F00
0000000000
0000000000
0000000000
0000000000
0000000000
07E00001F8
07E00001F8
07E00001F8
07E00001F8
07E00001F8
07E00001F8
07E00001F8
07E00001F8
07E00001F8
07E00001F8
07E00001F8
07E00001F8
07E00001F8
07E00001F8
07E00001F8
07E00001F8
07E00001F8
07E00001F8
07E00001F8
07E00001F8
07E00001F8
FFFFFFFFF8
FFFFFFFFF8
FFFFFFFFF8
FFFFFFFFF8
FFFFFFFFF8
FFFFFFFFF8
07E00001F8
07E00001F8
07E00001F8
07E00001F8
07E00001F8
07E00001F8
07E00001F8
07E00001F8
07E00001F8
07E00001F8
07E00001F8
07E00001F8
07E00001F8
07E00001F8
07E00001F8
07E00001F8
07E00001F8
07E00001F8
07E00001F8
07E00001F8
07E00001F8
07E00001F8
07E00001F8
07E00001F8
07E00001F8
07E00001F8
07E00001F8
ENDCHAR
STARTCHAR 0125
ENCODING 293
SWIDTH 540 0
DWIDTH 42 0
BBX 37 69 2 0
BITMAP
00007F8000
0000FFC000
0001FFC000
0001F3E000
0003E3F000
0007C1F800
000FC0FC00
001F807C00
001F003E00
003E001F00
0000000000
0000000000
0000000000
0000000000
0000000000
07E00001F8
07E00001F8
07E00001F8
07E00001F8
07E00001F8
07E00001F8
07E00001F8
07E00001F8
07E00001F8
07E00001F8
07E00001F8
07E00001F8
07E00001F8
07E00001F8
07E00001F8
07E00001F8
07E00001F8
07E00001F8
07E00001F8
07E00001F8
07E00001F8
FFFFFFFFF8
FFFFFFFFF8
FFFFFFFFF8
FFFFFFFFF8
FFFFFFFFF8
FFFFFFFFF8
07E00001F8
07E00001F8
07E00001F8
07E00001F8
07E00001F8
07E00001F8
07E00001F8
07E00001F8
07E00001F8
07E00001F8
07E00001F8
07E00001F8
07E00001F8
07E00001F8
07E00001F8
07E00001F8
07E00001F8
07E00001F8
07E00001F8
07E00001F8
07E00001F8
07E00001F8
07E00001F8
07E00001F8
07E00001F8
07E00001F8
07E00001F8
ENDCHAR
STARTCHAR 0128
ENCODING 296
SWIDTH 167 0
DWIDTH 13 0
BBX 19 47 -4 0
BITMAP
7FC000
FFFFE0
FFFFE0
FFFFE0
803FE0
000000
000000
000000
000000
000000
000000
000000
000000
000000
00FC00
00FC00
00FC00
00FC00
00FC00
00FC00
00FC00
00FC00
00FC00
00FC00
00FC00
00FC00
00FC00
00FC00
00FC00
00FC00
00FC00
00FC00
00FC00
00FC00
00FC00
00FC00
00FC00
00FC00
00FC00
00FC00
00FC00
00FC00
00FC00
00FC00
00FC00
00FC00
00FC00
ENDCHAR
STARTCHAR 0129
ENCODING 297
SWIDTH 167 0
DWIDTH 13 0
BBX 19 47 -4 0
BITMAP
7FC000
FFFFE0
FFFFE0
FFFFE0
803FE0
000000
000000
000000
000000
000000
000000
000000
000000
000000
00FC00
00FC00
00FC00
00FC00
00FC00
00FC00
00FC00
00FC00
00FC00
00FC00
00FC00
00FC00
00FC00
00FC00
00FC00
00FC00
00FC00
00FC00
00FC00
00FC00
00FC00
00FC00
00FC00
00FC00
00FC00
00FC00
00FC00
00FC00
00FC00
00FC00
00FC00
00FC00
00FC00
ENDCHAR
STARTCHAR 012A
ENCODING 298
SWIDTH 167 0
DWIDTH 13 0
BBX 22 46 -4 0
BITMAP
FFFFFC
FFFFFC
FFFFFC
FFFFFC
FFFFFC
000000
000000
000000
000000
000000
000000
000000
000000
00FC00
00FC00
00FC00
00FC00
00FC00
00FC00
00FC00
00FC00
00FC00
00FC00
00FC00
00FC00
00FC00
00FC00
00FC00
00FC00
00FC00
00FC00
00FC00
00FC00
00FC00
00FC00
00FC00
00FC00
00FC00
00FC00
00FC00
00FC00
00FC00
00FC00
00FC00
00FC00
00FC00
ENDCHAR
STARTCHAR 012B
ENCODING 299
SWIDTH 167 0
DWIDTH 13 0
BBX 22 46 -4 0
BITMAP
FFFFFC
FFFFFC
FFFFFC
FFFFFC
FFFFFC
000000
000000
000000
000000
000000
000000
000000
000000
00FC00
00FC00
00FC00
00FC00
00FC00
00FC00
00FC00
00FC00
00FC00
00FC00
00FC00
00FC00
00FC00
00FC00
00FC00
00FC00
00FC00
00FC00
00FC00
00FC00
00FC00
00FC00
00FC00
00FC00
00FC00
00FC00
00FC00
00FC00
00FC00
00FC00
00FC00
00FC00
00FC00
ENDCHAR
STARTCHAR 012E
ENCODING 302
SWIDTH 167 0
DWIDTH 13 0
BBX 19 76 -3 -14
BITMAP
004000
004000
004000
004000
00E000
00E000
00E000
F1F0E0
7FFFC0
1FFF00
0FFE00
03F800
03F800
07FC00
07BC00
071C00
0E0E00
080200
000000
000000
000000
000000
000000
000000
000000
000000
000000
000000
000000
01F000
01F000
01F000
01F000
01F000
01F000
01F000
01F000
01F000
01F000
01F000
01F000
01F000
01F000
01F000
01F000
01F000
01F000
01F000
01F000
01F000
01F000
01F000
01F000
01F000
01F000
01F000
01F000
01F000
01F000
01F000
01F000
01F000
07C000
0F0000
1E0000
3C0000
380000
780000
780000
780000
780000
3C0C00
3E7E00
1FFC00
0FF800
03E000
ENDCHAR
STARTCHAR 012F
ENCODING 303
SWIDTH 167 0
DWIDTH 13 0
BBX 19 76 -3 -14
BITMAP
004000
004000
004000
004000
00E000
00E000
00E000
F1F0E0
7FFFC0
1FFF00
0FFE00
03F800
03F800
07FC00
07BC00
071C00
0E0E00
080200
000000
000000
000000
000000
000000
000000
000000
000000
000000
000000
000000
01F000
01F000
01F000
01F000
01F000
01F000
01F000
01F000
01F000
01F000
01F000
01F000
01F000
01F000
01F000
01F000
01F000
01F000
01F000
01F000
01F000
01F000
01F000
01F000
01F000
01F000
01F000
01F000
01F000
01F000
01F000
01F000
01F000
07C000
0F0000
1E0000
3C0000
380000
780000
780000
780000
780000
3C0C00
3E7E00
1FFC00
0FF800
03E000
ENDCHAR
STARTCHAR 0130
ENCODING 304
SWIDTH 167 0
DWIDTH 13 0
BBX 11 50 2 0
BITMAP
1F00
3F80
7FC0
FFC0
FFE0
FFE0
FFE0
FFC0
7FC0
3F80
0400
0000
0000
0000
0000
0000
0000
3F00
3F00
3F00
3F00
3F00
3F00
3F00
3F00
3F00
3F00
3F00
3F00
3F00
3F00
3F00
3F00
3F00
3F00
3F00
3F00
3F00
3F00
3F00
3F00
3F00
3F00
3F00
3F00
3F00
3F00
3F00
3F00
3F00
ENDCHAR
STARTCHAR 0139
ENCODING 313
SWIDTH 424 0
DWIDTH 33 0
BBX 28 69 3 0
BITMAP
03E00000
07E00000
07C00000
0F800000
0F000000
1F000000
3E000000
3C000000
78000000
F8000000
00000000
00000000
00000000
00000000
00000000
7E000000
7E000000
7E000000
7E000000
7E000000
7E000000
7E000000
7E000000
7E000000
7E000000
7E000000
7E000000
7E000000
7E000000
7E000000
7E000000
7E000000
7E000000
7E000000
7E000000
7E000000
7E000000
7E000000
7E000000
7E000000
7E000000
7E000000
7E000000
7E000000
7E000000
7E000000
7E000000
7E000000
7E000000
7E000000
7E000000
7E000000
7E000000
7E000000
7E000000
7E000000
7E000000
7E000000
7E000000
7E000000
7E000000
7E000000
7E000000
7E000000
7FFFFFF0
7FFFFFF0
7FFFFFF0
7FFFFFF0
7FFFFFF0
ENDCHAR
STARTCHAR 013A
ENCODING 314
SWIDTH 424 0
DWIDTH 33 0
BBX 28 69 3 0
BITMAP
03E00000
07E00000
07C00000
0F800000
0F000000
1F000000
3E000000
3C000000
78000000
F8000000
00000000
00000000
00000000
00000000
00000000
7E000000
7E000000
7E000000
7E000000
7E000000
7E000000
7E000000
7E000000
7E000000
7E000000
7E000000
7E000000
7E000000
7E000000
7E000000
7E000000
7E000000
7E000000
7E000000
7E000000
7E000000
7E000000
7E000000
7E000000
7E000000
7E000000
7E000000
7E000000
7E000000
7E000000
7E000000
7E000000
7E000000
7E000000
7E000000
7E000000
7E000000
7E000000
7E000000
7E000000
7E000000
7E000000
7E000000
7E000000
7E000000
7E000000
7E000000
7E000000
7E000000
7FFFFFF0
7FFFFFF0
7FFFFFF0
7FFFFFF0
7FFFFFF0
ENDCHAR
STARTCHAR 013D
ENCODING 317
SWIDTH 424 0
DWIDTH 33 0
BBX 35 70 -4 0
BITMAP
F8007C0000
7C00F80000
3E01F00000
1F03E00000
1F87E00000
0FCFC00000
07FF800000
03FF000000
01FE000000
01FE000000
0000000000
0000000000
0000000000
0000000000
0000000000
0000000000
00FC000000
00FC000000
00FC000000
00FC000000
00FC000000
00FC000000
00FC000000
00FC000000
00FC000000
00FC000000
00FC000000
00FC000000
00FC000000
00FC000000
00FC000000
00FC000000
00FC000000
00FC000000
00FC000000
00FC000000
00FC000000
00FC000000
00FC000000
00FC000000
00FC000000
00FC000000
00FC000000
00FC000000
00FC000000
00FC000000
00FC000000
00FC000000
00FC000000
00FC000000
00FC000000
00FC000000
00FC000000
00FC000000
00FC000000
00FC000000
00FC000000
00FC000000
00FC000000
00FC000000
00FC000000
00FC000000
00FC000000
00FC000000
00FC000000
00FFFFFFE0
00FFFFFFE0
00FFFFFFE0
00FFFFFFE0
00FFFFFFE0
ENDCHAR
STARTCHAR 013E
ENCODING 318
SWIDTH 424 0
DWIDTH 33 0
BBX 35 70 -4 0
BITMAP
F8007C0000
7C00F80000
3E01F00000
1F03E00000
1F87E00000
0FCFC00000
07FF800000
03FF000000
01FE000000
01FE000000
0000000000
0000000000
0000000000
0000000000
0000000000
0000000000
00FC000000
00FC000000
00FC000000
00FC000000
00FC000000
00FC000000
00FC000000
00FC000000
00FC000000
00FC000000
00FC000000
00FC000000
00FC000000
00FC000000
00FC000000
00FC000000
00FC000000
00FC000000
00FC000000
00FC000000
00FC000000
00FC000000
00FC000000
00FC000000
00FC000000
00FC000000
00FC000000
00FC000000
00FC000000
00FC000000
00FC000000
00FC000000
00FC000000
00FC000000
00FC000000
00FC000000
00FC000000
00FC000000
00FC000000
00FC000000
00FC000000
00FC000000
00FC000000
00FC000000
00FC000000
00FC000000
00FC000000
00FC000000
00FC000000
00FFFFFFE0
00FFFFFFE0
00FFFFFFE0
00FFFFFFE0
00FFFFFFE0
ENDCHAR
STARTCHAR 0141
ENCODING 321
SWIDTH 462 0
DWIDTH 36 0
BBX 34 54 1 0
BITMAP
01F0000000
01F0000000
01F0000000
01F0000000
01F0000000
01F0000000
01F0000000
01F0000000
01F0000000
01F0000000
01F0000000
01F0000000
01F0000000
01F0000000
01F0000000
01F0000000
01F0000000
01F0000000
01F0000000
01F0180000
01F07C0000
01F1FC0000
01F3FE0000
01FFF80000
01FFE00000
01FF800000
03FE000000
0FF8000000
3FF0000000
FFF0000000
FFF0000000
FDF0000000
71F0000000
41F0000000
01F0000000
01F0000000
01F0000000
01F0000000
01F0000000
01F0000000
01F0000000
01F0000000
01F0000000
01F0000000
01F0000000
01F0000000
01F0000000
01F0000000
01F0000000
01FFFFFFC0
01FFFFFFC0
01FFFFFFC0
01FFFFFFC0
01FFFFFFC0
ENDCHAR
STARTCHAR 0142
ENCODING 322
SWIDTH 462 0
DWIDTH 36 0
BBX 34 54 1 0
BITMAP
01F0000000
01F0000000
01F0000000
01F0000000
01F0000000
01F0000000
01F0000000
01F0000000
01F0000000
01F0000000
01F0000000
01F0000000
01F0000000
01F0000000
01F0000000
01F0000000
01F0000000
01F0000000
01F0000000
01F0180000
01F07C0000
01F1FC0000
01F3FE0000
01FFF80000
01FFE00000
01FF800000
03FE000000
0FF8000000
3FF0000000
FFF0000000
FFF0000000
FDF0000000
71F0000000
41F0000000
01F0000000
01F0000000
01F0000000
01F0000000
01F0000000
01F0000000
01F0000000
01F0000000
01F0000000
01F0000000
01F0000000
01F0000000
01F0000000
01F0000000
01F0000000
01FFFFFFC0
01FFFFFFC0
01FFFFFFC0
01FFFFFFC0
01FFFFFFC0
ENDCHAR
STARTCHAR 0143
ENCODING 323
SWIDTH 501 0
DWIDTH 39 0
BBX 34 69 1 0
BITMAP
000007C000
00000F8000
00001F0000
00001F0000
00003E0000
00007C0000
0000780000
0000F80000
0000F00000
0001E00000
0000000000
0000000000
0000000000
1000000000
3800000000
7E00000FC0
7F00000FC0
FF80000FC0
7FC0000FC0
1FF0000FC0
1FF8000FC0
1FFC000FC0
1FFF000FC0
1FFF800FC0
1F7FC00FC0
1F3FE00FC0
1F0FF80FC0
1F07FC0FC0
1F03FE0FC0
1F00FF8FC0
1F007FCFC0
1F003FEFC0
1F001FFFC0
1F0007FFC0
1F0003FFC0
1F0001FFC0
1F0000FFC0
1F00003FC0
1F00001FC0
1F00000FC0
1F00000FC0
1F00000FC0
1F00000FC0
1F00000FC0
1F00000FC0
1F00000FC0
1F00000FC0
1F00000FC0
1F00000FC0
1F00000FC0
1F00000FC0
1F00000FC0
1F00000FC0
1F00000FC0
1F00000FC0
1F00000FC0
1F00000FC0
1F00000FC0
1F00000FC0
1F00000FC0
1F00000FC0
1F00000FC0
1F00000FC0
1F00000FC0
1F00000FC0
1F00000FC0
1F00000FC0
1F00000FC0
1F00000FC0
ENDCHAR
STARTCHAR 0144
ENCODING 324
SWIDTH 501 0
DWIDTH 39 0
BBX 34 69 1 0
BITMAP
000007C000
00000F8000
00001F0000
00001F0000
00003E0000
00007C0000
0000780000
0000F80000
0000F00000
0001E00000
0000000000
0000000000
0000000000
1000000000
3800000000
7E00000FC0
7F00000FC0
FF80000FC0
7FC0000FC0
1FF0000FC0
1FF8000FC0
1FFC000FC0
1FFF000FC0
1FFF800FC0
1F7FC00FC0
1F3FE00FC0
1F0FF80FC0
1F07FC0FC0
1F03FE0FC0
1F00FF8FC0
1F007FCFC0
1F003FEFC0
1F001FFFC0
1F0007FFC0
1F0003FFC0
1F0001FFC0
1F0000FFC0
1F00003FC0
1F00001FC0
1F00000FC0
1F00000FC0
1F00000FC0
1F00000FC0
1F00000FC0
1F00000FC0
1F00000FC0
1F00000FC0
1F00000FC0
1F00000FC0
1F00000FC0
1F00000FC0
1F00000FC0
1F00000FC0
1F00000FC0
1F00000FC0
1F00000FC0
1F00000FC0
1F00000FC0
1F00000FC0
1F00000FC0
1F00000FC0
1F00000FC0
1F00000FC0
1F00000FC0
1F00000FC0
1F00000FC0
1F00000FC0
1F00000FC0
1F00000FC0
ENDCHAR
STARTCHAR 0147
ENCODING 327
SWIDTH 501 0
DWIDTH 39 0
BBX 34 70 1 0
BITMAP
00F800F800
00FC01F000
007E03F000
003E03E000
001F07C000
000F8F8000
000FDF0000
0007FF0000
0003FE0000
0001FC0000
0000000000
0000000000
0000000000
0000000000
1000000000
3800000000
7E00000FC0
7F00000FC0
FF80000FC0
7FC0000FC0
1FF0000FC0
1FF8000FC0
1FFC000FC0
1FFF000FC0
1FFF800FC0
1F7FC00FC0
1F3FE00FC0
1F0FF80FC0
1F07FC0FC0
1F03FE0FC0
1F00FF8FC0
1F007FCFC0
1F003FEFC0
1F001FFFC0
1F0007FFC0
1F0003FFC0
1F0001FFC0
1F0000FFC0
1F00003FC0
1F00001FC0
1F00000FC0
1F00000FC0
1F00000FC0
1F00000FC0
1F00000FC0
1F00000FC0
1F00000FC0
1F00000FC0
1F00000FC0
1F00000FC0
1F00000FC0
1F00000FC0
1F00000FC0
1F00000FC0
1F00000FC0
1F00000FC0
1F00000FC0
1F00000FC0
1F00000FC0
1F00000FC0
1F00000FC0
1F00000FC0
1F00000FC0
1F00000FC0
1F00000FC0
1F00000FC0
1F00000FC0
1F00000FC0
1F00000FC0
1F00000FC0
ENDCHAR
STARTCHAR 0148
ENCODING 328
SWIDTH 501 0
DWIDTH 39 0
BBX 34 70 1 0
BITMAP
00F800F800
00FC01F000
007E03F000
003E03E000
001F07C000
000F8F8000
000FDF0000
0007FF0000
0003FE0000
0001FC0000
0000000000
0000000000
0000000000
0000000000
1000000000
3800000000
7E00000FC0
7F00000FC0
FF80000FC0
7FC0000FC0
1FF0000FC0
1FF8000FC0
1FFC000FC0
1FFF000FC0
1FFF800FC0
1F7FC00FC0
1F3FE00FC0
1F0FF80FC0
1F07FC0FC0
1F03FE0FC0
1F00FF8FC0
1F007FCFC0
1F003FEFC0
1F001FFFC0
1F0007FFC0
1F0003FFC0
1F0001FFC0
1F0000FFC0
1F00003FC0
1F00001FC0
1F00000FC0
1F00000FC0
1F00000FC0
1F00000FC0
1F00000FC0
1F00000FC0
1F00000FC0
1F00000FC0
1F00000FC0
1F00000FC0
1F00000FC0
1F00000FC0
1F00000FC0
1F00000FC0
1F00000FC0
1F00000FC0
1F00000FC0
1F00000FC0
1F00000FC0
1F00000FC0
1F00000FC0
1F00000FC0
1F00000FC0
1F00000FC0
1F00000FC0
1F00000FC0
1F00000FC0
1F00000FC0
1F00000FC0
1F00000FC0
ENDCHAR
STARTCHAR 014C
ENCODING 332
SWIDTH 810 0
DWIDTH 63 0
BBX 59 68 2 -1
BITMAP
00001FFFFF000000
00001FFFFF000000
00001FFFFF000000
00001FFFFF000000
00001FFFFF000000
0000000000000000
0000000000000000
0000000000000000
0000000000000000
0000000000000000
0000000000000000
0000001F00000000
000007FFFC000000
00003FFFFF800000
0000FFFFFFE00000
0003FFFFFFF80000
0007FFFFFFFE0000
001FFF000FFF0000
003FF00001FF8000
007FC000007FC000
00FF8000001FE000
01FE0000000FF000
03FC00000007F800
07F800000003FC00
07F000000001FC00
0FE000000000FE00
0FC0000000007E00
1FC0000000007F00
1F80000000003F00
3F80000000003F80
3F00000000001F80
3F00000000001FC0
7E00000000000FC0
7E00000000000FC0
7E00000000000FC0
7E00000000000FC0
7E000000000007C0
7C000000000007E0
FC000000000007E0
FC000000000007E0
FC000000000007E0
7C000000000007E0
7C000000000007E0
7E000000000007C0
7E00000000000FC0
7E00000000000FC0
7E00000000000FC0
7F00000000000FC0
3F00000000001F80
3F00000000001F80
3F80000000003F80
1F80000000003F00
1FC0000000007F00
0FE000000000FE00
0FE000000000FE00
07F000000001FC00
03F800000003F800
01FC00000007F800
01FF0000001FF000
00FF8000003FE000
007FE00000FFC000
001FFC0007FF8000
000FFFE0FFFE0000
0007FFFFFFFC0000
0001FFFFFFF00000
00007FFFFFC00000
00001FFFFF000000
000001FFF0000000
ENDCHAR
STARTCHAR 014D
ENCODING 333
SWIDTH 810 0
DWIDTH 63 0
BBX 59 68 2 -1
BITMAP
00001FFFFF000000
00001FFFFF000000
00001FFFFF000000
00001FFFFF000000
00001FFFFF000000
0000000000000000
0000000000000000
0000000000000000
0000000000000000
0000000000000000
0000000000000000
0000001F00000000
000007FFFC000000
00003FFFFF800000
0000FFFFFFE00000
0003FFFFFFF80000
0007FFFFFFFE0000
001FFF000FFF0000
003FF00001FF8000
007FC000007FC000
00FF8000001FE000
01FE0000000FF000
03FC00000007F800
07F800000003FC00
07F000000001FC00
0FE000000000FE00
0FC0000000007E00
1FC0000000007F00
1F80000000003F00
3F80000000003F80
3F00000000001F80
3F00000000001FC0
7E00000000000FC0
7E00000000000FC0
7E00000000000FC0
7E00000000000FC0
7E000000000007C0
7C000000000007E0
FC000000000007E0
FC000000000007E0
FC000000000007E0
7C000000000007E0
7C000000000007E0
7E000000000007C0
7E00000000000FC0
7E00000000000FC0
7E00000000000FC0
7F00000000000FC0
3F00000000001F80
3F00000000001F80
3F80000000003F80
1F80000000003F00
1FC0000000007F00
0FE000000000FE00
0FE000000000FE00
07F000000001FC00
03F800000003F800
01FC00000007F800
01FF0000001FF000
00FF8000003FE000
007FE00000FFC000
001FFC0007FF8000
000FFFE0FFFE0000
0007FFFFFFFC0000
0001FFFFFFF00000
00007FFFFFC00000
00001FFFFF000000
000001FFF0000000
ENDCHAR
STARTCHAR 0150
ENCODING 336
SWIDTH 810 0
DWIDTH 63 0
BBX 59 70 2 -1
BITMAP
0000003E01F00000
0000007C03F00000
0000007C03E00000
000000F807C00000
000001F00F800000
000001E00F800000
000003E01F000000
000007C01E000000
000007803C000000
00000F0078000000
0000000000000000
0000000000000000
0000000000000000
0000001F00000000
000007FFFC000000
00003FFFFF800000
0000FFFFFFE00000
0003FFFFFFF80000
0007FFFFFFFE0000
001FFF000FFF0000
003FF00001FF8000
007FC000007FC000
00FF8000001FE000
01FE0000000FF000
03FC00000007F800
07F800000003FC00
07F000000001FC00
0FE000000000FE00
0FC0000000007E00
1FC0000000007F00
1F80000000003F00
3F80000000003F80
3F00000000001F80
3F00000000001FC0
7E00000000000FC0
7E00000000000FC0
7E00000000000FC0
7E00000000000FC0
7E000000000007C0
7C000000000007E0
FC000000000007E0
FC000000000007E0
FC000000000007E0
7C000000000007E0
7C000000000007E0
7E000000000007C0
7E00000000000FC0
7E00000000000FC0
7E00000000000FC0
7F00000000000FC0
3F00000000001F80
3F00000000001F80
3F80000000003F80
1F80000000003F00
1FC0000000007F00
0FE000000000FE00
0FE000000000FE00
07F000000001FC00
03F800000003F800
01FC00000007F800
01FF0000001FF000
00FF8000003FE000
007FE00000FFC000
001FFC0007FF8000
000FFFE0FFFE0000
0007FFFFFFFC0000
0001FFFFFFF00000
00007FFFFFC00000
00001FFFFF000000
000001FFF0000000
ENDCHAR
STARTCHAR 0151
ENCODING 337
SWIDTH 810 0
DWIDTH 63 0
BBX 59 70 2 -1
BITMAP
0000003E01F00000
0000007C03F00000
0000007C03E00000
000000F807C00000
000001F00F800000
000001E00F800000
000003E01F000000
000007C01E000000
000007803C000000
00000F0078000000
0000000000000000
0000000000000000
0000000000000000
0000001F00000000
000007FFFC000000
00003FFFFF800000
0000FFFFFFE00000
0003FFFFFFF80000
0007FFFFFFFE0000
001FFF000FFF0000
003FF00001FF8000
007FC000007FC000
00FF8000001FE000
01FE0000000FF000
03FC00000007F800
07F800000003FC00
07F000000001FC00
0FE000000000FE00
0FC0000000007E00
1FC0000000007F00
1F80000000003F00
3F80000000003F80
3F00000000001F80
3F00000000001FC0
7E00000000000FC0
7E00000000000FC0
7E00000000000FC0
7E00000000000FC0
7E000000000007C0
7C000000000007E0
FC000000000007E0
FC000000000007E0
FC000000000007E0
7C000000000007E0
7C000000000007E0
7E000000000007C0
7E00000000000FC0
7E00000000000FC0
7E00000000000FC0
7F00000000000FC0
3F00000000001F80
3F00000000001F80
3F80000000003F80
1F80000000003F00
1FC0000000007F00
0FE000000000FE00
0FE000000000FE00
07F000000001FC00
03F800000003F800
01FC00000007F800
01FF0000001FF000
00FF8000003FE000
007FE00000FFC000
001FFC0007FF8000
000FFFE0FFFE0000
0007FFFFFFFC0000
0001FFFFFFF00000
00007FFFFFC00000
00001FFFFF000000
000001FFF0000000
ENDCHAR
STARTCHAR 0154
ENCODING 340
SWIDTH 565 0
DWIDTH 44 0
BBX 40 69 2 0
BITMAP
000003E000
000007C000
00000FC000
00000F8000
00001F0000
00001E0000
00003E0000
00007C0000
0000780000
0000F00000
0000000000
0000000000
0000000000
0000000000
0000000000
07FFFFF000
07FFFFFE00
07FFFFFF80
07FFFFFFC0
07FFFFFFE0
07E0007FF0
07E0000FF8
07E00003FC
07E00001FC
07E00000FE
07E000007E
07E000007E
07E000003F
07E000003F
07E000003F
07E000003F
07E000003F
07E000003F
07E000003F
07E000007E
07E000007E
07E00000FE
07E00000FC
07E00001FC
07E00007F8
07E0001FF8
07E001FFF0
FFFFFFFFE0
FFFFFFFF80
FFFFFFFF00
FFFFFFFE00
FFFFFFFF00
07E001FF80
07E0007FC0
07E0001FC0
07E0000FE0
07E00007E0
07E00007F0
07E00003F0
07E00003F0
07E00001F8
07E00001F8
07E00001F8
07E00001F8
07E00001F8
07E00000F8
07E00000FC
07E00000FC
07E00000FC
07E00000FC
07E00000FC
07E00000FC
07E00000FC
07E00000FC
ENDCHAR
STARTCHAR 0155
ENCODING 341
SWIDTH 565 0
DWIDTH 44 0
BBX 40 69 2 0
BITMAP
000003E000
000007C000
00000FC000
00000F8000
00001F0000
00001E0000
00003E0000
00007C0000
0000780000
0000F00000
0000000000
0000000000
0000000000
0000000000
0000000000
07FFFFF000
07FFFFFE00
07FFFFFF80
07FFFFFFC0
07FFFFFFE0
07E0007FF0
07E0000FF8
07E00003FC
07E00001FC
07E00000FE
07E000007E
07E000007E
07E000003F
07E000003F
07E000003F
07E000003F
07E000003F
07E000003F
07E000003F
07E000007E
07E000007E
07E00000FE
07E00000FC
07E00001FC
07E00007F8
07E0001FF8
07E001FFF0
FFFFFFFFE0
FFFFFFFF80
FFFFFFFF00
FFFFFFFE00
FFFFFFFF00
07E001FF80
07E0007FC0
07E0001FC0
07E0000FE0
07E00007E0
07E00007F0
07E00003F0
07E00003F0
07E00001F8
07E00001F8
07E00001F8
07E00001F8
07E00001F8
07E00000F8
07E00000FC
07E00000FC
07E00000FC
07E00000FC
07E00000FC
07E00000FC
07E00000FC
07E00000FC
ENDCHAR
STARTCHAR 0158
ENCODING 344
SWIDTH 565 0
DWIDTH 44 0
BBX 40 70 2 0
BITMAP
007C007E00
003E007C00
003F00F800
001F81F000
000FC3E000
0007C7C000
0003EFC000
0003FF8000
0001FF0000
0000FE0000
0000000000
0000000000
0000000000
0000000000
0000000000
0000000000
07FFFFF000
07FFFFFE00
07FFFFFF80
07FFFFFFC0
07FFFFFFE0
07E0007FF0
07E0000FF8
07E00003FC
07E00001FC
07E00000FE
07E000007E
07E000007E
07E000003F
07E000003F
07E000003F
07E000003F
07E000003F
07E000003F
07E000003F
07E000007E
07E000007E
07E00000FE
07E00000FC
07E00001FC
07E00007F8
07E0001FF8
07E001FFF0
FFFFFFFFE0
FFFFFFFF80
FFFFFFFF00
FFFFFFFE00
FFFFFFFF00
07E001FF80
07E0007FC0
07E0001FC0
07E0000FE0
07E00007E0
07E00007F0
07E00003F0
07E00003F0
07E00001F8
07E00001F8
07E00001F8
07E00001F8
07E00001F8
07E00000F8
07E00000FC
07E00000FC
07E00000FC
07E00000FC
07E00000FC
07E00000FC
07E00000FC
07E00000FC
ENDCHAR
STARTCHAR 0159
ENCODING 345
SWIDTH 565 0
DWIDTH 44 0
BBX 40 70 2 0
BITMAP
007C007E00
003E007C00
003F00F800
001F81F000
000FC3E000
0007C7C000
0003EFC000
0003FF8000
0001FF0000
0000FE0000
0000000000
0000000000
0000000000
0000000000
0000000000
0000000000
07FFFFF000
07FFFFFE00
07FFFFFF80
07FFFFFFC0
07FFFFFFE0
07E0007FF0
07E0000FF8
07E00003FC
07E00001FC
07E00000FE
07E000007E
07E000007E
07E000003F
07E000003F
07E000003F
07E000003F
07E000003F
07E000003F
07E000003F
07E000007E
07E000007E
07E00000FE
07E00000FC
07E00001FC
07E00007F8
07E0001FF8
07E001FFF0
FFFFFFFFE0
FFFFFFFF80
FFFFFFFF00
FFFFFFFE00
FFFFFFFF00
07E001FF80
07E0007FC0
07E0001FC0
07E0000FE0
07E00007E0
07E00007F0
07E00003F0
07E00003F0
07E00001F8
07E00001F8
07E00001F8
07E00001F8
07E00001F8
07E00000F8
07E00000FC
07E00000FC
07E00000FC
07E00000FC
07E00000FC
07E00000FC
07E00000FC
07E00000FC
ENDCHAR
STARTCHAR 015A
ENCODING 346
SWIDTH 475 0
DWIDTH 37 0
BBX 33 70 2 -1
BITMAP
00001F0000
00003E0000
00003E0000
00007C0000
0000F80000
0000F00000
0001F00000
0003E00000
0003C00000
0007800000
0000000000
0000000000
0000000000
0003E00000
003FFE0000
00FFFF8000
01FFFFE000
03FFFFF000
07FFFFF800
07F807F800
0FE003FC00
0FC000FE00
1FC000FE00
1F80007E00
1F80003F00
1F80003F00
1F80003F00
1F80001C00
1F80000000
1F80000000
1FC0000000
0FE0000000
0FF0000000
07F8000000
03FC000000
01FF000000
00FF800000
007FE00000
003FF80000
000FFC0000
0007FF0000
0001FFC000
00007FE000
00003FF000
00000FF800
000007FC00
000001FE00
000000FE00
0000007F00
0000003F00
0000003F80
0000001F80
0000001F80
0000001F80
1C00000F80
FC00000F80
FC00000F80
7E00001F80
7E00001F80
7F00001F80
3F00003F80
3F80007F00
1FC000FF00
1FF001FE00
0FFE0FFC00
07FFFFFC00
03FFFFF800
00FFFFE000
003FFF8000
000FFE0000
ENDCHAR
STARTCHAR 015B
ENCODING 347
SWIDTH 475 0
DWIDTH 37 0
BBX 33 70 2 -1
BITMAP
00001F0000
00003E0000
00003E0000
00007C0000
0000F80000
0000F00000
0001F00000
0003E00000
0003C00000
0007800000
0000000000
0000000000
0000000000
0003E00000
003FFE0000
00FFFF8000
01FFFFE000
03FFFFF000
07FFFFF800
07F807F800
0FE003FC00
0FC000FE00
1FC000FE00
1F80007E00
1F80003F00
1F80003F00
1F80003F00
1F80001C00
1F80000000
1F80000000
1FC0000000
0FE0000000
0FF0000000
07F8000000
03FC000000
01FF000000
00FF800000
007FE00000
003FF80000
000FFC0000
0007FF0000
0001FFC000
00007FE000
00003FF000
00000FF800
000007FC00
000001FE00
000000FE00
0000007F00
0000003F00
0000003F80
0000001F80
0000001F80
0000001F80
1C00000F80
FC00000F80
FC00000F80
7E00001F80
7E00001F80
7F00001F80
3F00003F80
3F80007F00
1FC000FF00
1FF001FE00
0FFE0FFC00
07FFFFFC00
03FFFFF800
00FFFFE000
003FFF8000
000FFE0000
ENDCHAR
STARTCHAR 015E
ENCODING 350
SWIDTH 475 0
DWIDTH 37 0
BBX 33 72 2 -16
BITMAP
0003E00000
003FFE0000
00FFFF8000
01FFFFE000
03FFFFF000
07FFFFF800
07F807F800
0FE003FC00
0FC000FE00
1FC000FE00
1F80007E00
1F80003F00
1F80003F00
1F80003F00
1F80001C00
1F80000000
1F80000000
1FC0000000
0FE0000000
0FF0000000
07F8000000
03FC000000
01FF000000
00FF800000
007FE00000
003FF80000
000FFC0000
0007FF0000
0001FFC000
00007FE000
00003FF000
00000FF800
000007FC00
000001FE00
000000FE00
0000007F00
0000003F00
0000003F80
0000001F80
0000001F80
0000001F80
1C00000F80
FC00000F80
FC00000F80
7E00001F80
7E00001F80
7F00001F80
3F00003F80
3F80007F00
1FC000FF00
1FF001FE00
0FFE0FFC00
07FFFFFC00
03FFFFF000
00FFFFE000
007FFF8000
000FFE0000
0001E00000
0001C00000
0001F80000
0001FC0000
00003E0000
00000E0000
00000F0000
0000070000
0020070000
0060070000
00F00F0000
00FC1E0000
007FFE0000
001FFC0000
000FF00000
ENDCHAR
STARTCHAR 015F
ENCODING 351
SWIDTH 475 0
DWIDTH 37 0
BBX 33 72 2 -16
BITMAP
0003E00000
003FFE0000
00FFFF8000
01FFFFE000
03FFFFF000
07FFFFF800
07F807F800
0FE003FC00
0FC000FE00
1FC000FE00
1F80007E00
1F80003F00
1F80003F00
1F80003F00
1F80001C00
1F80000000
1F80000000
1FC0000000
0FE0000000
0FF0000000
07F8000000
03FC000000
01FF000000
00FF800000
007FE00000
003FF80000
000FFC0000
0007FF0000
0001FFC000
00007FE000
00003FF000
00000FF800
000007FC00
000001FE00
000000FE00
0000007F00
0000003F00
0000003F80
0000001F80
0000001F80
0000001F80
1C00000F80
FC00000F80
FC00000F80
7E00001F80
7E00001F80
7F00001F80
3F00003F80
3F80007F00
1FC000FF00
1FF001FE00
0FFE0FFC00
07FFFFFC00
03FFFFF000
00FFFFE000
007FFF8000
000FFE0000
0001E00000
0001C00000
0001F80000
0001FC0000
00003E0000
00000E0000
00000F0000
0000070000
0020070000
0060070000
00F00F0000
00FC1E0000
007FFE0000
001FFC0000
000FF00000
ENDCHAR
STARTCHAR 0160
ENCODING 352
SWIDTH 475 0
DWIDTH 37 0
BBX 33 71 2 -1
BITMAP
03E003F000
01F007E000
01F807C000
00FC0F8000
007E1F0000
003E3E0000
001F7E0000
001FFC0000
000FF80000
0007F00000
0000000000
0000000000
0000000000
0000000000
0003E00000
003FFE0000
00FFFF8000
01FFFFE000
03FFFFF000
07FFFFF800
07F807F800
0FE003FC00
0FC000FE00
1FC000FE00
1F80007E00
1F80003F00
1F80003F00
1F80003F00
1F80001C00
1F80000000
1F80000000
1FC0000000
0FE0000000
0FF0000000
07F8000000
03FC000000
01FF000000
00FF800000
007FE00000
003FF80000
000FFC0000
0007FF0000
0001FFC000
00007FE000
00003FF000
00000FF800
000007FC00
000001FE00
000000FE00
0000007F00
0000003F00
0000003F80
0000001F80
0000001F80
0000001F80
1C00000F80
FC00000F80
FC00000F80
7E00001F80
7E00001F80
7F00001F80
3F00003F80
3F80007F00
1FC000FF00
1FF001FE00
0FFE0FFC00
07FFFFFC00
03FFFFF800
00FFFFE000
003FFF8000
000FFE0000
ENDCHAR
STARTCHAR 0161
ENCODING 353
SWIDTH 475 0
DWIDTH 37 0
BBX 33 71 2 -1
BITMAP
03E003F000
01F007E000
01F807C000
00FC0F8000
007E1F0000
003E3E0000
001F7E0000
001FFC0000
000FF80000
0007F00000
0000000000
0000000000
0000000000
0000000000
0003E00000
003FFE0000
00FFFF8000
01FFFFE000
03FFFFF000
07FFFFF800
07F807F800
0FE003FC00
0FC000FE00
1FC000FE00
1F80007E00
1F80003F00
1F80003F00
1F80003F00
1F80001C00
1F80000000
1F80000000
1FC0000000
0FE0000000
0FF0000000
07F8000000
03FC000000
01FF000000
00FF800000
007FE00000
003FF80000
000FFC0000
0007FF0000
0001FFC000
00007FE000
00003FF000
00000FF800
000007FC00
000001FE00
000000FE00
0000007F00
0000003F00
0000003F80
0000001F80
0000001F80
0000001F80
1C00000F80
FC00000F80
FC00000F80
7E00001F80
7E00001F80
7F00001F80
3F00003F80
3F80007F00
1FC000FF00
1FF001FE00
0FFE0FFC00
07FFFFFC00
03FFFFF800
00FFFFE000
003FFF8000
000FFE0000
ENDCHAR
STARTCHAR 0162
ENCODING 354
SWIDTH 488 0
DWIDTH 38 0
BBX 35 70 2 -16
BITMAP
FFFFFFFFE0
FFFFFFFFE0
FFFFFFFFE0
FFFFFFFFE0
FFFFFFFFE0
0003F00000
0003F00000
0003F00000
0003F00000
0003F00000
0003F00000
0003F00000
0003F00000
0003F00000
0003F00000
0003F00000
0003F00000
0003F00000
0003F00000
0003F00000
0003F00000
0003F00000
0003F00000
0003F00000
0003F00000
0003F00000
0003F00000
0003F00000
0003F00000
0003F00000
0003F00000
0003F00000
0003F00000
0003F00000
0003F00000
0003F00000
0003F00000
0003F00000
0003F00000
0003F00000
0003F00000
0003F00000
0003F00000
0003F00000
0003F00000
0003F00000
0003F00000
0003F00000
0003F00000
0003F00000
0003F00000
0003F00000
0003F00000
0003F00000
0001E00000
0001C00000
0003C00000
0003F00000
0003F80000
00003C0000
00001E0000
00000E0000
00000F0000
00400F0000
00E00F0000
01F00E0000
00F83E0000
007FFC0000
003FF80000
000FF00000
ENDCHAR
STARTCHAR 0163
ENCODING 355
SWIDTH 488 0
DWIDTH 38 0
BBX 35 70 2 -16
BITMAP
FFFFFFFFE0
FFFFFFFFE0
FFFFFFFFE0
FFFFFFFFE0
FFFFFFFFE0
0003F00000
0003F00000
0003F00000
0003F00000
0003F00000
0003F00000
0003F00000
0003F00000
0003F00000
0003F00000
0003F00000
0003F00000
0003F00000
0003F00000
0003F00000
0003F00000
0003F00000
0003F00000
0003F00000
0003F00000
0003F00000
0003F00000
0003F00000
0003F00000
0003F00000
0003F00000
0003F00000
0003F00000
0003F00000
0003F00000
0003F00000
0003F00000
0003F00000
0003F00000
0003F00000
0003F00000
0003F00000
0003F00000
0003F00000
0003F00000
0003F00000
0003F00000
0003F00000
0003F00000
0003F00000
0003F00000
0003F00000
0003F00000
0003F00000
0001E00000
0001C00000
0003C00000
0003F00000
0003F80000
00003C0000
00001E0000
00000E0000
00000F0000
00400F0000
00E00F0000
01F00E0000
00F83E0000
007FFC0000
003FF80000
000FF00000
ENDCHAR
STARTCHAR 0164
ENCODING 356
SWIDTH 488 0
DWIDTH 38 0
BBX 35 70 2 0
BITMAP
03E001F000
01F003E000
00F807C000
007C0F8000
003E1F8000
003F3F0000
001FBE0000
000FFC0000
0007F80000
0007F80000
0000000000
0000000000
0000000000
0000000000
0000000000
0000000000
FFFFFFFFE0
FFFFFFFFE0
FFFFFFFFE0
FFFFFFFFE0
FFFFFFFFE0
0003F00000
0003F00000
0003F00000
0003F00000
0003F00000
0003F00000
0003F00000
0003F00000
0003F00000
0003F00000
0003F00000
0003F00000
0003F00000
0003F00000
0003F00000
0003F00000
0003F00000
0003F00000
0003F00000
0003F00000
0003F00000
0003F00000
0003F00000
0003F00000
0003F00000
0003F00000
0003F00000
0003F00000
0003F00000
0003F00000
0003F00000
0003F00000
0003F00000
0003F00000
0003F00000
0003F00000
0003F00000
0003F00000
0003F00000
0003F00000
0003F00000
0003F00000
0003F00000
0003F00000
0003F00000
0003F00000
0003F00000
0003F00000
0003F00000
ENDCHAR
STARTCHAR 0165
ENCODING 357
SWIDTH 488 0
DWIDTH 38 0
BBX 35 70 2 0
BITMAP
03E001F000
01F003E000
00F807C000
007C0F8000
003E1F8000
003F3F0000
001FBE0000
000FFC0000
0007F80000
0007F80000
0000000000
0000000000
0000000000
0000000000
0000000000
0000000000
FFFFFFFFE0
FFFFFFFFE0
FFFFFFFFE0
FFFFFFFFE0
FFFFFFFFE0
0003F00000
0003F00000
0003F00000
0003F00000
0003F00000
0003F00000
0003F00000
0003F00000
0003F00000
0003F00000
0003F00000
0003F00000
0003F00000
0003F00000
0003F00000
0003F00000
0003F00000
0003F00000
0003F00000
0003F00000
0003F00000
0003F00000
0003F00000
0003F00000
0003F00000
0003F00000
0003F00000
0003F00000
0003F00000
0003F00000
0003F00000
0003F00000
0003F00000
0003F00000
0003F00000
0003F00000
0003F00000
0003F00000
0003F00000
0003F00000
0003F00000
0003F00000
0003F00000
0003F00000
0003F00000
0003F00000
0003F00000
0003F00000
0003F00000
ENDCHAR
STARTCHAR 0168
ENCODING 360
SWIDTH 488 0
DWIDTH 38 0
BBX 32 69 3 -1
BITMAP
01FE0000
03FFFF00
03FFFF00
03FFFF00
0001FF00
00000000
00000000
00000000
00000000
00000000
00000000
00000000
00000000
00000000
FC00001F
FC00001F
FC00001F
FC00001F
FC00001F
FC00001F
FC00001F
FC00001F
FC00001F
FC00001F
FC00001F
FC00001F
FC00001F
FC00001F
FC00001F
FC00001F
FC00001F
FC00001F
FC00001F
FC00001F
FC00001F
FC00001F
FC00001F
FC00001F
FC00001F
FC00001F
FC00001F
FC00001F
FC00001F
FC00001F
FC00001F
FC00001F
FC00001F
FC00001F
FC00001F
FC00001F
FC00001F
FC00001F
FC00003F
FC00003F
7C00003F
7E00003F
7E00003F
7E00007E
7F00007E
3F0000FE
3F8000FC
1FC001FC
1FE007F8
0FFC3FF0
07FFFFF0
03FFFFE0
01FFFF80
007FFF00
001FF800
ENDCHAR
STARTCHAR 0169
ENCODING 361
SWIDTH 488 0
DWIDTH 38 0
BBX 32 69 3 -1
BITMAP
01FE0000
03FFFF00
03FFFF00
03FFFF00
0001FF00
00000000
00000000
00000000
00000000
00000000
00000000
00000000
00000000
00000000
FC00001F
FC00001F
FC00001F
FC00001F
FC00001F
FC00001F
FC00001F
FC00001F
FC00001F
FC00001F
FC00001F
FC00001F
FC00001F
FC00001F
FC00001F
FC00001F
FC00001F
FC00001F
FC00001F
FC00001F
FC00001F
FC00001F
FC00001F
FC00001F
FC00001F
FC00001F
FC00001F
FC00001F
FC00001F
FC00001F
FC00001F
FC00001F
FC00001F
FC00001F
FC00001F
FC00001F
FC00001F
FC00001F
FC00003F
FC00003F
7C00003F
7E00003F
7E00003F
7E00007E
7F00007E
3F0000FE
3F8000FC
1FC001FC
1FE007F8
0FFC3FF0
07FFFFF0
03FFFFE0
01FFFF80
007FFF00
001FF800
ENDCHAR
STARTCHAR 016A
ENCODING 362
SWIDTH 488 0
DWIDTH 38 0
BBX 32 68 3 -1
BITMAP
07FFFFE0
07FFFFE0
07FFFFE0
07FFFFE0
07FFFFE0
00000000
00000000
00000000
00000000
00000000
00000000
00000000
00000000
FC00001F
FC00001F
FC00001F
FC00001F
FC00001F
FC00001F
FC00001F
FC00001F
FC00001F
FC00001F
FC00001F
FC00001F
FC00001F
FC00001F
FC00001F
FC00001F
FC00001F
FC00001F
FC00001F
FC00001F
FC00001F
FC00001F
FC00001F
FC00001F
FC00001F
FC00001F
FC00001F
FC00001F
FC00001F
FC00001F
FC00001F
FC00001F
FC00001F
FC00001F
FC00001F
FC00001F
FC00001F
FC00001F
FC00003F
FC00003F
7C00003F
7E00003F
7E00003F
7E00007E
7F00007E
3F0000FE
3F8000FC
1FC001FC
1FE007F8
0FFC3FF0
07FFFFF0
03FFFFE0
01FFFF80
007FFF00
001FF800
ENDCHAR
STARTCHAR 016B
ENCODING 363
SWIDTH 488 0
DWIDTH 38 0
BBX 32 68 3 -1
BITMAP
07FFFFE0
07FFFFE0
07FFFFE0
07FFFFE0
07FFFFE0
00000000
00000000
00000000
00000000
00000000
00000000
00000000
00000000
FC00001F
FC00001F
FC00001F
FC00001F
FC00001F
FC00001F
FC00001F
FC00001F
FC00001F
FC00001F
FC00001F
FC00001F
FC00001F
FC00001F
FC00001F
FC00001F
FC00001F
FC00001F
FC00001F
FC00001F
FC00001F
FC00001F
FC00001F
FC00001F
FC00001F
FC00001F
FC00001F
FC00001F
FC00001F
FC00001F
FC00001F
FC00001F
FC00001F
FC00001F
FC00001F
FC00001F
FC00001F
FC00001F
FC00003F
FC00003F
7C00003F
7E00003F
7E00003F
7E00007E
7F00007E
3F0000FE
3F8000FC
1FC001FC
1FE007F8
0FFC3FF0
07FFFFF0
03FFFFE0
01FFFF80
007FFF00
001FF800
ENDCHAR
STARTCHAR 016E
ENCODING 366
SWIDTH 488 0
DWIDTH 38 0
BBX 32 76 3 -1
BITMAP
00008000
000FF000
001FFC00
003FFC00
007C3E00
00780F00
00700F00
00700F00
00700700
00700F00
00780F00
00781E00
003FFE00
001FFC00
000FF800
0003E000
00000000
00000000
00000000
00000000
00000000
FC00001F
FC00001F
FC00001F
FC00001F
FC00001F
FC00001F
FC00001F
FC00001F
FC00001F
FC00001F
FC00001F
FC00001F
FC00001F
FC00001F
FC00001F
FC00001F
FC00001F
FC00001F
FC00001F
FC00001F
FC00001F
FC00001F
FC00001F
FC00001F
FC00001F
FC00001F
FC00001F
FC00001F
FC00001F
FC00001F
FC00001F
FC00001F
FC00001F
FC00001F
FC00001F
FC00001F
FC00001F
FC00001F
FC00003F
FC00003F
7C00003F
7E00003F
7E00003F
7E00007E
7F00007E
3F0000FE
3F8000FC
1FC001FC
1FE007F8
0FFC3FF0
07FFFFF0
03FFFFE0
01FFFF80
007FFF00
001FF800
ENDCHAR
STARTCHAR 016F
ENCODING 367
SWIDTH 488 0
DWIDTH 38 0
BBX 32 76 3 -1
BITMAP
00008000
000FF000
001FFC00
003FFC00
007C3E00
00780F00
00700F00
00700F00
00700700
00700F00
00780F00
00781E00
003FFE00
001FFC00
000FF800
0003E000
00000000
00000000
00000000
00000000
00000000
FC00001F
FC00001F
FC00001F
FC00001F
FC00001F
FC00001F
FC00001F
FC00001F
FC00001F
FC00001F
FC00001F
FC00001F
FC00001F
FC00001F
FC00001F
FC00001F
FC00001F
FC00001F
FC00001F
FC00001F
FC00001F
FC00001F
FC00001F
FC00001F
FC00001F
FC00001F
FC00001F
FC00001F
FC00001F
FC00001F
FC00001F
FC00001F
FC00001F
FC00001F
FC00001F
FC00001F
FC00001F
FC00001F
FC00003F
FC00003F
7C00003F
7E00003F
7E00003F
7E00007E
7F00007E
3F0000FE
3F8000FC
1FC001FC
1FE007F8
0FFC3FF0
07FFFFF0
03FFFFE0
01FFFF80
007FFF00
001FF800
ENDCHAR
STARTCHAR 0170
ENCODING 368
SWIDTH 488 0
DWIDTH 38 0
BBX 32 70 3 -1
BITMAP
0007C03E
000F807C
001F00FC
001F00F8
003E01F0
007C01E0
007803E0
00F807C0
00F00780
01E00F00
00000000
00000000
00000000
00000000
00000000
FC00001F
FC00001F
FC00001F
FC00001F
FC00001F
FC00001F
FC00001F
FC00001F
FC00001F
FC00001F
FC00001F
FC00001F
FC00001F
FC00001F
FC00001F
FC00001F
FC00001F
FC00001F
FC00001F
FC00001F
FC00001F
FC00001F
FC00001F
FC00001F
FC00001F
FC00001F
FC00001F
FC00001F
FC00001F
FC00001F
FC00001F
FC00001F
FC00001F
FC00001F
FC00001F
FC00001F
FC00001F
FC00001F
FC00003F
FC00003F
7C00003F
7E00003F
7E00003F
7E00007E
7F00007E
3F0000FE
3F8000FC
1FC001FC
1FE007F8
0FFC3FF0
07FFFFF0
03FFFFE0
01FFFF80
007FFF00
001FF800
ENDCHAR
STARTCHAR 0171
ENCODING 369
SWIDTH 488 0
DWIDTH 38 0
BBX 32 70 3 -1
BITMAP
0007C03E
000F807C
001F00FC
001F00F8
003E01F0
007C01E0
007803E0
00F807C0
00F00780
01E00F00
00000000
00000000
00000000
00000000
00000000
FC00001F
FC00001F
FC00001F
FC00001F
FC00001F
FC00001F
FC00001F
FC00001F
FC00001F
FC00001F
FC00001F
FC00001F
FC00001F
FC00001F
FC00001F
FC00001F
FC00001F
FC00001F
FC00001F
FC00001F
FC00001F
FC00001F
FC00001F
FC00001F
FC00001F
FC00001F
FC00001F
FC00001F
FC00001F
FC00001F
FC00001F
FC00001F
FC00001F
FC00001F
FC00001F
FC00001F
FC00001F
FC00001F
FC00003F
FC00003F
7C00003F
7E00003F
7E00003F
7E00007E
7F00007E
3F0000FE
3F8000FC
1FC001FC
1FE007F8
0FFC3FF0
07FFFFF0
03FFFFE0
01FFFF80
007FFF00
001FF800
ENDCHAR
STARTCHAR 0172
ENCODING 370
SWIDTH 488 0
DWIDTH 38 0
BBX 32 68 3 -14
BITMAP
FC00001F
FC00001F
FC00001F
FC00001F
FC00001F
FC00001F
FC00001F
FC00001F
FC00001F
FC00001F
FC00001F
FC00001F
FC00001F
FC00001F
FC00001F
FC00001F
FC00001F
FC00001F
FC00001F
FC00001F
FC00001F
FC00001F
FC00001F
FC00001F
FC00001F
FC00001F
FC00001F
FC00001F
FC00001F
FC00001F
FC00001F
FC00001F
FC00001F
FC00001F
FC00001F
FC00001F
FC00001F
FC00001F
FC00003F
FC00003F
7C00003F
7E00003F
7E00003F
7E00007E
7F00007E
3F0000FE
3F8000FC
1FC001FC
1FE007F8
0FFC3FF0
07FFFFF0
03FFFFE0
01FFFF80
007FFF00
000FF800
00078000
000F0000
001E0000
001C0000
003C0000
00380000
00380000
00380000
003C0400
003E1F00
001FFE00
000FFC00
0007F800
ENDCHAR
STARTCHAR 0173
ENCODING 371
SWIDTH 488 0
DWIDTH 38 0
BBX 32 68 3 -14
BITMAP
FC00001F
FC00001F
FC00001F
FC00001F
FC00001F
FC00001F
FC00001F
FC00001F
FC00001F
FC00001F
FC00001F
FC00001F
FC00001F
FC00001F
FC00001F
FC00001F
FC00001F
FC00001F
FC00001F
FC00001F
FC00001F
FC00001F
FC00001F
FC00001F
FC00001F
FC00001F
FC00001F
FC00001F
FC00001F
FC00001F
FC00001F
FC00001F
FC00001F
FC00001F
FC00001F
FC00001F
FC00001F
FC00001F
FC00003F
FC00003F
7C00003F
7E00003F
7E00003F
7E00007E
7F00007E
3F0000FE
3F8000FC
1FC001FC
1FE007F8
0FFC3FF0
07FFFFF0
03FFFFE0
01FFFF80
007FFF00
000FF800
00078000
000F0000
001E0000
001C0000
003C0000
00380000
00380000
00380000
003C0400
003E1F00
001FFE00
000FFC00
0007F800
ENDCHAR
STARTCHAR 0176
ENCODING 374
SWIDTH 475 0
DWIDTH 37 0
BBX 32 69 3 0
BITMAP
000FF000
001FF800
003FF800
003E7C00
007C3E00
00F83F00
01F81F80
01F00F80
03E007C0
07C003E0
00000000
00000000
00000000
00000000
00000000
FC00003F
FC00003F
FC00003F
FC00003F
FC00003F
FC00003F
FC00003F
FC00003F
FC00003F
FC00003F
FC00003F
FC00003F
FC00003F
FC00003F
FC00003F
FC00003F
FC00003F
FC00003F
FC00003F
FC00003F
FC00003F
FC00003F
FC00003F
FC00003F
FC00003F
FC00003F
FC00003F
FC00003F
7C00007E
7E00007E
7E00007E
7F0000FC
3F8001FC
3FC003F8
1FE007F8
0FFC7FF0
07FFFFE0
03FFFFC0
01FFFF80
007FFE00
000FF000
0007E000
0007E000
0007E000
0007E000
0007E000
0007E000
0007E000
0007E000
0007E000
0007E000
0007E000
0007E000
0007E000
ENDCHAR
STARTCHAR 0177
ENCODING 375
SWIDTH 475 0
DWIDTH 37 0
BBX 32 69 3 0
BITMAP
000FF000
001FF800
003FF800
003E7C00
007C3E00
00F83F00
01F81F80
01F00F80
03E007C0
07C003E0
00000000
00000000
00000000
00000000
00000000
FC00003F
FC00003F
FC00003F
FC00003F
FC00003F
FC00003F
FC00003F
FC00003F
FC00003F
FC00003F
FC00003F
FC00003F
FC00003F
FC00003F
FC00003F
FC00003F
FC00003F
FC00003F
FC00003F
FC00003F
FC00003F
FC00003F
FC00003F
FC00003F
FC00003F
FC00003F
FC00003F
FC00003F
7C00007E
7E00007E
7E00007E
7F0000FC
3F8001FC
3FC003F8
1FE007F8
0FFC7FF0
07FFFFE0
03FFFFC0
01FFFF80
007FFE00
000FF000
0007E000
0007E000
0007E000
0007E000
0007E000
0007E000
0007E000
0007E000
0007E000
0007E000
0007E000
0007E000
0007E000
ENDCHAR
STARTCHAR 0178
ENCODING 376
SWIDTH 475 0
DWIDTH 37 0
BBX 32 69 3 0
BITMAP
03C001C0
0FF007F0
0FF80FF8
1FF80FFC
1FF81FFC
1FF81FFC
1FF81FFC
1FF80FFC
0FF80FF8
07F007F0
018001C0
00000000
00000000
00000000
00000000
FC00003F
FC00003F
FC00003F
FC00003F
FC00003F
FC00003F
FC00003F
FC00003F
FC00003F
FC00003F
FC00003F
FC00003F
FC00003F
FC00003F
FC00003F
FC00003F
FC00003F
FC00003F
FC00003F
FC00003F
FC00003F
FC00003F
FC00003F
FC00003F
FC00003F
FC00003F
FC00003F
FC00003F
7C00007E
7E00007E
7E00007E
7F0000FC
3F8001FC
3FC003F8
1FE007F8
0FFC7FF0
07FFFFE0
03FFFFC0
01FFFF80
007FFE00
000FF000
0007E000
0007E000
0007E000
0007E000
0007E000
0007E000
0007E000
0007E000
0007E000
0007E000
0007E000
0007E000
0007E000
ENDCHAR
STARTCHAR 0179
ENCODING 377
SWIDTH 488 0
DWIDTH 38 0
BBX 35 69 2 0
BITMAP
00000F8000
00001F0000
00003E0000
00003E0000
00007C0000
0000F80000
0000F00000
0001F00000
0001E00000
0003C00000
0000000000
0000000000
0000000000
0000000000
0000000000
FFFFFFFFE0
FFFFFFFFE0
FFFFFFFFE0
FFFFFFFFC0
FFFFFFFFC0
0000001F80
0000003F00
0000007F00
0000007E00
000000FE00
000001FC00
000001F800
000003F800
000003F000
000007F000
00000FE000
00000FC000
00001FC000
00001F8000
00003F8000
00007F0000
00007E0000
0000FE0000
0000FC0000
0001FC0000
0001F80000
0003F00000
0007F00000
0007E00000
000FE00000
000FC00000
001F800000
003F800000
003F000000
007F000000
00FE000000
00FC000000
01FC000000
01F8000000
03F8000000
07F0000000
07E0000000
0FE0000000
0FC0000000
1FC0000000
3F80000000
3F00000000
7F00000000
7E00000000
FFFFFFFF80
FFFFFFFF80
FFFFFFFF80
FFFFFFFF80
FFFFFFFF80
ENDCHAR
STARTCHAR 017A
ENCODING 378
SWIDTH 488 0
DWIDTH 38 0
BBX 35 69 2 0
BITMAP
00000F8000
00001F0000
00003E0000
00003E0000
00007C0000
0000F80000
0000F00000
0001F00000
0001E00000
0003C00000
0000000000
0000000000
0000000000
0000000000
0000000000
FFFFFFFFE0
FFFFFFFFE0
FFFFFFFFE0
FFFFFFFFC0
FFFFFFFFC0
0000001F80
0000003F00
0000007F00
0000007E00
000000FE00
000001FC00
000001F800
000003F800
000003F000
000007F000
00000FE000
00000FC000
00001FC000
00001F8000
00003F8000
00007F0000
00007E0000
0000FE0000
0000FC0000
0001FC0000
0001F80000
0003F00000
0007F00000
0007E00000
000FE00000
000FC00000
001F800000
003F800000
003F000000
007F000000
00FE000000
00FC000000
01FC000000
01F8000000
03F8000000
07F0000000
07E0000000
0FE0000000
0FC0000000
1FC0000000
3F80000000
3F00000000
7F00000000
7E00000000
FFFFFFFF80
FFFFFFFF80
FFFFFFFF80
FFFFFFFF80
FFFFFFFF80
ENDCHAR
STARTCHAR 017B
ENCODING 379
SWIDTH 488 0
DWIDTH 38 0
BBX 35 71 2 0
BITMAP
0000F00000
0003FC0000
0007FC0000
0007FE0000
000FFE0000
000FFE0000
000FFE0000
0007FE0000
0007FC0000
0003F80000
0000E00000
0000000000
0000000000
0000000000
0000000000
0000000000
0000000000
FFFFFFFFE0
FFFFFFFFE0
FFFFFFFFE0
FFFFFFFFC0
FFFFFFFFC0
0000001F80
0000003F00
0000007F00
0000007E00
000000FE00
000001FC00
000001F800
000003F800
000003F000
000007F000
00000FE000
00000FC000
00001FC000
00001F8000
00003F8000
00007F0000
00007E0000
0000FE0000
0000FC0000
0001FC0000
0001F80000
0003F00000
0007F00000
0007E00000
000FE00000
000FC00000
001F800000
003F800000
003F000000
007F000000
00FE000000
00FC000000
01FC000000
01F8000000
03F8000000
07F0000000
07E0000000
0FE0000000
0FC0000000
1FC0000000
3F80000000
3F00000000
7F00000000
7E00000000
FFFFFFFF80
FFFFFFFF80
FFFFFFFF80
FFFFFFFF80
FFFFFFFF80
ENDCHAR
STARTCHAR 017C
ENCODING 380
SWIDTH 488 0
DWIDTH 38 0
BBX 35 71 2 0
BITMAP
0000F00000
0003FC0000
0007FC0000
0007FE0000
000FFE0000
000FFE0000
000FFE0000
0007FE0000
0007FC0000
0003F80000
0000E00000
0000000000
0000000000
0000000000
0000000000
0000000000
0000000000
FFFFFFFFE0
FFFFFFFFE0
FFFFFFFFE0
FFFFFFFFC0
FFFFFFFFC0
0000001F80
0000003F00
0000007F00
0000007E00
000000FE00
000001FC00
000001F800
000003F800
000003F000
000007F000
00000FE000
00000FC000
00001FC000
00001F8000
00003F8000
00007F0000
00007E0000
0000FE0000
0000FC0000
0001FC0000
0001F80000
0003F00000
0007F00000
0007E00000
000FE00000
000FC00000
001F800000
003F800000
003F000000
007F000000
00FE000000
00FC000000
01FC000000
01F8000000
03F8000000
07F0000000
07E0000000
0FE0000000
0FC0000000
1FC0000000
3F80000000
3F00000000
7F00000000
7E00000000
FFFFFFFF80
FFFFFFFF80
FFFFFFFF80
FFFFFFFF80
FFFFFFFF80
ENDCHAR
STARTCHAR 017D
ENCODING 381
SWIDTH 488 0
DWIDTH 38 0
BBX 35 70 2 0
BITMAP
01F001F000
00F803E000
00FC07E000
007C07C000
003E0F8000
001F1F0000
001FBE0000
000FFE0000
0007FC0000
0003F80000
0000000000
0000000000
0000000000
0000000000
0000000000
0000000000
FFFFFFFFE0
FFFFFFFFE0
FFFFFFFFE0
FFFFFFFFC0
FFFFFFFFC0
0000001F80
0000003F00
0000007F00
0000007E00
000000FE00
000001FC00
000001F800
000003F800
000003F000
000007F000
00000FE000
00000FC000
00001FC000
00001F8000
00003F8000
00007F0000
00007E0000
0000FE0000
0000FC0000
0001FC0000
0001F80000
0003F00000
0007F00000
0007E00000
000FE00000
000FC00000
001F800000
003F800000
003F000000
007F000000
00FE000000
00FC000000
01FC000000
01F8000000
03F8000000
07F0000000
07E0000000
0FE0000000
0FC0000000
1FC0000000
3F80000000
3F00000000
7F00000000
7E00000000
FFFFFFFF80
FFFFFFFF80
FFFFFFFF80
FFFFFFFF80
FFFFFFFF80
ENDCHAR
STARTCHAR 017E
ENCODING 382
SWIDTH 488 0
DWIDTH 38 0
BBX 35 70 2 0
BITMAP
01F001F000
00F803E000
00FC07E000
007C07C000
003E0F8000
001F1F0000
001FBE0000
000FFE0000
0007FC0000
0003F80000
0000000000
0000000000
0000000000
0000000000
0000000000
0000000000
FFFFFFFFE0
FFFFFFFFE0
FFFFFFFFE0
FFFFFFFFC0
FFFFFFFFC0
0000001F80
0000003F00
0000007F00
0000007E00
000000FE00
000001FC00
000001F800
000003F800
000003F000
000007F000
00000FE000
00000FC000
00001FC000
00001F8000
00003F8000
00007F0000
00007E0000
0000FE0000
0000FC0000
0001FC0000
0001F80000
0003F00000
0007F00000
0007E00000
000FE00000
000FC00000
001F800000
003F800000
003F000000
007F000000
00FE000000
00FC000000
01FC000000
01F8000000
03F8000000
07F0000000
07E0000000
0FE0000000
0FC0000000
1FC0000000
3F80000000
3F00000000
7F00000000
7E00000000
FFFFFFFF80
FFFFFFFF80
FFFFFFFF80
FFFFFFFF80
FFFFFFFF80
ENDCHAR
STARTCHAR 01A0
ENCODING 416
SWIDTH 810 0
DWIDTH 63 0
BBX 59 62 2 -1
BITMAP
000000000001E000
000000000003E000
000000000003E000
000000000003E000
000000000003E000
0000001F0007C000
000007FFFC0F8000
00003FFFFFFF8000
0000FFFFFFFE0000
0003FFFFFFF80000
0007FFFFFFFE0000
001FFF000FFF0000
003FF00001FF8000
007FC000007FC000
00FF8000001FE000
01FE0000000FF000
03FC00000007F800
07F800000003FC00
07F000000001FC00
0FE000000000FE00
0FC0000000007E00
1FC0000000007F00
1F80000000003F00
3F80000000003F80
3F00000000001F80
3F00000000001FC0
7E00000000000FC0
7E00000000000FC0
7E00000000000FC0
7E00000000000FC0
7E000000000007C0
7C000000000007E0
FC000000000007E0
FC000000000007E0
FC000000000007E0
7C000000000007E0
7C000000000007E0
7E000000000007C0
7E00000000000FC0
7E00000000000FC0
7E00000000000FC0
7F00000000000FC0
3F00000000001F80
3F00000000001F80
3F80000000003F80
1F80000000003F00
1FC0000000007F00
0FE000000000FE00
0FE000000000FE00
07F000000001FC00
03F800000003F800
01FC00000007F800
01FF0000001FF000
00FF8000003FE000
007FE00000FFC000
001FFC0007FF8000
000FFFE0FFFE0000
0007FFFFFFFC0000
0001FFFFFFF00000
00007FFFFFC00000
00001FFFFF000000
000001FFF0000000
ENDCHAR
STARTCHAR 01A1
ENCODING 417
SWIDTH 810 0
DWIDTH 63 0
BBX 59 62 2 -1
BITMAP
000000000001E000
000000000003E000
000000000003E000
000000000003E000
000000000003E000
0000001F0007C000
000007FFFC0F8000
00003FFFFFFF8000
0000FFFFFFFE0000
0003FFFFFFF80000
0007FFFFFFFE0000
001FFF000FFF0000
003FF00001FF8000
007FC000007FC000
00FF8000001FE000
01FE0000000FF000
03FC00000007F800
07F800000003FC00
07F000000001FC00
0FE000000000FE00
0FC0000000007E00
1FC0000000007F00
1F80000000003F00
3F80000000003F80
3F00000000001F80
3F00000000001FC0
7E00000000000FC0
7E00000000000FC0
7E00000000000FC0
7E00000000000FC0
7E000000000007C0
7C000000000007E0
FC000000000007E0
FC000000000007E0
FC000000000007E0
7C000000000007E0
7C000000000007E0
7E000000000007C0
7E00000000000FC0
7E00000000000FC0
7E00000000000FC0
7F00000000000FC0
3F00000000001F80
3F00000000001F80
3F80000000003F80
1F80000000003F00
1FC0000000007F00
0FE000000000FE00
0FE000000000FE00
07F000000001FC00
03F800000003F800
01FC00000007F800
01FF0000001FF000
00FF8000003FE000
007FE00000FFC000
001FFC0007FF8000
000FFFE0FFFE0000
0007FFFFFFFC0000
0001FFFFFFF00000
00007FFFFFC00000
00001FFFFF000000
000001FFF0000000
ENDCHAR
STARTCHAR 01AF
ENCODING 431
SWIDTH 488 0
DWIDTH 38 0
BBX 38 62 3 -1
BITMAP
000000007C
000000007C
000000007C
0000000078
0000000078
00000000F8
00000003F0
FC00001FE0
FC00001FC0
FC00001F00
FC00001F00
FC00001F00
FC00001F00
FC00001F00
FC00001F00
FC00001F00
FC00001F00
FC00001F00
FC00001F00
FC00001F00
FC00001F00
FC00001F00
FC00001F00
FC00001F00
FC00001F00
FC00001F00
FC00001F00
FC00001F00
FC00001F00
FC00001F00
FC00001F00
FC00001F00
FC00001F00
FC00001F00
FC00001F00
FC00001F00
FC00001F00
FC00001F00
FC00001F00
FC00001F00
FC00001F00
FC00001F00
FC00001F00
FC00001F00
FC00001F00
FC00003F00
FC00003F00
7C00003F00
7E00003F00
7E00003F00
7E00007E00
7F00007E00
3F0000FE00
3F8000FC00
1FC001FC00
1FE007F800
0FFC3FF000
07FFFFF000
03FFFFE000
01FFFF8000
007FFF0000
001FF80000
ENDCHAR
STARTCHAR 01B0
ENCODING 432
SWIDTH 488 0
DWIDTH 38 0
BBX 38 62 3 -1
BITMAP
000000007C
000000007C
000000007C
0000000078
0000000078
00000000F8
00000003F0
FC00001FE0
FC00001FC0
FC00001F00
FC00001F00
FC00001F00
FC00001F00
FC00001F00
FC00001F00
FC00001F00
FC00001F00
FC00001F00
FC00001F00
FC00001F00
FC00001F00
FC00001F00
FC00001F00
FC00001F00
FC00001F00
FC00001F00
FC00001F00
FC00001F00
FC00001F00
FC00001F00
FC00001F00
FC00001F00
FC00001F00
FC00001F00
FC00001F00
FC00001F00
FC00001F00
FC00001F00
FC00001F00
FC00001F00
FC00001F00
FC00001F00
FC00001F00
FC00001F00
FC00001F00
FC00003F00
FC00003F00
7C00003F00
7E00003F00
7E00003F00
7E00007E00
7F00007E00
3F0000FE00
3F8000FC00
1FC001FC00
1FE007F800
0FFC3FF000
07FFFFF000
03FFFFE000
01FFFF8000
007FFF0000
001FF80000
ENDCHAR
STARTCHAR 01CD
ENCODING 461
SWIDTH 540 0
DWIDTH 42 0
BBX 38 70 4 0
BITMAP
07C003E000
03E007C000
01F00F8000
00F81F0000
00FC3F0000
007E7E0000
003FFC0000
001FF80000
000FF00000
000FF00000
0000000000
0000000000
0000000000
0000000000
0001800000
003FFC0000
00FFFF0000
03FFFF8000
07FFFFE000
0FFFFFF000
1FF00FF000
1FC003F800
3F8001FC00
3F0000FC00
7F0000FE00
7E00007E00
7E00007E00
FC00007E00
FC00003F00
FC00003F00
FC00003F00
FC00003F00
FC00003F00
FC00003F00
FC00003F00
FC00003F00
FC00003F00
FC00003F00
FC00003F00
FC00003F00
FC00003F00
FC00003F00
FC00003F00
FC00003F00
FC00003F00
FC00003F00
FC00003F00
FC00003F00
FC00003F00
FC00003F00
FC00003F00
FC00003F00
FC00003F00
FC00003F00
FC00003F00
FC00003F00
FC00003F00
FC00003F00
FC00003F00
FC00003F00
FC00003F00
FC00003F00
FC00003F00
FC00003F00
FC00003F00
FFFFFFFFFC
FFFFFFFFFC
FFFFFFFFFC
FFFFFFFFFC
FFFFFFFFFC
ENDCHAR
STARTCHAR 01CE
ENCODING 462
SWIDTH 540 0
DWIDTH 42 0
BBX 38 70 4 0
BITMAP
07C003E000
03E007C000
01F00F8000
00F81F0000
00FC3F0000
007E7E0000
003FFC0000
001FF80000
000FF00000
000FF00000
0000000000
0000000000
0000000000
0000000000
0001800000
003FFC0000
00FFFF0000
03FFFF8000
07FFFFE000
0FFFFFF000
1FF00FF000
1FC003F800
3F8001FC00
3F0000FC00
7F0000FE00
7E00007E00
7E00007E00
FC00007E00
FC00003F00
FC00003F00
FC00003F00
FC00003F00
FC00003F00
FC00003F00
FC00003F00
FC00003F00
FC00003F00
FC00003F00
FC00003F00
FC00003F00
FC00003F00
FC00003F00
FC00003F00
FC00003F00
FC00003F00
FC00003F00
FC00003F00
FC00003F00
FC00003F00
FC00003F00
FC00003F00
FC00003F00
FC00003F00
FC00003F00
FC00003F00
FC00003F00
FC00003F00
FC00003F00
FC00003F00
FC00003F00
FC00003F00
FC00003F00
FC00003F00
FC00003F00
FC00003F00
FFFFFFFFFC
FFFFFFFFFC
FFFFFFFFFC
FFFFFFFFFC
FFFFFFFFFC
ENDCHAR
STARTCHAR 01CF
ENCODING 463
SWIDTH 167 0
DWIDTH 13 0
BBX 22 49 -4 0
BITMAP
F8007C
7C00F8
3E01F0
1F03E0
1F87E0
0FCFC0
07FF80
03FF00
01FE00
01FE00
000000
000000
000000
000000
000000
000000
00FC00
00FC00
00FC00
00FC00
00FC00
00FC00
00FC00
00FC00
00FC00
00FC00
00FC00
00FC00
00FC00
00FC00
00FC00
00FC00
00FC00
00FC00
00FC00
00FC00
00FC00
00FC00
00FC00
00FC00
00FC00
00FC00
00FC00
00FC00
00FC00
00FC00
00FC00
00FC00
00FC00
ENDCHAR
STARTCHAR 01D0
ENCODING 464
SWIDTH 167 0
DWIDTH 13 0
BBX 22 49 -4 0
BITMAP
F8007C
7C00F8
3E01F0
1F03E0
1F87E0
0FCFC0
07FF80
03FF00
01FE00
01FE00
000000
000000
000000
000000
000000
000000
00FC00
00FC00
00FC00
00FC00
00FC00
00FC00
00FC00
00FC00
00FC00
00FC00
00FC00
00FC00
00FC00
00FC00
00FC00
00FC00
00FC00
00FC00
00FC00
00FC00
00FC00
00FC00
00FC00
00FC00
00FC00
00FC00
00FC00
00FC00
00FC00
00FC00
00FC00
00FC00
00FC00
ENDCHAR
STARTCHAR 01D1
ENCODING 465
SWIDTH 810 0
DWIDTH 63 0
BBX 59 71 2 -1
BITMAP
00001F001F000000
00000F803F000000
00000FC03E000000
000007E07C000000
000003E0F8000000
000001F1F0000000
000000FBF0000000
000000FFE0000000
0000007FC0000000
0000003F80000000
0000000000000000
0000000000000000
0000000000000000
0000000000000000
0000001F00000000
000007FFFC000000
00003FFFFF800000
0000FFFFFFE00000
0003FFFFFFF80000
0007FFFFFFFE0000
001FFF000FFF0000
003FF00001FF8000
007FC000007FC000
00FF8000001FE000
01FE0000000FF000
03FC00000007F800
07F800000003FC00
07F000000001FC00
0FE000000000FE00
0FC0000000007E00
1FC0000000007F00
1F80000000003F00
3F80000000003F80
3F00000000001F80
3F00000000001FC0
7E00000000000FC0
7E00000000000FC0
7E00000000000FC0
7E00000000000FC0
7E000000000007C0
7C000000000007E0
FC000000000007E0
FC000000000007E0
FC000000000007E0
7C000000000007E0
7C000000000007E0
7E000000000007C0
7E00000000000FC0
7E00000000000FC0
7E00000000000FC0
7F00000000000FC0
3F00000000001F80
3F00000000001F80
3F80000000003F80
1F80000000003F00
1FC0000000007F00
0FE000000000FE00
0FE000000000FE00
07F000000001FC00
03F800000003F800
01FC00000007F800
01FF0000001FF000
00FF8000003FE000
007FE00000FFC000
001FFC0007FF8000
000FFFE0FFFE0000
0007FFFFFFFC0000
0001FFFFFFF00000
00007FFFFFC00000
00001FFFFF000000
000001FFF0000000
ENDCHAR
STARTCHAR 01D2
ENCODING 466
SWIDTH 810 0
DWIDTH 63 0
BBX 59 71 2 -1
BITMAP
00001F001F000000
00000F803F000000
00000FC03E000000
000007E07C000000
000003E0F8000000
000001F1F0000000
000000FBF0000000
000000FFE0000000
0000007FC0000000
0000003F80000000
0000000000000000
0000000000000000
0000000000000000
0000000000000000
0000001F00000000
000007FFFC000000
00003FFFFF800000
0000FFFFFFE00000
0003FFFFFFF80000
0007FFFFFFFE0000
001FFF000FFF0000
003FF00001FF8000
007FC000007FC000
00FF8000001FE000
01FE0000000FF000
03FC00000007F800
07F800000003FC00
07F000000001FC00
0FE000000000FE00
0FC0000000007E00
1FC0000000007F00
1F80000000003F00
3F80000000003F80
3F00000000001F80
3F00000000001FC0
7E00000000000FC0
7E00000000000FC0
7E00000000000FC0
7E00000000000FC0
7E000000000007C0
7C000000000007E0
FC000000000007E0
FC000000000007E0
FC000000000007E0
7C000000000007E0
7C000000000007E0
7E000000000007C0
7E00000000000FC0
7E00000000000FC0
7E00000000000FC0
7F00000000000FC0
3F00000000001F80
3F00000000001F80
3F80000000003F80
1F80000000003F00
1FC0000000007F00
0FE000000000FE00
0FE000000000FE00
07F000000001FC00
03F800000003F800
01FC00000007F800
01FF0000001FF000
00FF8000003FE000
007FE00000FFC000
001FFC0007FF8000
000FFFE0FFFE0000
0007FFFFFFFC0000
0001FFFFFFF00000
00007FFFFFC00000
00001FFFFF000000
000001FFF0000000
ENDCHAR
STARTCHAR 01D3
ENCODING 467
SWIDTH 488 0
DWIDTH 38 0
BBX 32 71 3 -1
BITMAP
07E003E0
03F007C0
01F00F80
00F81F80
007C1F00
003E3E00
003F7C00
001FFC00
000FF800
0007F000
00000000
00000000
00000000
00000000
00000000
00000000
FC00001F
FC00001F
FC00001F
FC00001F
FC00001F
FC00001F
FC00001F
FC00001F
FC00001F
FC00001F
FC00001F
FC00001F
FC00001F
FC00001F
FC00001F
FC00001F
FC00001F
FC00001F
FC00001F
FC00001F
FC00001F
FC00001F
FC00001F
FC00001F
FC00001F
FC00001F
FC00001F
FC00001F
FC00001F
FC00001F
FC00001F
FC00001F
FC00001F
FC00001F
FC00001F
FC00001F
FC00001F
FC00001F
FC00003F
FC00003F
7C00003F
7E00003F
7E00003F
7E00007E
7F00007E
3F0000FE
3F8000FC
1FC001FC
1FE007F8
0FFC3FF0
07FFFFF0
03FFFFE0
01FFFF80
007FFF00
001FF800
ENDCHAR
STARTCHAR 01D4
ENCODING 468
SWIDTH 488 0
DWIDTH 38 0
BBX 32 71 3 -1
BITMAP
07E003E0
03F007C0
01F00F80
00F81F80
007C1F00
003E3E00
003F7C00
001FFC00
000FF800
0007F000
00000000
00000000
00000000
00000000
00000000
00000000
FC00001F
FC00001F
FC00001F
FC00001F
FC00001F
FC00001F
FC00001F
FC00001F
FC00001F
FC00001F
FC00001F
FC00001F
FC00001F
FC00001F
FC00001F
FC00001F
FC00001F
FC00001F
FC00001F
FC00001F
FC00001F
FC00001F
FC00001F
FC00001F
FC00001F
FC00001F
FC00001F
FC00001F
FC00001F
FC00001F
FC00001F
FC00001F
FC00001F
FC00001F
FC00001F
FC00001F
FC00001F
FC00001F
FC00003F
FC00003F
7C00003F
7E00003F
7E00003F
7E00007E
7F00007E
3F0000FE
3F8000FC
1FC001FC
1FE007F8
0FFC3FF0
07FFFFF0
03FFFFE0
01FFFF80
007FFF00
001FF800
ENDCHAR
STARTCHAR 02C6
ENCODING 710
SWIDTH 282 0
DWIDTH 22 0
BBX 22 10 0 59
BITMAP
00FE00
01FF00
03FF80
07EFC0
0FC7C0
0F83E0
1F01F0
3E00F8
7C007C
F8007C
ENDCHAR
STARTCHAR 02C7
ENCODING 711
SWIDTH 282 0
DWIDTH 22 0
BBX 22 10 0 60
BITMAP
FC007C
7E00F8
3F01F8
1F03F0
0F83E0
07C7C0
07EF80
03FF80
01FF00
00FE00
ENDCHAR
STARTCHAR 02D8
ENCODING 728
SWIDTH 257 0
DWIDTH 20 0
BBX 21 10 0 59
BITMAP
F00078
F000F8
F800F0
7801F0
7C01F0
3E07E0
1FFFC0
0FFF80
07FF00
00F800
ENDCHAR
STARTCHAR 02D9
ENCODING 729
SWIDTH 128 0
DWIDTH 10 0
BBX 11 11 0 61
BITMAP
0600
3F80
7FC0
7FE0
7FE0
FFE0
FFE0
7FE0
7FC0
3FC0
1F00
ENDCHAR
STARTCHAR 02DA
ENCODING 730
SWIDTH 192 0
DWIDTH 15 0
BBX 15 15 0 60
BITMAP
0FF0
3FF8
3FFC
7C3E
F01E
F00E
E00E
E00E
F00E
F01E
783E
7FFC
3FF8
1FF0
07C0
ENDCHAR
STARTCHAR 02DB
ENCODING 731
SWIDTH 180 0
DWIDTH 14 0
BBX 14 15 0 -14
BITMAP
03E0
0F80
1E00
3C00
7800
7000
F000
E000
E000
F010
F038
7CFC
3FF8
1FF0
07C0
ENDCHAR
STARTCHAR 02DC
ENCODING 732
SWIDTH 231 0
DWIDTH 18 0
BBX 19 5 0 63
BITMAP
7F8000
FFFFE0
FFFFE0
FFFFE0
007FC0
ENDCHAR
STARTCHAR 02DD
ENCODING 733
SWIDTH 308 0
DWIDTH 24 0
BBX 24 10 0 59
BITMAP
03E01F
07E03F
07C03E
0F807C
1F0078
1F00F8
3E01F0
3C01E0
7803C0
F007C0
ENDCHAR
STARTCHAR 0300
ENCODING 768
SWIDTH 0 0
DWIDTH 0 0
BBX 11 10 -11 59
BITMAP
F800
FC00
7C00
3E00
1F00
1F00
0F80
0780
03C0
01E0
ENDCHAR
STARTCHAR 0301
ENCODING 769
SWIDTH 0 0
DWIDTH 0 0
BBX 12 10 -12 59
BITMAP
03F0
07E0
07C0
0F80
0F00
1F00
3E00
3C00
7800
F800
ENDCHAR
STARTCHAR 0302
ENCODING 770
SWIDTH 0 0
DWIDTH 0 0
BBX 22 10 -22 59
BITMAP
01FC00
03FE00
07FF00
0FDF80
0F8FC0
1F07C0
3E03E0
7C01F0
FC00F8
F8007C
ENDCHAR
STARTCHAR 0303
ENCODING 771
SWIDTH 0 0
DWIDTH 0 0
BBX 19 5 -19 63
BITMAP
7FC000
FFFFE0
FFFFE0
FFFFE0
803FE0
ENDCHAR
STARTCHAR 0304
ENCODING 772
SWIDTH 0 0
DWIDTH 0 0
BBX 22 5 -22 62
BITMAP
FFFFFC
FFFFFC
FFFFFC
FFFFFC
FFFFFC
ENDCHAR
STARTCHAR 0306
ENCODING 774
SWIDTH 0 0
DWIDTH 0 0
BBX 21 10 -21 59
BITMAP
F00078
F80078
7800F8
7800F0
7C01F0
3F07E0
1FFFC0
0FFF80
07FF00
00F800
ENDCHAR
STARTCHAR 0307
ENCODING 775
SWIDTH 0 0
DWIDTH 0 0
BBX 10 10 -10 62
BITMAP
3F00
7F80
FFC0
FFC0
FFC0
FFC0
FFC0
FFC0
7F80
1E00
ENDCHAR
STARTCHAR 0308
ENCODING 776
SWIDTH 0 0
DWIDTH 0 0
BBX 27 11 -27 58
BITMAP
0E000F00
3F803FC0
7FC07FE0
FFE07FE0
FFE07FE0
FFE07FE0
FFE07FE0
FFC07FE0
7FC07FC0
3F803F80
0E000600
ENDCHAR
STARTCHAR 0309
ENCODING 777
SWIDTH 0 0
DWIDTH 0 0
BBX 6 15 -6 59
BITMAP
78
3C
3C
3C
3C
3C
78
78
F0
F0
F0
F0
F0
F0
78
ENDCHAR
STARTCHAR 030A
ENCODING 778
SWIDTH 0 0
DWIDTH 0 0
BBX 15 16 -15 59
BITMAP
0100
1FE0
3FF8
7FF8
F87C
F01E
E01E
E01E
E00E
E01E
F01E
F03C
7FFC
3FF8
1FF0
07C0
ENDCHAR
STARTCHAR 030B
ENCODING 779
SWIDTH 0 0
DWIDTH 0 0
BBX 25 10 -25 59
BITMAP
03E01F80
07E03F00
07C03E00
0F807C00
1F007800
1F00F800
3E01F000
3C01E000
7803C000
F807C000
ENDCHAR
ENDFONT
